<svg xmlns="http://www.w3.org/2000/svg" xmlns:xlink="http://www.w3.org/1999/xlink" width="105" height="105" viewBox="0 0 105 105"><defs><clipPath id="clip-path"><rect id="Rectangle_38" data-name="Rectangle 38" width="65.589" height="73.684" fill="none"></rect></clipPath></defs><g id="Group_179" data-name="Group 179" transform="translate(1712 -1135)"><g id="Rectangle_102" data-name="Rectangle 102" transform="translate(-1712 1135)" fill="#fff" stroke="#707070" stroke-width="1" opacity="0"><rect width="105" height="105" stroke="none"></rect><rect x="0.5" y="0.5" width="104" height="104" fill="none"></rect></g><g id="Group_175" data-name="Group 175" transform="translate(-1693 1151)"><g id="Group_56" data-name="Group 56" clip-path="url(#clip-path)"><path id="Path_184" data-name="Path 184" d="M163.41,93.963a5.006,5.006,0,1,1-4.99-5.024,5.007,5.007,0,0,1,4.99,5.024" transform="translate(-125.562 -72.8)" fill="#3d1e63"></path><path id="Path_185" data-name="Path 185" d="M238.139,109.005a4.461,4.461,0,1,0-4.446-4.476,4.461,4.461,0,0,0,4.446,4.476" transform="translate(-191.287 -81.923)" fill="#dfd2ef"></path><path id="Path_186" data-name="Path 186" d="M242.572,160.375l-6.429-.022a1.187,1.187,0,0,0-1.176,1c-.089.548-.172,1.1-.3,1.636l-3.4,14.27a1.187,1.187,0,0,0,1.168,1l1.389,0-.02,5.923a1.776,1.776,0,0,0,1.77,1.782l1.465,0a1.776,1.776,0,0,0,1.782-1.77l.02-5.923,1.147,0a1.187,1.187,0,0,0,1.175-.992l2.579-15.533a1.187,1.187,0,0,0-1.167-1.381" transform="translate(-189.299 -131.256)" fill="#dfd2ef"></path><path id="Path_187" data-name="Path 187" d="M79.095,107.818a4.461,4.461,0,1,0,4.476-4.446,4.461,4.461,0,0,0-4.476,4.446" transform="translate(-64.742 -84.614)" fill="#dfd2ef"></path><path id="Path_188" data-name="Path 188" d="M73.947,176.665l-3.306-14.293c-.125-.54-.2-1.089-.289-1.638a1.188,1.188,0,0,0-1.17-1l-6.429-.022a1.187,1.187,0,0,0-1.176,1.373l2.474,15.55a1.187,1.187,0,0,0,1.168,1l1.147,0-.02,5.923a1.776,1.776,0,0,0,1.77,1.782l1.465,0a1.776,1.776,0,0,0,1.782-1.77l.02-5.923,1.389,0a1.187,1.187,0,0,0,1.175-.993" transform="translate(-50.391 -130.728)" fill="#dfd2ef"></path><path id="Path_189" data-name="Path 189" d="M69.984,50.476l-.83-1.312a32.981,32.981,0,0,0-3.333,2.415l.988,1.2a31.466,31.466,0,0,1,3.176-2.3" transform="translate(-53.876 -40.243)" fill="#885ac6"></path><path id="Path_190" data-name="Path 190" d="M348.308,161.475l1.541-.191a32.742,32.742,0,0,0-.762-4.047l-1.5.383a31.184,31.184,0,0,1,.726,3.854" transform="translate(-284.51 -128.706)" fill="#885ac6"></path><path id="Path_191" data-name="Path 191" d="M3.736,157.03l-1.5-.388a32.734,32.734,0,0,0-.776,4.044l1.54.2a31.225,31.225,0,0,1,.739-3.852" transform="translate(-1.193 -128.218)" fill="#885ac6"></path><path id="Path_192" data-name="Path 192" d="M15.917,115.294l-1.358-.752a32.745,32.745,0,0,0-1.765,3.723l1.442.575a31.17,31.17,0,0,1,1.681-3.546" transform="translate(-10.472 -93.757)" fill="#885ac6"></path><path id="Path_193" data-name="Path 193" d="M38.5,79.036,37.372,77.97a33.083,33.083,0,0,0-2.633,3.166l1.253.916A31.512,31.512,0,0,1,38.5,79.036" transform="translate(-28.435 -63.822)" fill="#885ac6"></path><path id="Path_194" data-name="Path 194" d="M277.387,51.949a33.013,33.013,0,0,0-3.326-2.429l-.835,1.309a31.452,31.452,0,0,1,3.169,2.314Z" transform="translate(-223.647 -40.534)" fill="#885ac6"></path><path id="Path_195" data-name="Path 195" d="M193.914,22.638l-1,.615q-.535-.053-1.07-.087l.1-1.55c.125.008.25.016.375.026Z" transform="translate(-157.028 -17.694)" fill="#3d1e63"></path><path id="Path_196" data-name="Path 196" d="M238.522,31.66a32.741,32.741,0,0,0-3.828-1.524l-.482,1.476a31.1,31.1,0,0,1,3.646,1.451Z" transform="translate(-191.712 -24.668)" fill="#885ac6"></path><path id="Path_197" data-name="Path 197" d="M1.553,201.566l-1.553,0a33.221,33.221,0,0,0,.246,4.109l1.541-.189a31.7,31.7,0,0,1-.234-3.916" transform="translate(0 -164.988)" fill="#885ac6"></path><path id="Path_198" data-name="Path 198" d="M108.383,31.419l-.477-1.478a32.715,32.715,0,0,0-3.831,1.51l.659,1.406a31.152,31.152,0,0,1,3.649-1.438" transform="translate(-85.19 -24.508)" fill="#885ac6"></path><path id="Path_199" data-name="Path 199" d="M161.324,23.125c-.657.039-1.316.1-1.972.181l.005-1.564q.934-.109,1.873-.167Z" transform="translate(-130.436 -17.66)" fill="#3d1e63"></path><path id="Path_200" data-name="Path 200" d="M127.48,366.345l-.005,1.59c-1.039-.231-2.072-.514-3.08-.844l.483-1.475c.853.279,1.723.523,2.6.729" transform="translate(-101.822 -299.272)" fill="#885ac6"></path><path id="Path_201" data-name="Path 201" d="M319.693,288.731l1.252.918a33,33,0,0,0,2.222-3.468l-1.357-.754a31.379,31.379,0,0,1-2.117,3.3" transform="translate(-261.682 -233.634)" fill="#885ac6"></path><path id="Path_202" data-name="Path 202" d="M333.113,115.118l-1.361.747a31.231,31.231,0,0,1,1.666,3.548l1.444-.57a32.728,32.728,0,0,0-1.749-3.725" transform="translate(-271.553 -94.229)" fill="#885ac6"></path><path id="Path_203" data-name="Path 203" d="M307.556,78.466l-1.133,1.061a31.615,31.615,0,0,1,2.5,3.025l1.257-.912a33.081,33.081,0,0,0-2.621-3.174" transform="translate(-250.82 -64.228)" fill="#885ac6"></path><path id="Path_204" data-name="Path 204" d="M340.641,249.08l1.441.577a32.639,32.639,0,0,0,1.285-3.915l-1.5-.39a31.148,31.148,0,0,1-1.224,3.728" transform="translate(-278.829 -200.831)" fill="#885ac6"></path><path id="Path_205" data-name="Path 205" d="M353.294,202.173h-1.553v.07a31.709,31.709,0,0,1-.256,3.915l1.54.2a33.261,33.261,0,0,0,.269-4.107Z" transform="translate(-287.705 -165.487)" fill="#885ac6"></path><path id="Path_206" data-name="Path 206" d="M5.53,244.789a32.65,32.65,0,0,0,1.262,3.92l1.445-.568a31.116,31.116,0,0,1-1.2-3.733Z" transform="translate(-4.527 -200.058)" fill="#885ac6"></path><path id="Path_207" data-name="Path 207" d="M290.042,322.92l.986,1.2a33.086,33.086,0,0,0,3.01-2.809l-1.128-1.067a31.542,31.542,0,0,1-2.868,2.677" transform="translate(-237.411 -262.132)" fill="#885ac6"></path><path id="Path_208" data-name="Path 208" d="M49.781,319.489l-1.134,1.06a33.1,33.1,0,0,0,2.993,2.827l.994-1.193a31.552,31.552,0,0,1-2.852-2.694" transform="translate(-39.82 -261.515)" fill="#885ac6"></path><path id="Path_209" data-name="Path 209" d="M253.571,349.537l.658,1.406a32.884,32.884,0,0,0,3.611-1.974l-.829-1.313a31.326,31.326,0,0,1-3.44,1.881" transform="translate(-207.558 -284.571)" fill="#885ac6"></path><path id="Path_210" data-name="Path 210" d="M83.454,348.417a32.881,32.881,0,0,0,3.6,2l.666-1.4a31.33,31.33,0,0,1-3.432-1.9Z" transform="translate(-68.311 -284.123)" fill="#885ac6"></path><path id="Path_211" data-name="Path 211" d="M22.1,285.286a32.926,32.926,0,0,0,2.2,3.479l1.258-.91a31.382,31.382,0,0,1-2.1-3.314Z" transform="translate(-18.093 -232.908)" fill="#885ac6"></path><path id="Path_212" data-name="Path 212" d="M168.967,373.777l-.1,1.549c.674.044,1.361.067,2.041.069s1.389-.017,2.075-.058l-.092-1.55a31.947,31.947,0,0,1-3.924-.011" transform="translate(-138.224 -305.952)" fill="#3d1e63"></path><path id="Path_213" data-name="Path 213" d="M222.005,367.4c-1.02.328-2.065.607-3.118.834l.005-1.59c.89-.2,1.774-.443,2.638-.721Z" transform="translate(-179.168 -299.523)" fill="#885ac6"></path><path id="Path_214" data-name="Path 214" d="M167.258,4.944l-1,.615-6.979,4.275L159.307,0l6.35,3.949Z" transform="translate(-130.372 0)" fill="#3d1e63"></path><path id="Path_215" data-name="Path 215" d="M166.156,351.875l-.033,9.834-7.951-4.944Z" transform="translate(-129.47 -288.024)" fill="#212a33"></path><path id="Path_216" data-name="Path 216" d="M167.258,4.944l-1,.615-6.979,4.275L159.307,0l6.35,3.949Z" transform="translate(-130.372 0)" fill="#885ac6"></path><path id="Path_217" data-name="Path 217" d="M158.172,356.764l7.984-4.89-.033,9.834Z" transform="translate(-129.47 -288.024)" fill="#885ac6"></path><path id="Path_218" data-name="Path 218" d="M150.761,156.5l-14.148-.048c-.032,0-.064,0-.095,0a1.332,1.332,0,0,0-1.225,1.538l1.195,7.509,1.582,9.943a1.333,1.333,0,0,0,1.311,1.123l1.559.005-.023,6.864a1.776,1.776,0,0,0,1.77,1.783l2.078.007a1.776,1.776,0,0,0,1.782-1.771l.023-6.864,1.288,0a1.331,1.331,0,0,0,1.319-1.114l1.372-8.264,1.522-9.169a1.332,1.332,0,0,0-1.31-1.551" transform="translate(-110.728 -128.06)" fill="#885ac6"></path><path id="Path_219" data-name="Path 219" d="M158.386,98.952a5.006,5.006,0,1,0-4.989-5.023,5.007,5.007,0,0,0,4.989,5.023" transform="translate(-125.562 -72.8)" fill="#885ac6"></path></g></g></g></svg>