<svg xmlns="http://www.w3.org/2000/svg" xmlns:xlink="http://www.w3.org/1999/xlink" width="105" height="105" viewBox="0 0 105 105"><defs><clipPath id="clip-path"><rect id="Rectangle_37" data-name="Rectangle 37" width="65.671" height="78.84" fill="none"></rect></clipPath></defs><g id="Group_178" data-name="Group 178" transform="translate(1860 -1135)"><g id="Rectangle_102" data-name="Rectangle 102" transform="translate(-1860 1135)" fill="#fff" stroke="#707070" stroke-width="1" opacity="0"><rect width="105" height="105" stroke="none"></rect><rect x="0.5" y="0.5" width="104" height="104" fill="none"></rect></g><g id="Group_174" data-name="Group 174" transform="translate(-1841 1148)"><g id="Group_54" data-name="Group 54" clip-path="url(#clip-path)"><path id="Path_177" data-name="Path 177" d="M21.887,249.71a6.157,6.157,0,0,0-4.047-2.133l-.963-.136c-2.122.033-4.244.081-6.367.094-1.269.008-2.538-.036-3.807-.057l-.55.079a5.637,5.637,0,0,0-3.933,1.627,7.117,7.117,0,0,0-2.213,5.861A4.955,4.955,0,0,0,2.529,259.5q5.87,3.436,11.777,6.809a1.993,1.993,0,0,0,1.343.178c1.161-.291,1.5-.843,1.5-2.138a33.418,33.418,0,0,1,.038-4.653,10.829,10.829,0,0,1,4.453-7.351,1.593,1.593,0,0,0,.246-2.635" transform="translate(0 -197.393)" fill="#dfd2ef"></path><path id="Path_178" data-name="Path 178" d="M29.715,181.736c4.228.061,7.211-3.232,7.093-7.949a6.825,6.825,0,0,0-7.233-6.38,7.021,7.021,0,0,0-7.17,7.186,7.2,7.2,0,0,0,7.31,7.142" transform="translate(-17.872 -133.538)" fill="#dfd2ef"></path><path id="Path_179" data-name="Path 179" d="M133.675,201.184a7.174,7.174,0,0,0,.262,14.345,6.767,6.767,0,0,0,5.1-2.07,7.21,7.21,0,0,0-5.363-12.275" transform="translate(-101.081 -160.491)" fill="#dfd2ef"></path><path id="Path_180" data-name="Path 180" d="M231.68,171.019a6.588,6.588,0,0,0-.842,4.794,7.224,7.224,0,0,0,14.14.354c.015-.137.021-.276.046-.411a6.834,6.834,0,0,0-1.878-6.269,6.905,6.905,0,0,0-5.535-2.1,6.7,6.7,0,0,0-5.931,3.63" transform="translate(-184.035 -133.527)" fill="#dfd2ef"></path><path id="Path_181" data-name="Path 181" d="M75.019,14.7c.5.6,1.024,1.18,1.536,1.77.668.657,1.369,1.291,2,1.981.779.852,1.5,1.753,2.249,2.627l.434.451a3.627,3.627,0,0,1,.011-.364,3.342,3.342,0,0,0-.009.364,4.809,4.809,0,0,1,.338,3.233c-.166.923-.21,1.866-.319,2.8-.161,1.365-.3,2.735-.512,4.092a2.031,2.031,0,0,0,.591,1.889,1.448,1.448,0,0,0,1.856.4c.628-.338,1.327-.542,1.983-.832,1.969-.872,3.9-1.832,5.912-2.6a4.13,4.13,0,0,1,2.414-.069A27.155,27.155,0,0,1,97.1,31.9c1.485.65,2.974,1.3,4.424,2.018a1.489,1.489,0,0,0,1.771-.269,2.11,2.11,0,0,0,.622-2.152c-.116-1.114-.269-2.224-.389-3.338-.115-1.072-.145-2.156-.322-3.217a4.459,4.459,0,0,1,.972-4.06q2.751-2.995,5.434-6.053a1.7,1.7,0,0,0-.576-2.817,6.5,6.5,0,0,0-1.476-.523c-2.062-.435-4.118-.947-6.2-1.211A4.817,4.817,0,0,1,97.38,7.156c-.358-.608-.729-1.209-1.073-1.825A27.613,27.613,0,0,0,93.51.463c-.743-1-2.03-.072-2.03-.072a5.1,5.1,0,0,0-.889.9s0,.009-.005.013a4.075,4.075,0,0,0-.369.612L87.28,7.158l-.351.629h0a.109.109,0,0,1-.058.078l-.023.311-.02.51q.01-.255.02-.51.012-.155.023-.311l-.334.392-.967,1.365-1.8.622-.458.1-.052-.025-.048.039c-.18.025-.362.04-.539.076q-2.652.534-5.3,1.074c-.164.172-.316.366-.474.549.158-.183.309-.377.472-.549-.278.05-.556.1-.829.156a3.025,3.025,0,0,0-1.825,1.481c-.028.267-.061.534-.095.8l.067.184a4.184,4.184,0,0,0,.334.573m11.56-6.407h0l-.008-.007.008.007M81.273,20.831a1.226,1.226,0,0,0-.072-.562,1.21,1.21,0,0,1,.072.562m-2.857-3.553a22.014,22.014,0,0,0,1.752,1.852,21.717,21.717,0,0,1-1.755-1.855,3.743,3.743,0,0,0-.32-.353,3.8,3.8,0,0,1,.323.355" transform="translate(-59.526 0)" fill="#885ac6"></path><path id="Path_182" data-name="Path 182" d="M126.692,284.59c-1.54-2.489-3.962-3.215-6.747-3.046l-9.173-.042-.161.011c-.289.055-.576.132-.867.161-2.531.246-5.282,3-5.371,5.529-.1,2.778-.083,5.559-.1,8.339a2.934,2.934,0,0,0,1.372,2.64c.7.449,1.446.826,2.171,1.234,1.749,1.02,3.516,2.009,5.241,3.067a5.227,5.227,0,0,0,5.622.191c2.542-1.421,5.039-2.919,7.556-4.385a2.813,2.813,0,0,0,1.609-2.754c.014-2.717-.072-5.434-.118-8.151a14.456,14.456,0,0,0-1.03-2.8" transform="translate(-83.179 -224.565)" fill="#dfd2ef"></path><path id="Path_183" data-name="Path 183" d="M235.716,252.419a5.348,5.348,0,0,0-2.108-3.228c-.014-.012-.023-.022-.037-.034a12.068,12.068,0,0,0-1.566-.957c-.05-.029-.1-.054-.151-.08l-.18-.094.02.016a5.852,5.852,0,0,0-2.417-.449c-3.214-.029-6.429-.007-9.644.019-.613,0-1.225.119-1.838.182a4.984,4.984,0,0,0-3.059,1.46c-1.636,1.5-1.712,2.3.129,3.571.019.013.038.027.056.041a10.494,10.494,0,0,1,3.978,8.1c.047,1.25.006,2.5.015,3.754a1.755,1.755,0,0,0,1.376,1.887,2.446,2.446,0,0,0,.951-.018c.891-.417,1.76-.89,2.61-1.387,1.473-.861,2.926-1.756,4.387-2.637l4.455-2.5a5.032,5.032,0,0,0,3.293-4.472,20.985,20.985,0,0,0-.269-3.173" transform="translate(-170.315 -197.503)" fill="#dfd2ef"></path></g></g></g></svg>