<svg xmlns="http://www.w3.org/2000/svg" xmlns:xlink="http://www.w3.org/1999/xlink" width="104" height="104" viewBox="0 0 104 104"><defs><clipPath id="clip-path"><rect id="Rectangle_68" data-name="Rectangle 68" width="74.361" height="74.298" fill="none"></rect></clipPath></defs><g id="Group_115" data-name="Group 115" transform="translate(392 -602)"><g id="Rectangle_74" data-name="Rectangle 74" transform="translate(-392 602)" fill="#fff" stroke="#707070" stroke-width="1" opacity="0"><rect width="104" height="104" stroke="none"></rect><rect x="0.5" y="0.5" width="103" height="103" fill="none"></rect></g><g id="Group_114" data-name="Group 114" transform="translate(-377 617)"><g id="Group_95" data-name="Group 95" clip-path="url(#clip-path)"><path id="Path_290" data-name="Path 290" d="M74.354,43.916a2.64,2.64,0,0,0-.677-1.952A2.717,2.717,0,0,0,71.7,41.3H62.684q-5.427,0-10.86,0a10.777,10.777,0,0,0-2.477.267A11.033,11.033,0,0,0,51.76,63.375c3.782.015,7.412.012,10.793-.009a1.4,1.4,0,0,1,1.038.319,1.354,1.354,0,0,1,.319,1c-.021,1.469-.018,2.956-.015,4.4v.686c0,.929,0,1.879-.006,2.811a3.461,3.461,0,0,1-3.548,3.563l-6.772,0c-12.366.009-26.379.018-39.783-.015a9.146,9.146,0,0,1-9.109-9.094c-.027-9.3-.036-18.967-.027-29.248q.009-7.125.024-14.675A9.2,9.2,0,0,1,12.35,14.18a25.6,25.6,0,0,1,4.78-.188l.17,0c.75.018,1.527.036,2.286.015a2.379,2.379,0,0,0,2.492-2.343,2.352,2.352,0,0,0-2.5-2.313c-1.773-.012-3.536-.006-5.4,0h-.039A14.049,14.049,0,0,0,1.861,16.387a14.2,14.2,0,0,0-1.851,7.06Q0,36.577,0,49.71V66.735A13.181,13.181,0,0,0,.264,69.5a13.921,13.921,0,0,0,13.9,11.3c5.284.009,10.651.009,15.847.006H37.4q3.319,0,6.635,0h3.214c4.3,0,8.748,0,13.1-.012a8.006,8.006,0,0,0,8.056-6.835,26.129,26.129,0,0,0,.164-4.519l0-.085c-.021-.853-.042-1.818-.012-2.756a4.935,4.935,0,0,0-.046-.7l-.009-.088a2.326,2.326,0,0,1,.425-2.134,2.742,2.742,0,0,1,2.088-.34,6.572,6.572,0,0,0,.735.039,2.382,2.382,0,0,0,2.607-2.586c.009-5.336.009-10.857,0-16.876m-4.635,13.4v.067a1.394,1.394,0,0,1-.337,1.023,1.379,1.379,0,0,1-1.041.337h-.061c-1.906-.027-3.849-.024-5.727-.021h-.44q-1.129,0-2.258,0l-3.5,0q-2.194,0-4.389-.006a6.751,6.751,0,0,1-4.844-1.952,6.254,6.254,0,0,1-1.8-4.477,6.381,6.381,0,0,1,6.644-6.335q3.087-.009,6.171,0c3.327,0,6.766,0,10.147-.015a1.5,1.5,0,0,1,1.1.34,1.434,1.434,0,0,1,.334,1.081c-.039,3.254-.039,6.6,0,9.956" transform="translate(0 -6.51)" fill="#421c67"></path><path id="Path_291" data-name="Path 291" d="M94.944,23.05v-.212a8.107,8.107,0,0,0-8.247-8.3A1.587,1.587,0,0,1,85.052,13.4c-1.1-2.829-2.246-5.7-3.351-8.48L80.551,2.04C80,.64,79.34,0,78.311,0a4.538,4.538,0,0,0-1.587.358l-30.8,11.752c-.534.2-1.068.4-1.6.607l-.51.194c-1.36.513-2.765,1.047-4.128,1.59a2.344,2.344,0,0,0-1.657,2.887,2.428,2.428,0,0,0,2.6,1.648q5.473.023,10.948.036l24.276.067q5.322.014,10.645.033h.03A3.487,3.487,0,0,1,90.288,22.9c0,.364,0,.728,0,1.093-.006.54-.006,1.053,0,1.53a2.344,2.344,0,0,0,2.276,2.38h.049a2.355,2.355,0,0,0,2.319-2.361c.021-.859.018-1.736.012-2.489m-41.8-8.687L56,13.249,69.518,8.092q2.044-.779,4.088-1.554l2.094-.8a.706.706,0,0,0,.085-.033,1.107,1.107,0,0,1,.892-.082,1.018,1.018,0,0,1,.552.631c.51,1.32,1.023,2.616,1.551,3.949l1.675,4.234Z" transform="translate(-26.421)" fill="#9057cd"></path></g></g></g></svg>