<svg xmlns="http://www.w3.org/2000/svg" xmlns:xlink="http://www.w3.org/1999/xlink" width="104" height="104" viewBox="0 0 104 104"><defs><clipPath id="clip-path"><rect id="Rectangle_62" data-name="Rectangle 62" width="84.388" height="84.418" fill="none"></rect></clipPath></defs><g id="Group_119" data-name="Group 119" transform="translate(327 -814)"><g id="Rectangle_74" data-name="Rectangle 74" transform="translate(-327 814)" fill="#fff" stroke="#707070" stroke-width="1" opacity="0"><rect width="104" height="104" stroke="none"></rect><rect x="0.5" y="0.5" width="103" height="103" fill="none"></rect></g><g id="Group_118" data-name="Group 118" transform="translate(-318 824)"><g id="Group_87" data-name="Group 87" clip-path="url(#clip-path)"><path id="Path_263" data-name="Path 263" d="M84.163,40.169a3.977,3.977,0,0,0-.062-.456,10.863,10.863,0,0,0-2.559-5.139,5.955,5.955,0,0,1-1.486-5.345,11.57,11.57,0,0,0-7.807-13.378,5.828,5.828,0,0,1-3.739-3.787A11.709,11.709,0,0,0,55.245,4.315a6.061,6.061,0,0,1-5.434-1.459A11.271,11.271,0,0,0,43.953.145a1.813,1.813,0,0,1-.338-.1c-.043-.013-.086-.03-.129-.046H40.874c-.043.016-.086.03-.131.046a1.756,1.756,0,0,1-.338.1,11.112,11.112,0,0,0-5.791,2.663,6.111,6.111,0,0,1-5.581,1.5A11.644,11.644,0,0,0,15.85,12.064a5.816,5.816,0,0,1-3.739,3.787A11.586,11.586,0,0,0,4.32,29.39a5.585,5.585,0,0,1-1.4,5.053,11.161,11.161,0,0,0-1.631,2.344A11.857,11.857,0,0,0,2.9,49.937a5.772,5.772,0,0,1,1.413,5.128,11.616,11.616,0,0,0,7.834,13.512,5.761,5.761,0,0,1,3.688,3.733A11.646,11.646,0,0,0,29.156,80.1a7.443,7.443,0,0,1,1.349-.129,5.967,5.967,0,0,1,4.012,1.556,11.6,11.6,0,0,0,15.29.032A6.134,6.134,0,0,1,55.242,80.1a11.6,11.6,0,0,0,13.265-7.746,5.838,5.838,0,0,1,3.739-3.79,11.564,11.564,0,0,0,7.81-13.375,5.961,5.961,0,0,1,1.483-5.345,10.848,10.848,0,0,0,2.545-5.058,4.369,4.369,0,0,0,.07-.493,2.521,2.521,0,0,1,.233-.952V41.078a2.1,2.1,0,0,1-.225-.909m-6.531,6.936a10.334,10.334,0,0,0-2.256,8.95,6.839,6.839,0,0,1-4.554,7.963,10.641,10.641,0,0,0-6.877,6.925,6.845,6.845,0,0,1-7.861,4.479,10.351,10.351,0,0,0-9.221,2.4,6.868,6.868,0,0,1-9.368,0,10.351,10.351,0,0,0-9.221-2.4,6.846,6.846,0,0,1-7.864-4.479,10.634,10.634,0,0,0-6.877-6.928,6.84,6.84,0,0,1-4.551-7.963,10.342,10.342,0,0,0-2.408-9.143,6.841,6.841,0,0,1-.024-9.371A10.386,10.386,0,0,0,8.974,28.32a6.808,6.808,0,0,1,4.45-7.872,10.821,10.821,0,0,0,7.03-7.094,6.8,6.8,0,0,1,7.783-4.369,10.339,10.339,0,0,0,9.229-2.368,6.854,6.854,0,0,1,9.433,0A10.314,10.314,0,0,0,56.046,9a6.847,6.847,0,0,1,7.885,4.433,10.746,10.746,0,0,0,7.008,7.014,6.771,6.771,0,0,1,4.578,6.638,5.158,5.158,0,0,1-.134,1.325c-.029.158-.059.319-.086.48a10.113,10.113,0,0,0,2.309,8.389c2.706,3.232,2.712,6.63.024,9.824" transform="translate(0)" fill="#9057cd"></path><path id="Path_264" data-name="Path 264" d="M104.367,105.647a7.2,7.2,0,0,0-3.09-5.919,7.336,7.336,0,0,0-7.85-.772,7.179,7.179,0,0,0-4.364,6.555c-.07,1.945-.051,3.927-.035,5.842.005.858.013,1.719.013,2.577v.1H89.02v2.28q0,2.772,0,5.549A7.621,7.621,0,0,0,99.534,129.3c3.09-1.124,4.758-3.564,4.828-7.059.115-5.783.064-11.6.005-16.6M99.63,122.136a3.056,3.056,0,0,1-1.5,2.628,2.813,2.813,0,0,1-1.395.365,3.116,3.116,0,0,1-1.534-.413,2.84,2.84,0,0,1-1.43-2.72q0-2.844,0-5.694v-2.309q0-1.243-.005-2.489c0-1.808-.008-3.677.013-5.514a3.041,3.041,0,0,1,.931-2.3A2.952,2.952,0,0,1,97.023,103a2.841,2.841,0,0,1,2.612,3.122c.011,2.543.008,5.085.005,7.628v3.015q0,.813.005,1.625c.008,1.226.016,2.494-.016,3.741" transform="translate(-65.139 -71.834)" fill="#421c67"></path><path id="Path_265" data-name="Path 265" d="M178.454,102.536c-1.046,2.639-2.119,5.316-3.159,7.907l-1.432,3.57-1.3,3.256q-2.245,5.6-4.479,11.208a2.493,2.493,0,0,1-2.146,1.872,2.3,2.3,0,0,1-2.105-.89,2.545,2.545,0,0,1-.276-2.47c.7-1.789,1.427-3.6,2.135-5.353.308-.767.614-1.531.923-2.3l1.9-4.747q2.756-6.888,5.514-13.77a2.366,2.366,0,0,1,2.307-1.73h0a2.283,2.283,0,0,1,1.931.982,2.62,2.62,0,0,1,.188,2.465" transform="translate(-119.545 -72.513)" fill="#421c67"></path><path id="Path_266" data-name="Path 266" d="M167.91,103.305c0,.3.005.6-.008.9a2.4,2.4,0,0,1-2.344,2.32h-.027a2.385,2.385,0,0,1-2.355-2.2,22.427,22.427,0,0,1,.005-3.033,2.271,2.271,0,0,1,2.368-2.154c.03,0,.059,0,.086,0a2.292,2.292,0,0,1,2.266,2.272c.013.327.011.662.008.987,0,.164-.005.327-.005.491,0,.137,0,.276.005.413" transform="translate(-119.376 -72.55)" fill="#421c67"></path><path id="Path_267" data-name="Path 267" d="M207.386,191.7v.1c0,.172,0,.343.008.518a9.728,9.728,0,0,1-.016,1.118,2.221,2.221,0,0,1-2.162,2.014,2.185,2.185,0,0,1-2.441-1.77,10.9,10.9,0,0,1-.011-3.733,2.322,2.322,0,0,1,2.261-1.875c.046,0,.091,0,.137.005a2.353,2.353,0,0,1,2.231,2.167c.027.351.019.713.013,1.065,0,.129-.005.26-.008.389Z" transform="translate(-148.268 -137.629)" fill="#421c67"></path></g></g></g></svg>