<svg xmlns="http://www.w3.org/2000/svg" xmlns:xlink="http://www.w3.org/1999/xlink" width="521.73" height="409.664" viewBox="0 0 521.73 409.664"><defs><clipPath id="clip-path"><rect id="Rectangle_33" data-name="Rectangle 33" width="521.73" height="409.664" fill="none"></rect></clipPath></defs><g id="Group_38" data-name="Group 38" transform="translate(0 -0.002)"><g id="Group_37" data-name="Group 37" transform="translate(0 0.002)" clip-path="url(#clip-path)"><path id="Path_131" data-name="Path 131" d="M365.815,1011.188c107.606,0,194.839,9.45,194.839,21.108S473.421,1053.4,365.815,1053.4s-194.839-9.45-194.839-21.107,87.232-21.108,194.839-21.108" transform="translate(-108.846 -643.739)" fill="#f7f7f7" fill-rule="evenodd"></path><path id="Path_132" data-name="Path 132" d="M1.425,8.317l15.08,15.077a4.87,4.87,0,1,0,6.888-6.888L8.312,1.426A4.871,4.871,0,1,0,1.425,8.317" transform="translate(0 -0.001)" fill="#dbd6e2" fill-rule="evenodd"></path><path id="Path_133" data-name="Path 133" d="M16.505,1.427,1.425,16.507a4.871,4.871,0,0,0,6.891,6.888L23.393,8.318a4.871,4.871,0,1,0-6.888-6.891" transform="translate(0 -0.002)" fill="#dfd2ef" fill-rule="evenodd"></path><path id="Path_134" data-name="Path 134" d="M1.425,798.113l15.08,15.077a4.87,4.87,0,1,0,6.888-6.887L8.312,791.222a4.871,4.871,0,0,0-6.888,6.891" transform="translate(28 -477.978)" fill="#dbd6e2" fill-rule="evenodd"></path><path id="Path_135" data-name="Path 135" d="M16.505,791.222,1.425,806.3a4.871,4.871,0,0,0,6.891,6.888l15.077-15.077a4.871,4.871,0,1,0-6.888-6.891" transform="translate(28 -477.978)" fill="#dfd2ef" fill-rule="evenodd"></path><path id="Path_136" data-name="Path 136" d="M1368.878,171.427l15.08,15.077a4.87,4.87,0,1,0,6.887-6.888l-15.08-15.08a4.871,4.871,0,1,0-6.888,6.891" transform="translate(-870.542 -103.84)" fill="#dbd6e2" fill-rule="evenodd"></path><path id="Path_137" data-name="Path 137" d="M1383.958,164.536l-15.08,15.08a4.871,4.871,0,1,0,6.891,6.888l15.077-15.077a4.871,4.871,0,1,0-6.887-6.891" transform="translate(-870.542 -103.84)" fill="#dfd2ef" fill-rule="evenodd"></path><path id="Path_138" data-name="Path 138" d="M377.423,51.1A179.388,179.388,0,1,1,198.035,230.485,179.388,179.388,0,0,1,377.423,51.1" transform="translate(-126.072 -32.53)" fill="#dfd2ef" fill-rule="evenodd"></path><path id="Path_139" data-name="Path 139" d="M528.291,474.333a174.647,174.647,0,0,1-159.4,103.414c-96.319,0-174.517-78.2-174.517-174.514a173.717,173.717,0,0,1,16.37-73.847,4.871,4.871,0,0,0-8.823-4.131,183.417,183.417,0,0,0-17.289,77.977c0,101.693,82.563,184.256,184.259,184.256A184.386,184.386,0,0,0,537.182,478.311a4.87,4.87,0,1,0-8.891-3.978Z" transform="translate(-117.539 -205.278)" fill="#9057cd" fill-rule="evenodd"></path><path id="Path_140" data-name="Path 140" d="M413.914,76.31a173.621,173.621,0,0,1,96.13-28.875c96.315,0,174.514,78.2,174.514,174.517a4.871,4.871,0,0,0,9.742,0c0-101.7-82.563-184.259-184.256-184.259a183.323,183.323,0,0,0-101.5,30.492,4.871,4.871,0,0,0,5.374,8.125" transform="translate(-258.693 -23.997)" fill="#9057cd" fill-rule="evenodd"></path><path id="Path_141" data-name="Path 141" d="M434.814,141.247A146.629,146.629,0,1,1,288.185,287.876,146.629,146.629,0,0,1,434.814,141.247" transform="translate(-183.463 -89.921)" fill="#fff" fill-rule="evenodd"></path><path id="Path_142" data-name="Path 142" d="M492.207,231.414A113.864,113.864,0,1,1,378.343,345.278,113.864,113.864,0,0,1,492.207,231.414" transform="translate(-240.859 -147.323)" fill="#dfd2ef" fill-rule="evenodd"></path><path id="Path_143" data-name="Path 143" d="M549.592,321.555a81.108,81.108,0,1,1-81.108,81.108,81.108,81.108,0,0,1,81.108-81.108" transform="translate(-298.244 -204.708)" fill="#fff" fill-rule="evenodd"></path><path id="Path_144" data-name="Path 144" d="M664.379,501.863a15.587,15.587,0,1,1-15.587,15.587,15.587,15.587,0,0,1,15.587-15.587" transform="translate(-413.031 -319.495)" fill="#fff" fill-rule="evenodd"></path><path id="Path_145" data-name="Path 145" d="M626.779,488.5a22.149,22.149,0,1,1,15.565-6.461,22.136,22.136,0,0,1-15.565,6.461m-10.3,17.148a4.383,4.383,0,0,1-2.839,1.778,4.229,4.229,0,0,1-3.345-.767,4.433,4.433,0,0,1-1.778-2.9,4.244,4.244,0,0,1,.767-3.3,22.942,22.942,0,0,1,7.848-6.95,20.256,20.256,0,0,1,9.675-2.464,25.915,25.915,0,0,1,12.465,3.3,44.827,44.827,0,0,1,5.058,3.3l2.333,1.778,2.284,1.827a57.232,57.232,0,0,0,7.081,5.254,14.757,14.757,0,0,0,7.456,2.284,13.781,13.781,0,0,0,6.9-1.648,8.044,8.044,0,0,0,1.648-1.142,3.35,3.35,0,0,0,.441-.375l.13-.13.065-.065a4.243,4.243,0,0,1,2.9-1.648,4.463,4.463,0,0,1,4.927,3.736,4.253,4.253,0,0,1-.816,3.23l-.065.13-.065.065a2.438,2.438,0,0,1-.261.31c-.245.294-.522.587-.816.881a18.314,18.314,0,0,1-3.035,2.333,22.319,22.319,0,0,1-11.959,3.165,22.863,22.863,0,0,1-11.193-3.1,38.258,38.258,0,0,1-4.682-3.035l-2.219-1.7-2.088-1.7a61.253,61.253,0,0,0-7.783-5.629,17.554,17.554,0,0,0-8.729-2.529c-4.128,0-7.57,1.909-10.3,5.743ZM626.8,453.078a13.258,13.258,0,1,0,9.365,3.85,12.684,12.684,0,0,0-9.349-3.85Z" transform="translate(-384.892 -282.798)" fill="#9057cd"></path><path id="Path_146" data-name="Path 146" d="M789.451,450.683a7.076,7.076,0,0,1-2.219,5.27,7.725,7.725,0,0,1-10.719.016,7.367,7.367,0,0,1,.016-10.524,7.767,7.767,0,0,1,10.736-.032,7.106,7.106,0,0,1,2.186,5.253Zm-.848.033a6.36,6.36,0,0,0-1.925-4.732,6.531,6.531,0,0,0-4.8-1.909,6.668,6.668,0,0,0-4.748,11.356,6.571,6.571,0,0,0,4.781,1.893,6.6,6.6,0,0,0,6.673-6.608Zm-2.529,4.063H784.3l-2.97-3.133h-.816v3.133h-1.436v-8.549h2.757a3.266,3.266,0,0,1,2.235.734,2.436,2.436,0,0,1,.832,1.925,2.39,2.39,0,0,1-.539,1.55,2.858,2.858,0,0,1-1.468.93l3.165,3.41Zm-4.389-7.326h-1.159v3h1.126a1.988,1.988,0,0,0,1.338-.408,1.357,1.357,0,0,0,.49-1.093,1.406,1.406,0,0,0-.473-1.109,2.024,2.024,0,0,0-1.322-.392" transform="translate(-492.938 -282.197)" fill="#4b346e"></path><path id="Path_147" data-name="Path 147" d="M927.247,531.754v10.309h0L691.691,536.91l235.553-5.156Z" transform="translate(-440.342 -338.524)" fill="#5d497c" fill-rule="evenodd"></path><path id="Path_148" data-name="Path 148" d="M927.244,531.754v10.309L691.691,536.91Z" transform="translate(-440.342 -338.524)" fill="#5d497c" fill-rule="evenodd"></path><path id="Path_149" data-name="Path 149" d="M1215.673,469.583l21.061-29.164c2.769-3.832,1.166-6.906-3.561-6.823l-53.719.934a19.379,19.379,0,0,0-13.627,7.122l-21.068,29.165Z" transform="translate(-728.772 -276.033)" fill="#9057cd"></path><path id="Path_150" data-name="Path 150" d="M1214.9,556.243l21.377,28.937c2.81,3.8,1.241,6.892-3.487,6.861l-53.726-.35a19.392,19.392,0,0,1-13.7-6.974l-21.384-28.937Z" transform="translate(-728.271 -353.819)" fill="#9057cd"></path></g></g></svg>