<svg xmlns="http://www.w3.org/2000/svg" xmlns:xlink="http://www.w3.org/1999/xlink" width="537.73" height="424.422" viewBox="0 0 537.73 424.422"><defs><clipPath id="clip-path"><rect id="Rectangle_34" data-name="Rectangle 34" width="537.73" height="424.422" fill="none"></rect></clipPath></defs><g id="Group_40" data-name="Group 40" clip-path="url(#clip-path)"><path id="Path_151" data-name="Path 151" d="M1.388,893.534l14.694,14.69a4.745,4.745,0,1,0,6.711-6.711L8.1,886.82a4.746,4.746,0,0,0-6.711,6.714" transform="translate(0 -571.936)" fill="#dbd6e2" fill-rule="evenodd"></path><path id="Path_152" data-name="Path 152" d="M16.082,886.82,1.388,901.514A4.746,4.746,0,0,0,8.1,908.225l14.69-14.69a4.746,4.746,0,1,0-6.711-6.714" transform="translate(0 -571.936)" fill="#dfd2ef" fill-rule="evenodd"></path><path id="Path_153" data-name="Path 153" d="M238.622,8.1l14.694,14.69a4.745,4.745,0,0,0,6.711-6.711L245.333,1.39A4.746,4.746,0,1,0,238.622,8.1" transform="translate(-153.239 -0.002)" fill="#dbd6e2" fill-rule="evenodd"></path><path id="Path_154" data-name="Path 154" d="M253.317,1.39,238.623,16.084a4.746,4.746,0,0,0,6.714,6.711L260.028,8.1a4.746,4.746,0,1,0-6.711-6.714" transform="translate(-153.239 -0.002)" fill="#dfd2ef" fill-rule="evenodd"></path><path id="Path_155" data-name="Path 155" d="M1443.238,76.406l14.694,14.69a4.745,4.745,0,0,0,6.711-6.711l-14.693-14.694a4.746,4.746,0,0,0-6.711,6.714" transform="translate(-931.348 -44.121)" fill="#dbd6e2" fill-rule="evenodd"></path><path id="Path_156" data-name="Path 156" d="M1457.932,69.692l-14.694,14.694a4.746,4.746,0,0,0,6.714,6.711l14.69-14.69a4.746,4.746,0,0,0-6.711-6.714" transform="translate(-931.348 -44.121)" fill="#dfd2ef" fill-rule="evenodd"></path><path id="Path_157" data-name="Path 157" d="M522.627,1082.6c104.8,0,189.766,9.2,189.766,20.558s-84.961,20.558-189.766,20.558-189.766-9.2-189.766-20.558,84.961-20.558,189.766-20.558" transform="translate(-215.008 -699.297)" fill="#f7f7f7" fill-rule="evenodd"></path><path id="Path_158" data-name="Path 158" d="M237.235,372.321C270.824,281,358.685,215.8,461.731,215.8A238.892,238.892,0,0,1,659,319.7l-.1-.161a238.156,238.156,0,0,1,27.332,52.786A238.078,238.078,0,0,1,658.892,425.1l.1-.152A238.926,238.926,0,0,1,461.731,528.836c-103.046,0-190.908-65.2-224.5-156.516" transform="translate(-153.239 -139.396)" fill="#f6f3fa"></path><path id="Path_159" data-name="Path 159" d="M573.851,206.583a159,159,0,1,0,158.989,159A159,159,0,0,0,573.851,206.583ZM651.6,441.472h-150.3V291.158H651.6Z" transform="translate(-267.965 -133.441)" fill="#dfd2ef"></path><path id="Path_160" data-name="Path 160" d="M654.17,511.765A243.657,243.657,0,0,1,453.071,617.6c-105.086,0-194.69-66.5-228.946-159.621a4.744,4.744,0,0,1,0-3.276,244.259,244.259,0,0,1,78.639-107.819,4.743,4.743,0,1,1,5.851,7.467,234.828,234.828,0,0,0-74.973,101.99C267,544.98,352.692,608.109,453.075,608.109A234.189,234.189,0,0,0,646.43,506.274a4.744,4.744,0,0,1,7.844,5.339l-.1.155Z" transform="translate(-144.583 -223.412)" fill="#9057cd" fill-rule="evenodd"></path><path id="Path_161" data-name="Path 161" d="M943.851,313.868l-.1-.142a234.81,234.81,0,0,0-253.663-94,4.745,4.745,0,1,1-2.435-9.172,244.3,244.3,0,0,1,263.664,97.435c.051.066.1.136.149.205a243.092,243.092,0,0,1,27.876,53.837,4.745,4.745,0,1,1-8.906,3.277A233.325,233.325,0,0,0,943.851,313.868Z" transform="translate(-441.902 -130.741)" fill="#9057cd" fill-rule="evenodd"></path><path id="Path_162" data-name="Path 162" d="M654.73,441.13v32.539a5.244,5.244,0,1,1-10.488,0V435.89a5.244,5.244,0,0,1,5.244-5.244h37.767a5.242,5.242,0,1,1,0,10.484Z" transform="translate(-416.141 -278.172)" fill="#9057cd" fill-rule="evenodd"></path><path id="Path_163" data-name="Path 163" d="M999.835,441.13H967.316a5.242,5.242,0,1,1,0-10.484h37.763a5.242,5.242,0,0,1,5.244,5.244v37.779a5.244,5.244,0,1,1-10.488,0Z" transform="translate(-621.44 -278.172)" fill="#9057cd" fill-rule="evenodd"></path><path id="Path_164" data-name="Path 164" d="M654.73,786.275h32.523a5.242,5.242,0,1,1,0,10.484H649.486a5.244,5.244,0,0,1-5.244-5.24V753.743a5.244,5.244,0,0,1,10.488,0Z" transform="translate(-416.141 -483.488)" fill="#9057cd" fill-rule="evenodd"></path><path id="Path_165" data-name="Path 165" d="M999.835,786.275V753.743a5.244,5.244,0,0,1,10.488,0v37.776a5.242,5.242,0,0,1-5.244,5.24H967.316a5.242,5.242,0,1,1,0-10.484Z" transform="translate(-621.44 -483.488)" fill="#9057cd" fill-rule="evenodd"></path><path id="Path_166" data-name="Path 166" d="M866.974,413.283V374.637a5.244,5.244,0,1,0-10.488,0v38.646a5.244,5.244,0,1,0,10.488,0" transform="translate(-553.238 -238.606)" fill="#9057cd" fill-rule="evenodd"></path><path id="Path_167" data-name="Path 167" d="M866.974,851.188V812.542a5.244,5.244,0,1,0-10.488,0v38.646a5.244,5.244,0,0,0,10.488,0" transform="translate(-553.238 -521.466)" fill="#9057cd" fill-rule="evenodd"></path><path id="Path_168" data-name="Path 168" d="M1026.117,653.4h38.646a5.244,5.244,0,0,0,0-10.488h-38.646a5.244,5.244,0,0,0,0,10.488" transform="translate(-659.424 -415.286)" fill="#9057cd" fill-rule="evenodd"></path><path id="Path_169" data-name="Path 169" d="M588.206,653.4h38.643a5.244,5.244,0,1,0,0-10.488H588.206a5.244,5.244,0,1,0,0,10.488" transform="translate(-376.558 -415.286)" fill="#9057cd" fill-rule="evenodd"></path><path id="Path_170" data-name="Path 170" d="M797.658,597.1a21.581,21.581,0,1,1,15.166-6.3,21.568,21.568,0,0,1-15.166,6.3m-10.031,16.708a4.271,4.271,0,0,1-2.766,1.733,4.12,4.12,0,0,1-3.259-.747,4.319,4.319,0,0,1-1.733-2.83,4.135,4.135,0,0,1,.747-3.211,22.357,22.357,0,0,1,7.647-6.772,19.736,19.736,0,0,1,9.427-2.4,25.251,25.251,0,0,1,12.145,3.211,43.655,43.655,0,0,1,4.928,3.211l2.273,1.733,2.226,1.781a55.756,55.756,0,0,0,6.9,5.119,14.379,14.379,0,0,0,7.265,2.226,13.427,13.427,0,0,0,6.724-1.606,7.839,7.839,0,0,0,1.606-1.113,3.264,3.264,0,0,0,.429-.366l.127-.127.063-.064a4.135,4.135,0,0,1,2.83-1.605,4.348,4.348,0,0,1,4.8,3.64,4.144,4.144,0,0,1-.795,3.148l-.063.127-.064.064a2.368,2.368,0,0,1-.254.3c-.239.286-.509.572-.795.858a17.843,17.843,0,0,1-2.957,2.273,21.746,21.746,0,0,1-11.652,3.084,22.275,22.275,0,0,1-10.905-3.021,37.259,37.259,0,0,1-4.562-2.957l-2.162-1.653-2.035-1.653a59.677,59.677,0,0,0-7.583-5.484,17.1,17.1,0,0,0-8.5-2.464c-4.022,0-7.376,1.86-10.031,5.6Zm10.047-51.22a12.917,12.917,0,1,0,9.125,3.752,12.358,12.358,0,0,0-9.109-3.752Z" transform="translate(-501.273 -357.825)" fill="#dfd2ef"></path><path id="Path_171" data-name="Path 171" d="M960.51,560.234a6.894,6.894,0,0,1-2.162,5.135,7.527,7.527,0,0,1-10.444.016,7.177,7.177,0,0,1,.016-10.254,7.568,7.568,0,0,1,10.46-.031,6.924,6.924,0,0,1,2.13,5.119Zm-.827.032a6.2,6.2,0,0,0-1.876-4.61,6.363,6.363,0,0,0-4.674-1.86,6.5,6.5,0,0,0-4.626,11.064,6.4,6.4,0,0,0,4.658,1.844,6.432,6.432,0,0,0,6.5-6.438Zm-2.464,3.958h-1.733l-2.893-3.052H951.8v3.052h-1.4v-8.33h2.687a3.184,3.184,0,0,1,2.178.715,2.374,2.374,0,0,1,.811,1.876,2.329,2.329,0,0,1-.525,1.51,2.787,2.787,0,0,1-1.43.906l3.084,3.323Zm-4.276-7.138h-1.129v2.925h1.1a1.937,1.937,0,0,0,1.3-.4,1.323,1.323,0,0,0,.477-1.065,1.37,1.37,0,0,0-.461-1.081,1.972,1.972,0,0,0-1.288-.382" transform="translate(-610.902 -357.216)" fill="#dfd2ef"></path></g></svg>