<svg xmlns="http://www.w3.org/2000/svg" xmlns:xlink="http://www.w3.org/1999/xlink" width="105" height="105" viewBox="0 0 105 105"><defs><clipPath id="clip-path"><rect id="Rectangle_111" data-name="Rectangle 111" width="66.712" height="66.846" fill="none"></rect></clipPath></defs><g id="Group_221" data-name="Group 221" transform="translate(1813 -1945)"><g id="Rectangle_119" data-name="Rectangle 119" transform="translate(-1813 1945)" fill="#fff" stroke="#707070" stroke-width="1" opacity="0"><rect width="105" height="105" stroke="none"></rect><rect x="0.5" y="0.5" width="104" height="104" fill="none"></rect></g><g id="Group_204" data-name="Group 204" transform="translate(-1794 1965)"><g id="Group_194" data-name="Group 194" clip-path="url(#clip-path)"><path id="Path_359" data-name="Path 359" d="M43.746,51.256c.062.437-.037.6-.508.565q-4.122-.342-8.245-.645c-.593-.044-.318-.367-.25-.615a7.185,7.185,0,0,0-.982-6.3,5.84,5.84,0,0,0-6.045-2.709c-2.862.467-4.519,2.339-5.328,5.026a6.234,6.234,0,0,0-.206,2.811c.1.583.03.844-.689.784-3.857-.322-7.72-.581-11.579-.886a2.17,2.17,0,0,1-2.059-2.461c.218-3.167.478-6.331.72-9.5.117-1.526.25-3.053.348-4.581a1.242,1.242,0,0,0-1.918-1.282,4.964,4.964,0,0,1-5.5-.533,3.609,3.609,0,0,1,.3-6.062,4.818,4.818,0,0,1,5.37-.017c1.543.927,2.312.56,2.453-1.25q.52-6.662,1.02-13.326c.134-1.771,1-2.54,2.791-2.4q6.748.508,13.494,1.039c1.536.121,2.093-.663,1.478-2.1a4.942,4.942,0,0,1,.655-5.343,3.593,3.593,0,0,1,5.966.238A4.849,4.849,0,0,1,35.1,7.227c-.893,1.5-.521,2.277,1.233,2.414,4.47.35,8.94.679,13.41,1.02,1.7.129,2.486.982,2.367,2.662-.335,4.693-.705,9.386-1.064,14.077q-.354,4.622-.717,9.245c-.012.131-.044.26-.082.491-1.193-.794-2.322-1.543-3.451-2.294-1.32-.88-2.632-1.774-3.962-2.637a5.446,5.446,0,0,0-6.911,8.369q3.471,3.561,6.992,7.072a1.865,1.865,0,0,1,.638,1.451,14.632,14.632,0,0,0,.194,2.158" transform="translate(0 -0.001)" fill="#3d1e63"></path><path id="Path_360" data-name="Path 360" d="M249.163,169.622c.037.566-.08.779-.7.776q-6.559-.038-13.119,0c-.546,0-.727-.154-.722-.7.017-1.783-.027-3.565-.013-5.348a1.584,1.584,0,0,0-.761-1.468c-3.939-2.584-5.418-6.405-5.422-10.931a2.466,2.466,0,0,0-.776-1.913q-3.795-3.767-7.531-7.593a2.97,2.97,0,0,1,2.212-5.13,3.518,3.518,0,0,1,1.84.714q7.085,4.727,14.174,9.446c.209.139.415.283.63.41a1.224,1.224,0,0,0,1.821-.3,1.237,1.237,0,0,0-.442-1.737c-1.493-1.022-2.989-2.042-4.522-3a1.348,1.348,0,0,1-.682-1.493c.454-5.438.851-10.88,1.267-16.322.012-.164.027-.327.052-.632a3.663,3.663,0,0,1,.365.25q4.32,4.127,8.634,8.26a5.9,5.9,0,0,1,1.8,4.026q.7,11.925,1.376,23.853c.169,2.947.33,5.894.523,8.84" transform="translate(-182.457 -103.552)" fill="#dfd2ef"></path></g></g></g></svg>