<svg xmlns="http://www.w3.org/2000/svg" xmlns:xlink="http://www.w3.org/1999/xlink" width="105" height="105" viewBox="0 0 105 105"><defs><clipPath id="clip-path"><rect id="Rectangle_104" data-name="Rectangle 104" width="76.633" height="69.856" fill="none"></rect></clipPath></defs><g id="Group_224" data-name="Group 224" transform="translate(1628 -1471)"><g id="Rectangle_92" data-name="Rectangle 92" transform="translate(-1628 1471)" fill="#fff" stroke="#707070" stroke-width="1" opacity="0"><rect width="105" height="105" stroke="none"></rect><rect x="0.5" y="0.5" width="104" height="104" fill="none"></rect></g><g id="Group_198" data-name="Group 198" transform="translate(-1614 1489)"><g id="Group_180" data-name="Group 180" transform="translate(0 0)" clip-path="url(#clip-path)"><path id="Path_313" data-name="Path 313" d="M43.294,67.921c2.591,0,5.183,0,7.774,0a6.2,6.2,0,0,0,4.738-1.961,3.047,3.047,0,0,1,1.186-.711q7.19-2.822,14.382-5.639A10.368,10.368,0,0,1,74,58.947,2.243,2.243,0,0,1,76.446,60.2a2.039,2.039,0,0,1-.687,2.5,4.937,4.937,0,0,1-.989.747q-12.724,7.01-25.449,14.018A14.592,14.592,0,0,1,38.749,78.68c-5.754-1.315-11.374-3.134-17.041-4.772q-3.579-1.035-7.143-2.122c-.553-.168-.763-.121-.754.548.02,1.723-.414,2.134-2.1,2.28-1.009.087-2.018.1-3.028.115a1.368,1.368,0,0,1-1.276-.72A47.856,47.856,0,0,1,.429,54.171C.3,53.04.234,51.9.033,50.777c-.135-.753.153-.9.8-.906,2.722-.039,5.443-.106,8.164-.161.906-.018,1.815-.078,2.719-.034,1.133.055,1.567.545,1.614,1.664.059,1.389.059,1.376,1.476,1.355,3.212-.047,6.422-.287,9.638-.041a24.639,24.639,0,0,1,9.64,2.447,21.215,21.215,0,0,0,6.765,2.641,78.31,78.31,0,0,0,9.672.839,8.174,8.174,0,0,1,1.778.133,3.48,3.48,0,0,1,2.71,3.742,3.333,3.333,0,0,1-3.028,3.128c-1.91.218-3.832.12-5.749.191-3.859.141-7.72.25-11.579.369-.589.019-1.192.006-1.258.811a1.34,1.34,0,0,0,1.27,1.32c.8.033,1.606-.011,2.41-.028a47.836,47.836,0,0,0,6.218-.327" transform="translate(0 -9.288)" fill="#dfd2ef"></path><path id="Path_314" data-name="Path 314" d="M43.165,36.539c.615-2.55-.137-4.878-1.207-7.127a9.731,9.731,0,0,0-6.049-5.233,1.364,1.364,0,0,1-1.089-1.527c.025-1.373,0-2.746.008-4.12.007-1.119.177-1.392,1.235-1.786,4.606-1.719,6.888-6.184,6.962-10.535a13.552,13.552,0,0,0-.207-1.692A1.743,1.743,0,0,1,43.8,2.6c1.211-.642,2.406-1.322,3.562-2.057A1.732,1.732,0,0,1,49.569.7c3.324,2.575,6.994,2.862,10.879,1.619A9.1,9.1,0,0,0,63.69.377,1.228,1.228,0,0,1,65.253.2q2.071,1.15,4.137,2.306A1.118,1.118,0,0,1,70,3.929a7.945,7.945,0,0,0,.122,4.448A12.683,12.683,0,0,0,74.73,15.2a6.639,6.639,0,0,0,2.3,1.1,1.409,1.409,0,0,1,1.17,1.577,39.408,39.408,0,0,0,.111,4.349,1.4,1.4,0,0,1-1.044,1.616c-3.688,1.1-5.517,3.927-6.706,7.291a8.287,8.287,0,0,0-.218,5.486.979.979,0,0,1-.567,1.166c-1.372.832-2.75,1.654-4.145,2.445a1.411,1.411,0,0,1-1.778-.225c-4.092-3.626-10.59-2.9-13.869-.12a1.778,1.778,0,0,1-2.378.211c-1.225-.772-2.5-1.472-3.753-2.191a1.313,1.313,0,0,1-.688-1.367m8.154-12.033c-.544,0-1.089.025-1.632-.007-.478-.029-.611.159-.629.623a5.158,5.158,0,0,0,2.5,4.856,10.308,10.308,0,0,0,3.226,1.3c.33.079.524.191.536.6.034,1.113.061,1.112,1.182,1.117a4.652,4.652,0,0,1,.621.006c.651.093,1-.107.855-.827-.128-.662.186-.832.819-.967,2.05-.436,3.9-1.314,4.658-3.435,1.093-3.071.443-6.2-2.911-7.788-1.728-.817-3.5-1.552-5.149-2.537a2.365,2.365,0,0,1-1.123-2.733,2,2,0,0,1,1.861-1.693,2.353,2.353,0,0,1,2.7,1.341,4.435,4.435,0,0,1,.365,1.182c.053.326.193.554.607.546,1.14-.023,2.28-.011,3.419,0,.361,0,.5-.141.506-.506a5.907,5.907,0,0,0-.993-3.6A6.353,6.353,0,0,0,58.863,9.45c-.335-.085-.607-.15-.631-.619-.071-1.385-.1-1.383-1.457-1.392-.233,0-.467.011-.7-.006-.367-.028-.493.128-.5.494-.018.535.241,1.208-.132,1.567-.35.339-1,.371-1.511.539-.172.057-.343.115-.512.179a5.381,5.381,0,0,0-3.671,4.771,5.536,5.536,0,0,0,2.647,5.5,23.959,23.959,0,0,0,2.558,1.3,17.7,17.7,0,0,1,3.4,1.675c1.469,1.155,1.289,3.593-.371,4.169-1.947.675-4.258.076-4.352-2.506-.017-.461-.211-.643-.673-.619-.542.028-1.088.007-1.632.007" transform="translate(-6.512 0)" fill="#3d1e63"></path></g></g></g></svg>