<svg xmlns="http://www.w3.org/2000/svg" xmlns:xlink="http://www.w3.org/1999/xlink" width="105" height="105" viewBox="0 0 105 105"><defs><clipPath id="clip-path"><rect id="Rectangle_109" data-name="Rectangle 109" width="66.436" height="71.158" fill="none"></rect></clipPath></defs><g id="Group_226" data-name="Group 226" transform="translate(1712 -1838)"><g id="Rectangle_117" data-name="Rectangle 117" transform="translate(-1712 1838)" fill="#fff" stroke="#707070" stroke-width="1" opacity="0"><rect width="105" height="105" stroke="none"></rect><rect x="0.5" y="0.5" width="104" height="104" fill="none"></rect></g><g id="Group_202" data-name="Group 202" transform="translate(-1693 1855)"><g id="Group_190" data-name="Group 190" clip-path="url(#clip-path)"><path id="Path_350" data-name="Path 350" d="M89.551,21.965a21.87,21.87,0,0,1-5.33,14.342c-1.874-.874-3.795-1.608-5.657-2.318l-1.252-.48q0-1.693,0-3.383c0-2.9,0-5.909-.017-8.868A11.3,11.3,0,0,0,76.9,18.35a9.65,9.65,0,0,0-9.409-7.113,10.8,10.8,0,0,0-2.451.286,9.721,9.721,0,0,0-7.2,9.2c.012,3.606.017,7.243.017,10.866h-.334l-.073,0c-.131-.01-.254-.015-.368-.015a3.286,3.286,0,0,0-1.066.17,12.308,12.308,0,0,0-5.662,3.851,21.966,21.966,0,1,1,39.2-13.625" transform="translate(-34.57)" fill="#dfd2ef"></path><path id="Path_351" data-name="Path 351" d="M72.924,78.089c0,5.467,0,10.871,0,16.276,0,1.067.935,1.933,1.8,1.628a1.8,1.8,0,0,0,1.282-1.621c.013-.15,0-.3,0-.453,0-9.817.021-19.633-.01-29.45a6.955,6.955,0,0,1,13.668-1.632,8.5,8.5,0,0,1,.3,2.192c.027,4.2.012,8.4.014,12.6,0,1.352.24,1.613,1.547,2.12,2.385.924,4.8,1.794,7.113,2.879A10.721,10.721,0,0,1,104.4,88.1a11.419,11.419,0,0,1,.911,3.531,47.476,47.476,0,0,1-.07,5.857,29.1,29.1,0,0,1-.559,4.205c-1.329,6.4-5.325,10.392-11.48,12.216a28.285,28.285,0,0,1-6,.931,19.15,19.15,0,0,1-9-1.217,19.932,19.932,0,0,1-7.9-5.788,18.384,18.384,0,0,1-3.926-8.143,25.747,25.747,0,0,1-.388-4.44c-.058-2.808.044-5.619-.031-8.426A8.906,8.906,0,0,1,72.306,78.1a2.272,2.272,0,0,1,.619-.007" transform="translate(-49.984 -43.754)" fill="#3d1e63"></path><path id="Path_352" data-name="Path 352" d="M251.03,51.034a1.7,1.7,0,0,1-1.559-2.36,29.78,29.78,0,0,0-.123-23.826,1.7,1.7,0,1,1,3.106-1.359A33.137,33.137,0,0,1,252.591,50a1.7,1.7,0,0,1-1.56,1.032" transform="translate(-188.854 -17.031)" fill="#3d1e63"></path><path id="Path_353" data-name="Path 353" d="M4.39,53.08a1.7,1.7,0,0,1-1.554-1.016A33.138,33.138,0,0,1,2.7,25.551a1.7,1.7,0,1,1,3.119,1.328A29.78,29.78,0,0,0,5.942,50.7,1.7,1.7,0,0,1,4.39,53.08" transform="translate(0 -18.581)" fill="#3d1e63"></path></g></g></g></svg>