<svg xmlns="http://www.w3.org/2000/svg" xmlns:xlink="http://www.w3.org/1999/xlink" width="105" height="105" viewBox="0 0 105 105"><defs><clipPath id="clip-path"><rect id="Rectangle_106" data-name="Rectangle 106" width="68.633" height="62.93" fill="none"></rect></clipPath></defs><g id="Group_220" data-name="Group 220" transform="translate(1976 -1703)"><g id="Rectangle_113" data-name="Rectangle 113" transform="translate(-1976 1703)" fill="#fff" stroke="#707070" stroke-width="1" opacity="0"><rect width="105" height="105" stroke="none"></rect><rect x="0.5" y="0.5" width="104" height="104" fill="none"></rect></g><g id="Group_200" data-name="Group 200" transform="translate(-1958 1724)"><g id="Group_184" data-name="Group 184" clip-path="url(#clip-path)"><path id="Path_320" data-name="Path 320" d="M68.6,8.639A8.489,8.489,0,0,0,61.946.257,9.546,9.546,0,0,0,59.654.01Q34.295-.009,8.931,0A8.6,8.6,0,0,0,2.254,2.748,8.142,8.142,0,0,0,.124,7.076C.116,7.124.043,7.162,0,7.2V55.724a24.085,24.085,0,0,0,1.235,3.015A7.974,7.974,0,0,0,7.27,62.82a10.647,10.647,0,0,0,1.567.1q25.5.008,50.992,0a8.5,8.5,0,0,0,7.936-4.931,7.918,7.918,0,0,0,.847-3.721q.03-22.814-.007-45.631M62.9,20.21h0q0,16.881,0,33.763a2.887,2.887,0,0,1-1.459,2.808,3.425,3.425,0,0,1-1.538.4q-13.33.035-26.663.016c-8.217,0-16.436-.029-24.654.027a3.015,3.015,0,0,1-2.87-2.933c.038-12.26.02-24.52.02-36.78V14.326h0v-1.8a6.832,6.832,0,0,1,6.833-6.833h5.422a.847.847,0,0,1,.847.847v.448A3.314,3.314,0,0,0,22.147,10.3H46.479A3.314,3.314,0,0,0,49.8,6.988V6.54a.846.846,0,0,1,.847-.847h5.422A6.831,6.831,0,0,1,62.9,12.526Z" transform="translate(0 0)" fill="#dfd2ef"></path><path id="Path_321" data-name="Path 321" d="M96.407,123.48q-5.09,0-10.181-.005a.917.917,0,0,0-.862.437,5.64,5.64,0,0,1-8.612.788,11.441,11.441,0,0,0-.829-.935,1.255,1.255,0,0,0-.748-.273q-4.386-.028-8.774-.008a2.686,2.686,0,0,1-2.508-1.49,2.743,2.743,0,0,1,.146-2.966,2.908,2.908,0,0,1,2.644-1.273q4.286-.019,8.573,0a.835.835,0,0,0,.8-.415,5.179,5.179,0,0,1,3.758-2.318,5.5,5.5,0,0,1,5.554,2.358.906.906,0,0,0,.9.366q9.946,0,19.892.007a2.866,2.866,0,1,1,.367,5.719c-3.371.012-6.742,0-10.113.005" transform="translate(-52.152 -94.375)" fill="#3d1e63"></path><path id="Path_322" data-name="Path 322" d="M77.748,219.156c-3.887,0-7.773.016-11.66-.009a2.6,2.6,0,0,1-2.42-1.817,2.649,2.649,0,0,1,.48-2.8,3.036,3.036,0,0,1,2.63-1.067q11.224.012,22.449.012a1.2,1.2,0,0,0,1.128-.569,5.218,5.218,0,0,1,4.115-2.3,5.608,5.608,0,0,1,5.142,2.41.888.888,0,0,0,.855.453c1.876-.01,3.753-.017,5.629,0a2.913,2.913,0,0,1,2.73,1.369,2.852,2.852,0,0,1-2.248,4.319q-3.116.037-6.232,0a.768.768,0,0,0-.731.391,5.722,5.722,0,0,1-8.775.753c-.016-.016-.039-.028-.047-.047-.478-1.207-1.491-1.1-2.523-1.1-3.507.03-7.014.011-10.521.011v-.011" transform="translate(-52.093 -172.89)" fill="#3d1e63"></path></g></g></g></svg>