<svg xmlns="http://www.w3.org/2000/svg" xmlns:xlink="http://www.w3.org/1999/xlink" width="105" height="105" viewBox="0 0 105 105"><defs><clipPath id="clip-path"><rect id="Rectangle_105" data-name="Rectangle 105" width="73.185" height="73.257" fill="none"></rect></clipPath></defs><g id="Group_225" data-name="Group 225" transform="translate(1649 -1713)"><g id="Group_199" data-name="Group 199" transform="translate(-1633 1729)"><g id="Group_182" data-name="Group 182" clip-path="url(#clip-path)"><path id="Path_315" data-name="Path 315" d="M107.644,0l8.894,9.192a11.55,11.55,0,0,1-1.547.519c-2.981.5-5.966.973-8.952,1.442a13.09,13.09,0,0,1-1.712.16c-.883.021-.968-.135-.685-1.041.23-.736.4-1.5.69-2.205.2-.5.1-.643-.395-.746-1.685-.348-3.347-.852-5.046-1.071a41.148,41.148,0,0,0-5.734-.327,27.429,27.429,0,0,0-9.293,1.892c-.19.071-.378.147-.43.167a29.922,29.922,0,0,1-.357,3.423,6.548,6.548,0,0,1-5.148,5.143A6.979,6.979,0,0,1,69.245,11,7.085,7.085,0,0,1,74.7,2.7,7.551,7.551,0,0,1,80.65,4.01a1.169,1.169,0,0,0,.867.109c2.373-.662,4.71-1.478,7.11-2.013a26.358,26.358,0,0,1,7.36-.5,36.514,36.514,0,0,1,9.2,1.628c.472.155.747.2.893-.421a13.769,13.769,0,0,1,.757-2.071A4.645,4.645,0,0,1,107.325,0Z" transform="translate(-58.057)" fill="#dfd2ef"></path><path id="Path_316" data-name="Path 316" d="M0,103.305c.27-.246.548-.485.81-.74,2.466-2.405,4.923-4.819,7.4-7.211a3.761,3.761,0,0,1,.928-.489A5.315,5.315,0,0,1,9.556,95.9c.389,2.186.753,4.376,1.109,6.568q.349,2.146.65,4.3c.093.661-.317.962-.981.75-.782-.25-1.577-.469-2.335-.778-.541-.221-.71.029-.822.46a42.291,42.291,0,0,0-1.311,7.074,30.947,30.947,0,0,0,1.994,13.186.9.9,0,0,0,.781.371,7.074,7.074,0,0,1,7.024,3.28,6.86,6.86,0,0,1,1.052,3.751,7.061,7.061,0,0,1-3.436,5.979,7.079,7.079,0,0,1-10.7-4.553,6.547,6.547,0,0,1,1.267-5.637,1.279,1.279,0,0,0,.139-1.443A28.054,28.054,0,0,1,1.922,121.5a39.27,39.27,0,0,1-.457-4.981,33.713,33.713,0,0,1,1.92-11.291c-.78-.273-1.553-.515-2.3-.816A8.376,8.376,0,0,1,0,103.783v-.478" transform="translate(0 -79.707)" fill="#dfd2ef"></path><path id="Path_317" data-name="Path 317" d="M143.779,124.376a20.02,20.02,0,1,1-40-1.226,19.162,19.162,0,0,1,5.981-13.1,19.646,19.646,0,0,1,15.693-5.591,19.862,19.862,0,0,1,18.321,19.915M125.817,135.62c.392-.091.665-.159.94-.217,2.411-.509,4.41-1.589,5.444-3.975a6.037,6.037,0,0,0-1.151-6.342,13.014,13.014,0,0,0-4.943-2.447c-1.6-.526-3.3-.829-4.645-1.929-1.286-1.053-1.438-3.16.4-3.811a6.357,6.357,0,0,1,2.167-.456,13.6,13.6,0,0,1,6.758,2.066l1.545-3.3a2.725,2.725,0,0,0-.457-.372,14.09,14.09,0,0,0-5.287-1.761c-.546-.048-.763-.27-.741-.847.044-1.134.013-2.271.013-3.408h-2.826c0,1.224-.021,2.393.01,3.56.013.484-.2.639-.628.688a7.211,7.211,0,0,0-4.711,2.235,5.668,5.668,0,0,0,.042,7.682,10.736,10.736,0,0,0,4.947,2.518,14.771,14.771,0,0,1,4.84,1.914,2.37,2.37,0,0,1,.333,3.411c-1.486,1.554-3.409,1.349-5.219,1.137a11.486,11.486,0,0,1-4.941-2.188c-.373-.251-.71-.556-1.122-.882l-1.646,3.194a14.647,14.647,0,0,0,8.133,3.65v4.4h2.747Z" transform="translate(-87.176 -87.72)" fill="#3d1e63"></path><path id="Path_318" data-name="Path 318" d="M105.1,367.814c-.3.909-.576,1.757-.858,2.6s-.728.965-1.361.32c-2.527-2.572-5.055-5.142-7.558-7.738a3.509,3.509,0,0,1-.474-1.015,7.732,7.732,0,0,1,.98-.307q3.621-.643,7.249-1.254c1.149-.191,2.3-.361,3.46-.5.858-.1,1.109.237.84,1.081-.284.89-.6,1.769-.933,2.743a29.788,29.788,0,0,0,21.318-.551,7.1,7.1,0,0,1,3.72-7.926,6.906,6.906,0,0,1,4.042-.668,6.8,6.8,0,0,1,5.334,3.437,6.579,6.579,0,0,1,.89,4.435,6.816,6.816,0,0,1-5.6,6.081,5.779,5.779,0,0,1-4.98-.815,2.358,2.358,0,0,0-2.68-.3,26.293,26.293,0,0,1-7.389,1.873,33.634,33.634,0,0,1-4.9.454,33.091,33.091,0,0,1-11.1-1.958" transform="translate(-79.693 -297.894)" fill="#dfd2ef"></path><path id="Path_319" data-name="Path 319" d="M367.179,106.467c.862.3,1.721.607,2.584.9s.979.837.328,1.455c-1.42,1.348-2.824,2.715-4.236,4.071-1.22,1.173-2.434,2.354-3.675,3.5-.208.193-.594.4-.8.328s-.371-.477-.418-.758c-.242-1.455-.429-2.92-.657-4.377-.346-2.22-.711-4.438-1.066-6.657-.081-.508.1-.869.65-.74,1.063.25,2.107.578,3.31.916.3-1.166.648-2.387.931-3.623a27.013,27.013,0,0,0,.623-7.97,29.177,29.177,0,0,0-2.022-9.26c-.2-.48-.322-.475-.774-.368a7.141,7.141,0,0,1-6.606-2.671,7.238,7.238,0,0,1-1.39-5.535,6.813,6.813,0,0,1,5.417-5.772A7.1,7.1,0,0,1,368,77.877,9.583,9.583,0,0,1,366.63,81.2a1.166,1.166,0,0,0-.1.879,34.094,34.094,0,0,1,2.066,7.8c.179,1.712.436,3.426.459,5.141a33.684,33.684,0,0,1-1.871,11.447" transform="translate(-297.323 -58.581)" fill="#dfd2ef"></path></g></g><g id="Rectangle_114" data-name="Rectangle 114" transform="translate(-1649 1713)" fill="#fff" stroke="#707070" stroke-width="1" opacity="0"><rect width="105" height="105" stroke="none"></rect><rect x="0.5" y="0.5" width="104" height="104" fill="none"></rect></g></g></svg>