<svg xmlns="http://www.w3.org/2000/svg" xmlns:xlink="http://www.w3.org/1999/xlink" width="105" height="105" viewBox="0 0 105 105"><defs><clipPath id="clip-path"><rect id="Rectangle_108" data-name="Rectangle 108" width="69.589" height="59.706" fill="none"></rect></clipPath></defs><g id="Group_219" data-name="Group 219" transform="translate(1786 -1807)"><g id="Rectangle_115" data-name="Rectangle 115" transform="translate(-1786 1807)" fill="#fff" stroke="#707070" stroke-width="1" opacity="0"><rect width="105" height="105" stroke="none"></rect><rect x="0.5" y="0.5" width="104" height="104" fill="none"></rect></g><g id="Group_201" data-name="Group 201" transform="translate(-1769 1829)"><g id="Group_188" data-name="Group 188" clip-path="url(#clip-path)"><path id="Path_342" data-name="Path 342" d="M30,354.312a1.964,1.964,0,0,1,.562-.038q6.454,0,12.908,0c.441,0,.881,0,1.322,0a.625.625,0,0,1,.328.042Z" transform="translate(-24.947 -294.607)"></path><path id="Path_343" data-name="Path 343" d="M12.476,231.27c-2.42,0-4.841,0-7.261,0a5.279,5.279,0,0,1-5.191-4.559,6.134,6.134,0,0,1-.02-.776c0-4.772.009-9.544-.005-14.315a4.961,4.961,0,0,1,1.622-3.857,4.837,4.837,0,0,1,3.295-1.312c.658-.01,1.316-.007,1.974-.007,4.151,0,8.3.033,12.453-.016a5.242,5.242,0,0,1,4.238,1.911,4.737,4.737,0,0,1,1.25,3.149c.013,5,.026,9.992-.009,14.988a4.658,4.658,0,0,1-2.473,4.142,4.487,4.487,0,0,1-2.359.633c-2.5-.02-5.009-.007-7.513-.007v.024" transform="translate(0 -171.665)" fill="#dfd2ef"></path><path id="Path_344" data-name="Path 344" d="M24.849,13.04c0,2.257-.009,4.473,0,6.689a4.927,4.927,0,0,1-.55,2.385,4.85,4.85,0,0,1-4.532,2.724c-4.892.02-9.785,0-14.678.009a5.093,5.093,0,0,1-2.515-.628,4.794,4.794,0,0,1-2.52-3.657A7.1,7.1,0,0,1,.015,19.5C.015,14.626,0,9.757.023,4.888A4.869,4.869,0,0,1,4.138.066,5.558,5.558,0,0,1,5.079,0L16.565,0c.047,0,.093.007.181.014-.175.184-.321.347-.476.5q-2.262,2.265-4.525,4.531c-.113.114-.229.079-.349.057a7.6,7.6,0,0,0-1.48-.147A7.22,7.22,0,0,0,3.659,8.416a7.2,7.2,0,0,0-.608,6.875,6.636,6.636,0,0,0,1.373,2.144c1.006,1.07,2.026,2.13,3.129,3.1a7.013,7.013,0,0,0,3.708,1.738A7.176,7.176,0,0,0,17.5,20.337c1.3-1.248,2.562-2.544,3.84-3.82q1.627-1.624,3.252-3.25c.073-.073.153-.138.253-.228" transform="translate(-0.01 0)" fill="#dfd2ef"></path><path id="Path_345" data-name="Path 345" d="M196.946,236.065h17.3a2.481,2.481,0,0,1,.2,4.957c-2.128.018-4.256,0-6.384,0q-13.681,0-27.363,0a9.9,9.9,0,0,1-1.572-.026,2.462,2.462,0,0,1-2.065-2.313,2.489,2.489,0,0,1,1.783-2.523,2.919,2.919,0,0,1,.83-.1h17.262" transform="translate(-147.247 -196.309)" fill="#dfd2ef"></path><path id="Path_346" data-name="Path 346" d="M196.924,34.413q-8.62,0-17.24,0a2.526,2.526,0,0,1-2.124-.981,2.476,2.476,0,0,1,1.283-3.885,3.792,3.792,0,0,1,.915-.107h34.4a2.5,2.5,0,0,1,2.031.823,2.427,2.427,0,0,1,.429,2.627,2.343,2.343,0,0,1-2.156,1.512c-.216.016-.434.008-.651.008H196.924Z" transform="translate(-147.234 -24.484)" fill="#3d1e63"></path><path id="Path_347" data-name="Path 347" d="M190.711,93.45c-3.717,0-7.434-.009-11.151.005a2.512,2.512,0,0,1-2.486-2.121,2.484,2.484,0,0,1,1.846-2.775,3.18,3.18,0,0,1,.833-.074l21.693,0a5.2,5.2,0,0,1,.942.041,2.488,2.488,0,0,1-.569,4.929c-3.7-.023-7.406-.008-11.109-.007" transform="translate(-147.233 -73.582)" fill="#3d1e63"></path><path id="Path_348" data-name="Path 348" d="M190.692,295.068q5.5,0,11,0a2.526,2.526,0,0,1,1.925.723,2.4,2.4,0,0,1,.6,2.571,2.347,2.347,0,0,1-2.079,1.647,5.381,5.381,0,0,1-.691.036q-10.9,0-21.8,0a2.487,2.487,0,0,1-.367-4.96c.167-.012.336-.013.5-.013h10.9" transform="translate(-147.198 -245.373)" fill="#dfd2ef"></path><path id="Path_349" data-name="Path 349" d="M61.746,16.935A2.48,2.48,0,0,1,61,18.7q-1.356,1.361-2.711,2.722-3.466,3.467-6.933,6.932a3.1,3.1,0,0,1-1.416.931,2.392,2.392,0,0,1-2.416-.626Q46.243,27.4,45,26.1a2.429,2.429,0,0,1,.116-3.464,2.473,2.473,0,0,1,3.446.06c.181.185.371.362.546.553.118.128.2.118.319,0q2.623-2.632,5.255-5.256,1.388-1.387,2.777-2.775a2.385,2.385,0,0,1,2.6-.628,2.431,2.431,0,0,1,1.67,2.074,2.383,2.383,0,0,1,.013.27" transform="translate(-36.866 -12.009)" fill="#3d1e63"></path></g></g></g></svg>