<svg xmlns="http://www.w3.org/2000/svg" xmlns:xlink="http://www.w3.org/1999/xlink" width="105" height="105" viewBox="0 0 105 105"><defs><clipPath id="clip-path"><rect id="Rectangle_121" data-name="Rectangle 121" width="77.682" height="66.043" fill="none"></rect></clipPath></defs><g id="Group_223" data-name="Group 223" transform="translate(-1038 -470)"><g id="Rectangle_116" data-name="Rectangle 116" transform="translate(1038 470)" fill="#fff" stroke="#707070" stroke-width="1" opacity="0"><rect width="105" height="105" stroke="none"></rect><rect x="0.5" y="0.5" width="104" height="104" fill="none"></rect></g><g id="Group_217" data-name="Group 217" transform="translate(1051 489)"><g id="Group_216" data-name="Group 216" clip-path="url(#clip-path)"><path id="Path_365" data-name="Path 365" d="M18.026,55.416A14.965,14.965,0,0,1,7.241,52.01a17.879,17.879,0,0,1-6.8-10.537A18.079,18.079,0,0,1,5.565,24.524a17.352,17.352,0,0,1,9.854-4.8,9.977,9.977,0,0,0,1.007-.168c.6-.145.553-.711.62-1.125a21.9,21.9,0,0,1,4.361-9.949,21.559,21.559,0,0,1,8.44-6.631A18.5,18.5,0,0,1,36.5.152C37.293.112,38.088,0,38.883,0a21.309,21.309,0,0,1,12.5,3.862A21.376,21.376,0,0,1,60.4,17.22a4.539,4.539,0,0,1,.292,1.446c-.138.985.586.995,1.123,1.037a16.435,16.435,0,0,1,8.734,3.509,17.445,17.445,0,0,1,6.654,10.423,16.474,16.474,0,0,1,.472,3.915A18.258,18.258,0,0,1,67.53,53.816,13.1,13.1,0,0,1,59.752,55.4v-.73c0-3.531.045-7.062-.022-10.592a7.012,7.012,0,0,0-1.057-4.056A6.132,6.132,0,0,0,54.1,37.17a.7.7,0,0,1-.473-.468,14.43,14.43,0,0,0-5-9.56,14.218,14.218,0,0,0-7.183-3.405,15.21,15.21,0,0,0-6.422.2,14.862,14.862,0,0,0-10.55,10.606c-.185.677-.274,1.382-.479,2.052-.071.231-.348.553-.55.567-2.725.191-4.88,2.681-5.4,5.2a8.177,8.177,0,0,0-.017,1.613V55.416" transform="translate(0 0)" fill="#dfd2ef"></path><path id="Path_366" data-name="Path 366" d="M129.417,140.1c.95,0,1.946-.033,2.939.007a2.658,2.658,0,0,1,2.888,2.9q.046,9.622,0,19.245a2.745,2.745,0,0,1-2.937,2.978q-14.032-.06-28.064.007a2.776,2.776,0,0,1-2.986-3.025c.084-6.522.033-13.045.037-19.568a2.525,2.525,0,0,1,2.566-2.539c.863-.007,1.727-.037,2.587.01.629.035.846-.155.843-.813a20.318,20.318,0,0,1,.175-3.912,10.536,10.536,0,0,1,5.274-7.413,10.337,10.337,0,0,1,5.65-1.444,10.9,10.9,0,0,1,10.488,8.336,35.3,35.3,0,0,1,.536,5.234m-16.938-.162.134.132h11.323l.135-.131a19.493,19.493,0,0,0-.191-3.741,5.81,5.81,0,0,0-11.134-.609c-.5,1.448-.2,2.9-.268,4.35" transform="translate(-79.387 -99.187)" fill="#3d1e63"></path><path id="Path_367" data-name="Path 367" d="M153.2,188.627l.134.132-.134-.132" transform="translate(-120.102 -147.88)" fill="#eee"></path><path id="Path_368" data-name="Path 368" d="M206.233,188.761l.135-.131-.135.131" transform="translate(-161.683 -147.883)" fill="#eee"></path></g></g></g></svg>