<svg xmlns="http://www.w3.org/2000/svg" xmlns:xlink="http://www.w3.org/1999/xlink" width="105" height="105" viewBox="0 0 105 105"><defs><clipPath id="clip-path"><rect id="Rectangle_110" data-name="Rectangle 110" width="71.006" height="70.332" fill="none"></rect></clipPath></defs><g id="Group_227" data-name="Group 227" transform="translate(1667 -1865)"><g id="Rectangle_118" data-name="Rectangle 118" transform="translate(-1667 1865)" fill="#fff" stroke="#707070" stroke-width="1" opacity="0"><rect width="105" height="105" stroke="none"></rect><rect x="0.5" y="0.5" width="104" height="104" fill="none"></rect></g><g id="Group_203" data-name="Group 203" transform="translate(-1651 1882)"><g id="Group_192" data-name="Group 192" clip-path="url(#clip-path)"><path id="Path_354" data-name="Path 354" d="M71.006,38.231a1.77,1.77,0,0,1-1.762,1.059c-1.689-.031-3.377,0-5.066-.017A1.58,1.58,0,0,1,62.6,37.714c-.017-.577,0-1.155,0-1.788H55.5v.921q0,6.186,0,12.37a4.046,4.046,0,0,1-2.629,4.133,2.835,2.835,0,0,1-.984.2c-1.246.023-2.493.009-3.786.009V65.372h3.841c0-.657,0-1.341,0-2.023a1.409,1.409,0,0,1,1.383-1.53c1.8-.052,3.612-.065,5.414-.016a1.563,1.563,0,0,1,1.608,1.732q.037,2.481,0,4.965a1.647,1.647,0,0,1-1.734,1.694c-1.6.021-3.2.017-4.8,0-1.451-.014-1.874-.46-1.874-1.921V66.949H46.693c-.054-.047-.108-.093-.163-.138l-.037-12.186c0-.315,0-.628,0-.993H27.279V66.811c-.056.045-.114.091-.17.138H21.344c0,.51,0,.965,0,1.419a1.84,1.84,0,0,1-1.933,1.93c-1.309.005-2.626-.077-3.928.019-2.374.175-2.781-1.211-2.7-2.951.058-1.264.136-2.526.17-3.79.03-1.2.458-1.65,1.645-1.648,1.746,0,3.493,0,5.239,0a1.365,1.365,0,0,1,1.512,1.542c0,.552,0,1.1,0,1.655,0,.056.012.114.03.288h4.342V53.574c-1,0-2,.005-3,.007q-.808,0-1.612,0-.931,0-1.86-.012a3.7,3.7,0,0,1-3.7-3.216,8.8,8.8,0,0,1-.044-1.325q-.005-5.748,0-11.5v-.981H8.234c0,.6.005,1.173,0,1.746a1.571,1.571,0,0,1-1.579,1.652c-1.776.017-3.552.024-5.328-.012A1.221,1.221,0,0,1,0,38.752q0-3.068,0-6.138c.11-.834.752-1.023,1.416-1.038,1.746-.04,3.5-.079,5.243,0,1.086.051,1.708.654,1.586,1.673a14.63,14.63,0,0,0-.01,1.664h7.276v-.981c0-4.358.009-8.718-.005-13.078-.005-1.706.537-3.082,2.227-3.737a5.842,5.842,0,0,1,1.9-.371c1.537-.052,3.077-.017,4.674-.017V4.938h-5.58c0,.572,0,1.143,0,1.713,0,.968-.437,1.6-1.357,1.633-1.918.063-3.841.037-5.76-.014a1.058,1.058,0,0,1-1.119-1.152c-.017-1.972-.063-3.942-.063-5.914A1.2,1.2,0,0,1,11.53,0h5.992a1.441,1.441,0,0,1,1.2,1.662c-.031.517-.005,1.037-.005,1.71h6.992c.056.047.11.093.164.14q.018,6.1.038,12.2v.979H45.089V3.477h7.022c0-.586,0-1.1,0-1.615A1.581,1.581,0,0,1,53.789.049q2.533-.055,5.068,0A1.713,1.713,0,0,1,60.622,1.86c.019,1.6.026,3.2,0,4.8a1.639,1.639,0,0,1-1.848,1.781c-1.631.009-3.262.016-4.893,0a1.588,1.588,0,0,1-1.769-1.787c0-.516,0-1.031,0-1.577H46.7V16.733c1.4,0,2.788.044,4.176-.009,3.022-.114,4.685,1.849,4.641,4.6-.061,3.979-.014,7.961-.014,11.941v1.007h7.1c0-.544,0-1.087,0-1.629.005-.944.519-1.71,1.405-1.724,1.932-.028,3.872.028,5.8.187.425.035.8.643,1.2.986q0,3.071,0,6.138" fill="#dfd2ef"></path><path id="Path_355" data-name="Path 355" d="M155.082,382.327l.169-.137-.169.137" transform="translate(-127.972 -315.379)" fill="#222"></path><path id="Path_356" data-name="Path 356" d="M266.178,382.187l.163.138-.163-.138" transform="translate(-219.647 -315.377)" fill="#222"></path><path id="Path_357" data-name="Path 357" d="M147.268,19.426l-.164-.141.164.141" transform="translate(-121.389 -15.914)" fill="#111"></path><path id="Path_358" data-name="Path 358" d="M128.69,112.064v2.659h0v.921q0,6.186,0,12.37a4.046,4.046,0,0,1-2.629,4.133,2.836,2.836,0,0,1-.984.2c-1.246.023-2.493.009-3.786.009v.021H94.294q-.931,0-1.86-.012a3.7,3.7,0,0,1-3.7-3.217,8.8,8.8,0,0,1-.044-1.325q-.005-5.748,0-11.5v-.061l0,0v-3.533c0-4.358.009-8.718-.005-13.078-.005-1.706.537-3.082,2.227-3.737a5.842,5.842,0,0,1,1.9-.371c1.537-.052,3.077-.017,4.674-.017v-.04h22.4v.04c1.4,0,2.788.044,4.176-.009,3.022-.114,4.685,1.849,4.641,4.6-.061,3.979-.014,7.961-.014,11.941" transform="translate(-73.186 -78.797)" fill="#3d1e63"></path></g></g></g></svg>