<svg xmlns="http://www.w3.org/2000/svg" width="105" height="105" viewBox="0 0 105 105"><g id="Group_168" data-name="Group 168" transform="translate(1736 -987)"><g id="Rectangle_102" data-name="Rectangle 102" transform="translate(-1736 987)" fill="#fff" stroke="#707070" stroke-width="1" opacity="0"><rect width="105" height="105" stroke="none"></rect><rect x="0.5" y="0.5" width="104" height="104" fill="none"></rect></g><g id="Group_167" data-name="Group 167" transform="translate(-246.297 52.664)"><path id="Path_112" data-name="Path 112" d="M150.276,151.682a3.636,3.636,0,1,1,3.636-3.636h0A3.635,3.635,0,0,1,150.276,151.682Z" transform="translate(-1587.088 838.601)" fill="#885ac6"></path><path id="Path_113" data-name="Path 113" d="M46.26,85.573a1.8,1.8,0,0,1-1.267-.527l-10.179-10.2H19.465a1.783,1.783,0,0,1-1.786-1.773V57.715L7.475,47.531a1.819,1.819,0,0,1-.389-.579A1.783,1.783,0,0,1,7.475,45l10.2-10.179V19.467a1.783,1.783,0,0,1,1.773-1.786H34.806L44.99,7.477a1.787,1.787,0,0,1,2.536,0L57.7,17.679H73.054a1.783,1.783,0,0,1,1.786,1.773V34.808l10.2,10.179a1.79,1.79,0,0,1,0,2.538L74.839,57.7V73.053a1.783,1.783,0,0,1-1.773,1.786H57.71l-10.179,10.2a1.8,1.8,0,0,1-1.272.529ZM30.179,28.4a1.792,1.792,0,0,0-1.786,1.786v8.2l-6.628,6.61a1.777,1.777,0,0,0,0,2.533l6.628,6.608v8.2a1.777,1.777,0,0,0,.524,1.264,1.8,1.8,0,0,0,1.261.524h8.2l6.61,6.628a1.783,1.783,0,0,0,2.523.016l.016-.016,6.608-6.628h8.2a1.792,1.792,0,0,0,1.788-1.788v-8.2l6.628-6.608a1.783,1.783,0,0,0,.016-2.523l-.016-.016-6.628-6.61v-8.2a1.786,1.786,0,0,0-.524-1.261,1.766,1.766,0,0,0-1.264-.524h-8.2l-6.608-6.628a1.775,1.775,0,0,0-2.53,0L38.388,28.4H30.181Z" transform="translate(-1483.65 940.386)" fill="#885ac6"></path><path id="Path_114" data-name="Path 114" d="M100.531,119.37h0l-5.98-6a1.765,1.765,0,0,0-.592-.389,1.829,1.829,0,0,0-.7-.138H85.985v-7.272a1.818,1.818,0,0,0-.527-1.29l-6-5.982,6-5.982a1.818,1.818,0,0,0,.527-1.29V83.755h7.3a1.812,1.812,0,0,0,1.267-.527l5.985-6,5.982,6a1.812,1.812,0,0,0,1.267.527h7.3v7.275a1.849,1.849,0,0,0,.138.7,1.765,1.765,0,0,0,.389.592l6,5.982-6,5.982a1.765,1.765,0,0,0-.389.592,1.83,1.83,0,0,0-.138.7v7.27H107.8a1.849,1.849,0,0,0-.7.138,1.765,1.765,0,0,0-.592.389l-5.98,6h0Zm-.008-28.341a7.4,7.4,0,0,0-1.414.138,7.3,7.3,0,1,0,1.414-.138Z" transform="translate(-1537.344 888.346)" fill="#dfd2ef" style="isolation: isolate"></path></g></g></svg>