<svg xmlns="http://www.w3.org/2000/svg" width="105" height="105" viewBox="0 0 105 105"><g id="Group_166" data-name="Group 166" transform="translate(1818 -995)"><g id="Rectangle_101" data-name="Rectangle 101" transform="translate(-1818 995)" fill="#fff" stroke="#707070" stroke-width="1" opacity="0"><rect width="105" height="105" stroke="none"></rect><rect x="0.5" y="0.5" width="104" height="104" fill="none"></rect></g><g id="Artboard_11" data-name="Artboard 11" transform="translate(-1802.008 1007.174)"><g id="Group_26" data-name="Group 26" transform="translate(11.397 0)"><path id="Path_106" data-name="Path 106" d="M76.513,34.074A17.063,17.063,0,0,0,70.3,30.981H61a16.749,16.749,0,0,0-8.2,5.161q11.4,0,22.79,0,1.574,0,3.146,0a15.971,15.971,0,0,0-2.222-2.069ZM106.689,2.95A2.645,2.645,0,0,0,103.775.014Q75.5-.013,47.221.006A2.5,2.5,0,0,0,44.634,2.6q0,15.484,0,30.967a2.494,2.494,0,0,0,2.6,2.577h.207a21.635,21.635,0,0,1,8.588-7.807,10.291,10.291,0,0,0-6.226-4.7c0-3.537-.008-7.087.02-10.634a.818.818,0,0,1,.462-.562,10.6,10.6,0,0,0,6.872-7.271h.725q17.7,0,35.4-.008a.89.89,0,0,1,1.034.735,10.206,10.206,0,0,0,6.556,6.51c.48.169.672.312.667.838q-.034,4.838,0,9.679a.759.759,0,0,1-.641.884,9.964,9.964,0,0,0-6.663,6.66.868.868,0,0,1-.621.5q-7.083.011-14.163.018a21.648,21.648,0,0,1,4.541,5.161c6.571,0,13.142-.005,19.713.028a2.885,2.885,0,0,0,3-2.975c-.01-10.08.005-20.162-.015-30.242Z" transform="translate(-44.632 -0.001)" fill="#885ac6"></path><path id="Path_108" data-name="Path 108" d="M135.735,48.274a7.509,7.509,0,0,1,7.477-7.664c4.845-.005,7.986,3.3,7.973,7.789a7.725,7.725,0,1,1-15.45-.125Z" transform="translate(-112.461 -30.239)" fill="#dfd2ef"></path></g><g id="Group_27" data-name="Group 27" transform="translate(0.927 11.43)"><path id="Path_109" data-name="Path 109" d="M18.692,75.738a17.993,17.993,0,0,0-.82,4.949c0,.069-.005.14-.005.212H24.7a10.414,10.414,0,0,1,1.611-5.161Zm33.651,2.421a14.953,14.953,0,0,0-.552-2.441q-3.869.008-7.735.01a10.438,10.438,0,0,1,1.617,5.166q3.394,0,6.785,0a17.135,17.135,0,0,0-.115-2.738Zm-39.229-2.7a4.1,4.1,0,0,1-4.1-4.1v-2.9L8.8,68.388c0-3.54-.008-7.087.02-10.634A.626.626,0,0,1,9.01,57.4V44.76H6.221a2.5,2.5,0,0,0-2.587,2.592q0,15.484,0,30.967a2.5,2.5,0,0,0,2.6,2.579h7.373a21.692,21.692,0,0,1,.7-5.44Zm42.947,0a21.6,21.6,0,0,1,.7,5.442q2.969.008,5.938.023a2.886,2.886,0,0,0,3-2.978V75.459H56.061Z" transform="translate(-3.632 -44.76)" fill="#dfd2ef"></path><path id="Path_110" data-name="Path 110" d="M66.784,112.3H58.956c.059.089.117.179.174.268q3.865,0,7.735-.01c-.026-.087-.054-.171-.082-.258Zm-33.018.278h7.621c.056-.094.117-.186.179-.278h-7.71c-.031.092-.061.184-.089.278ZM23.9,94.6c-.028,3.547-.02,7.094-.02,10.634l.207.064V94.24A.626.626,0,0,0,23.9,94.6Z" transform="translate(-18.706 -81.604)" fill="#dfd2ef"></path></g><path id="Path_111" data-name="Path 111" d="M49.641,133.408a14.953,14.953,0,0,0-.552-2.441c-.026-.087-.054-.171-.082-.258a16.724,16.724,0,0,0-1.5-3.238,17.782,17.782,0,0,0-2.007-2.75,15.97,15.97,0,0,0-2.222-2.069,17.063,17.063,0,0,0-6.211-3.093,15.468,15.468,0,0,0-1.943-.378,18.16,18.16,0,0,0-6.165.082c-.406.087-.8.184-1.2.3a16.749,16.749,0,0,0-8.2,5.161q-.379.429-.735.889a17.1,17.1,0,0,0-2.753,5.1c-.031.092-.061.184-.089.278a17.993,17.993,0,0,0-.82,4.949c0,.069-.005.14-.005.212a23.14,23.14,0,0,0,.306,3.072,15.531,15.531,0,0,0,2.865,6.982c.281.4.281.58-.043.9-.886.866-1.775,1.729-2.623,2.625-.158.158-.309.319-.457.48a1.313,1.313,0,0,1-1.6.391,7.188,7.188,0,0,0-7.838,1.836c-1.062,1.065-2.051,2.2-3.121,3.259-1.992,1.966-3.057,4.252-2.5,7.089a6.572,6.572,0,0,0,2.669,4.385,25.373,25.373,0,0,0,3.261,1.6h2.5c2.482-.577,4.191-2.27,5.843-4.045.636-.682,1.228-1.407,1.9-2.046a7.55,7.55,0,0,0,1.622-8.07.758.758,0,0,1,.066-.646c.312-.314.628-.628.942-.94.991-.981,1.995-1.951,3-2.929.416.271.753.485,1.09.707a16.973,16.973,0,0,0,7.585,2.771,14.751,14.751,0,0,0,4.091-.153,22.548,22.548,0,0,0,4.717-1.29,16.067,16.067,0,0,0,6.213-4.548,17.377,17.377,0,0,0,2.648-4.165,13.752,13.752,0,0,0,1.382-5.24c.018-.672.051-1.346.069-2.02a17.134,17.134,0,0,0-.115-2.738ZM32.485,147.076a10.5,10.5,0,0,1-10.494-10.494c0-.146,0-.291.008-.434a10.414,10.414,0,0,1,1.611-5.161c.056-.094.117-.186.179-.278a10.494,10.494,0,0,1,17.391,0c.059.089.117.179.174.268a10.438,10.438,0,0,1,1.617,5.166c.005.146.008.291.008.439a10.5,10.5,0,0,1-10.494,10.494Z" transform="translate(-0.004 -88.579)" fill="#885ac6"></path></g></g></svg>