<svg xmlns="http://www.w3.org/2000/svg" xmlns:xlink="http://www.w3.org/1999/xlink" width="104" height="104" viewBox="0 0 104 104"><defs><clipPath id="clip-path"><rect id="Rectangle_69" data-name="Rectangle 69" width="86.358" height="75.812" fill="none"></rect></clipPath></defs><g id="Group_113" data-name="Group 113" transform="translate(392 -470)"><g id="Rectangle_74" data-name="Rectangle 74" transform="translate(-392 470)" fill="#fff" stroke="#707070" stroke-width="1" opacity="0"><rect width="104" height="104" stroke="none"></rect><rect x="0.5" y="0.5" width="103" height="103" fill="none"></rect></g><g id="Group_112" data-name="Group 112" transform="translate(-383 484)"><g id="Group_97" data-name="Group 97" clip-path="url(#clip-path)"><path id="Path_292" data-name="Path 292" d="M119.823,20.74q-.427-.7-.856-1.4l-2.7-4.392q-4.2-6.831-8.41-13.657a1.879,1.879,0,0,0-3.566-.016c-.354.559-.7,1.124-1.045,1.689l-3.332,5.42Q95.2,16.054,90.472,23.719a2.15,2.15,0,0,0-.319,2.409,2.149,2.149,0,0,0,2.169.866c.431,0,.863,0,1.295.008.792.012,1.611.023,2.414-.032a1.079,1.079,0,0,1,.83.17c.161.152.226.429.218.926-.047,2.935-.033,41.882-.013,45.565.008,1.4.644,2.175,1.792,2.18h.012a1.615,1.615,0,0,0,1.316-.553,2.514,2.514,0,0,0,.46-1.615c.015-4.344.015-44.3,0-48.033-.006-1.572-.632-2.191-2.233-2.208-.8-.008-1.6-.007-2.452,0l-1.033,0,.161-.285c.135-.239.238-.423.348-.6q1.369-2.226,2.741-4.451c2.417-3.924,4.917-7.982,7.354-11.986.178-.292.38-.59.536-.59h0c.163,0,.382.329.532.576,2.44,4.014,4.944,8.079,7.367,12.011q1.363,2.213,2.726,4.427c.111.18.214.364.35.606l.166.294h-1.05c-.851,0-1.636,0-2.422,0-1.612.016-2.242.63-2.249,2.192-.017,3.9-.008,43.58,0,48.032a3.8,3.8,0,0,0,.064.805,1.756,1.756,0,0,0,3.4.13,5.236,5.236,0,0,0,.123-1.363c.007-2.107.04-42.191-.016-45.228a1.1,1.1,0,0,1,.2-.823,1.09,1.09,0,0,1,.831-.173c.79.041,1.595.033,2.372.025.482,0,.965-.01,1.448,0a2.06,2.06,0,0,0,2.127-.952,2.2,2.2,0,0,0-.362-2.311c-.627-.991-1.248-2.009-1.849-2.993" transform="translate(-62.894 0)" fill="#421c67"></path><path id="Path_293" data-name="Path 293" d="M14.445,61.356c-.562-.935-1.207-1.43-1.864-1.43h0c-.657,0-1.3.494-1.864,1.427Q7.875,66.07,5.045,70.792l-2.119,3.53q-.361.6-.725,1.2c-.579.959-1.178,1.95-1.751,2.935a2.147,2.147,0,0,0-.265,2.148,2.241,2.241,0,0,0,2.035.9c.167,0,.335.008.5.013a10.923,10.923,0,0,0,1.529-.025,1.14,1.14,0,0,1,.913.147,1.223,1.223,0,0,1,.226.946c-.075,2.389-.048,4.821-.023,7.171l.006.572a1.785,1.785,0,0,0,1.78,1.967h.022a1.709,1.709,0,0,0,1.231-.469,2.014,2.014,0,0,0,.54-1.464c.019-3.444.019-6.954,0-10.433a1.794,1.794,0,0,0-1.974-2.005c-.444-.022-.885-.017-1.4-.012l-.611.005L12.579,65.23,20.121,77.8a1.07,1.07,0,0,1-.648.11,2.479,2.479,0,0,0-.258,0c-.173.011-.351.008-.524.006-.2,0-.4-.005-.6.01a1.806,1.806,0,0,0-1.911,1.857c-.054,1.836-.054,25.883,0,27.667a1.9,1.9,0,0,0,.618,1.428,1.739,1.739,0,0,0,1.15.4,2.179,2.179,0,0,0,.263-.016c1.045-.126,1.521-.825,1.542-2.268,0-.185-.007-1.122-.02-2.541-.053-5.46-.216-22.077.165-22.722.372-.473,1.107-.384,1.884-.288a7.109,7.109,0,0,0,1.017.075,2.381,2.381,0,0,0,2.161-.941,2.36,2.36,0,0,0-.369-2.308c-3.042-5.085-6.361-10.617-10.147-16.914" transform="translate(0 -41.925)" fill="#9057cd"></path><path id="Path_294" data-name="Path 294" d="M228.508,78.637c-3.41-5.741-6.978-11.69-10.606-17.684a1.774,1.774,0,0,0-3.25-.006c-3.668,6.061-7.237,12.01-10.609,17.684a1.883,1.883,0,0,0-.161,1.905,2.054,2.054,0,0,0,1.827.937c.8.024,1.7.051,2.59-.006a.857.857,0,0,1,.664.147.908.908,0,0,1,.15.708c-.063,1.018-.011,24.8-.007,24.978.032,1.237.675,1.949,1.763,1.954h.011a1.764,1.764,0,0,0,1.8-1.937c.04-1.7.039-25.81,0-27.442a1.857,1.857,0,0,0-2.028-1.979c-.443-.021-.882-.016-1.392-.011l-.6,0L216.28,65.2,223.891,77.9c-.224,0-.435,0-.637-.006-.542-.007-1.01-.013-1.481.015-1.16.068-1.833.67-1.845,1.653-.054,4.339-.052,7.868.007,11.108a1.615,1.615,0,0,0,.9,1.432,1.8,1.8,0,0,0,1.859-.141,2.1,2.1,0,0,0,.795-1.869c0-.9,0-1.8,0-2.693,0-1.655.009-3.366-.022-5.049a.973.973,0,0,1,.183-.735.929.929,0,0,1,.718-.142,24.53,24.53,0,0,0,2.478.007,2.057,2.057,0,0,0,1.828-.929,1.889,1.889,0,0,0-.17-1.907" transform="translate(-142.507 -41.899)" fill="#9057cd"></path></g></g></g></svg>