<svg xmlns="http://www.w3.org/2000/svg" width="105" height="105" viewBox="0 0 105 105"><g id="Group_164" data-name="Group 164" transform="translate(1434 -806)"><g id="Rectangle_94" data-name="Rectangle 94" transform="translate(-1434 806)" fill="#fff" stroke="#707070" stroke-width="1" opacity="0"><rect width="105" height="105" stroke="none"></rect><rect x="0.5" y="0.5" width="104" height="104" fill="none"></rect></g><g id="Artboard_9" data-name="Artboard 9" transform="translate(-1418 822)"><path id="Path_115" data-name="Path 115" d="M0,36.524v-2.69a1.189,1.189,0,0,0,.144-.279,6.822,6.822,0,0,1,1.8-3.565Q15.062,16.847,28.194,3.715a2.651,2.651,0,0,1,1.644-.739c1.483-.2,2.969-.372,4.452-.578,1.568-.219,3.133-.473,4.7-.7,1.412-.2,2.825-.38,4.237-.587Q45.474.784,47.718.419C48.47.3,49.22.142,49.972,0h1.416a4.368,4.368,0,0,1,.651.449c1.538,1.536,3.064,3.085,4.594,4.63v.17l-5.956,5.8c-.327-.348-.688-.78-1.1-1.16a2.265,2.265,0,0,0-3.146-.382c-.049.039-.1.075-.15.114a2.247,2.247,0,0,0-.071,2.954q3.071,3.133,6.2,6.205a2.153,2.153,0,0,0,2.729.013,1.914,1.914,0,0,0,.623-2.207,23.643,23.643,0,0,0-1.818-2.512C55.821,12.2,57.8,10.227,59.8,8.229c1.566,1.558,3.178,3.139,4.759,4.753a1.2,1.2,0,0,1,.271.821c-.052.922-.157,1.841-.271,2.759-.226,1.828-.447,3.657-.709,5.479-.307,2.136-.675,4.265-.98,6.4s-.554,4.291-.859,6.433A3.46,3.46,0,0,1,61,36.924Q48.113,49.754,35.278,62.64a7.818,7.818,0,0,1-5.011,2.318,7.13,7.13,0,0,1-5.844-2.125Q13.333,51.805,2.3,40.72a5.192,5.192,0,0,1-1-1.24C.814,38.522.432,37.513.006,36.522ZM36.827,16.138c-1.278,0-1.712.32-2.14,1.6Q29.73,32.6,24.756,47.452a2.207,2.207,0,0,0,1.306,2.731,2.057,2.057,0,0,0,2.673-1.324c.986-2.881,1.947-5.771,2.909-8.659Q35.177,29.6,38.7,19c.535-1.614-.29-2.864-1.869-2.864ZM26.048,33.217a5.827,5.827,0,0,0-2.067-4.781A6.261,6.261,0,0,0,18.916,26.9a6.2,6.2,0,0,0-5.556,6.31,6.3,6.3,0,0,0,6.682,6.306c2.946-.1,6.242-2.828,6.005-6.3ZM43.63,39.5A6.332,6.332,0,1,0,43.1,26.877,6.326,6.326,0,0,0,43.632,39.5Z" fill="#885ac6"></path><path id="Path_116" data-name="Path 116" d="M215.55,44.26c-.049.039-.1.075-.15.114C215.449,44.335,215.5,44.3,215.55,44.26Z" transform="translate(-169.119 -34.75)" fill="#fff"></path><path id="Path_117" data-name="Path 117" d="M125.57,146.723a12.588,12.588,0,0,0,10.481-2.714c.428-.359.855-.724,1.25-1.117q12.843-12.827,25.669-25.674a6.24,6.24,0,0,0,1.743-3.8c.17-1.48.449-2.948.664-4.424.165-1.139.3-2.282.46-3.421.215-1.5.449-3,.668-4.5.073-.5.118-1.006.18-1.508.021-.17.056-.339.116-.685,1.021,1.369,1.938,2.6,2.853,3.827a4.753,4.753,0,0,0,.445.612,3.783,3.783,0,0,1,.98,3c-.011,11.843,0,23.684-.015,35.527a7.917,7.917,0,0,1-2.437,6.1A7.485,7.485,0,0,1,163.5,150.1q-16.1.029-32.2-.006a6.354,6.354,0,0,1-3.988-1.639c-.63-.52-1.167-1.152-1.745-1.732Z" transform="translate(-98.59 -77.635)" fill="#dfd2ef"></path><path id="Path_118" data-name="Path 118" d="M83.932,144.95c1.44.006,2.076.713,2.067,2.3a2.055,2.055,0,0,1-2.136,1.82,2.211,2.211,0,0,1-2.095-2.138A2.011,2.011,0,0,1,83.932,144.95Z" transform="translate(-64.197 -113.806)" fill="#dfd2ef"></path><path id="Path_119" data-name="Path 119" d="M195.826,144.84a2,2,0,0,1,2.146,2.187,2.183,2.183,0,0,1-2.284,1.934,2.234,2.234,0,0,1-1.979-2.157A2.033,2.033,0,0,1,195.826,144.84Z" transform="translate(-152.089 -113.696)" fill="#dfd2ef"></path></g></g></svg>