<svg xmlns="http://www.w3.org/2000/svg" xmlns:xlink="http://www.w3.org/1999/xlink" width="104" height="104" viewBox="0 0 104 104"><defs><clipPath id="clip-path"><rect id="Rectangle_72" data-name="Rectangle 72" width="102.411" height="72.962" fill="none"></rect></clipPath></defs><g id="Group_111" data-name="Group 111" transform="translate(-283 -110)"><g id="Rectangle_74" data-name="Rectangle 74" transform="translate(283 110)" fill="#fff" stroke="#707070" stroke-width="1" opacity="0"><rect width="104" height="104" stroke="none"></rect><rect x="0.5" y="0.5" width="103" height="103" fill="none"></rect></g><g id="Group_110" data-name="Group 110" transform="translate(284.295 130)"><g id="Group_103" data-name="Group 103" clip-path="url(#clip-path)"><path id="Path_301" data-name="Path 301" d="M240.678,35.881l0-.276c0-1.135.007-2.309-.03-3.457a11.9,11.9,0,0,0-8.5-11c-.371-.106-.758-.2-1.155-.283h-1.045l.725-.829a11.792,11.792,0,0,0,3.136-8.465,11.509,11.509,0,0,0-4.04-8.585,11.831,11.831,0,0,0-19.566,7.726,12.029,12.029,0,0,0,3.067,9.33l.529.619-.787.193a12.248,12.248,0,0,0-4.9,2.136c-1.042.772-1.462,1.095-1.479,1.417v.017c0,.319.42.715,1.284,1.494l.05.043c.02.017.04.037.063.053a2.165,2.165,0,0,1,.205.2c.172.216.318.319.45.326.2.017.42-.176.569-.319a7.916,7.916,0,0,1,5.575-2.333c3.9-.04,9.045-.077,14.319,0a8.594,8.594,0,0,1,8.162,7.008,15.844,15.844,0,0,1,.179,3.341c-.007.356-.013.715-.01,1.075.013,1.8.017,2.788-.443,3.4-.457.6-1.294.829-3.143,1.294a51.579,51.579,0,0,1-17.564,1.028l-.212-.017a20.138,20.138,0,0,1,2.131,3.391l.807.037c1,.05,2.018.073,3.044.073a58.818,58.818,0,0,0,10.355-.9,18.79,18.79,0,0,0,7.143-2.559,2.186,2.186,0,0,0,1.082-2.043c-.017-.985-.017-1.967-.01-3.138M221.992,20.655h-.02a8.586,8.586,0,0,1-6.131-2.572,8.655,8.655,0,1,1,6.15,2.572" transform="translate(-138.278 0)" fill="#9057cd"></path><path id="Path_302" data-name="Path 302" d="M146.046,55.581l-.328-.739a20.138,20.138,0,0,0-2.131-3.391l-.132-.166a19.839,19.839,0,0,0-8-6.023l-.222-.09-.066-.23c-1.36-4.552-4.387-7.334-9.257-8.508l-.8-.193.546-.622a11.822,11.822,0,0,0,3.14-8.142,11.611,11.611,0,0,0-3.656-8.548,11.837,11.837,0,0,0-15.225-.968,11.577,11.577,0,0,0-4.509,6.974,12.019,12.019,0,0,0,2.852,10.728l.549.652-.834.16a11.751,11.751,0,0,0-9.522,9.876,30.161,30.161,0,0,0-.189,5.144c.02.962.043,2.053,0,3.1a2.2,2.2,0,0,0,1.148,2.113,17.63,17.63,0,0,0,6.111,2.309c.93.2,1.856.366,2.749.5l.506.073-.089.509a20.061,20.061,0,0,0-.311,3.507A19.812,19.812,0,0,0,117.047,80l.106.07a19.448,19.448,0,0,0,10.9,3.331,19.8,19.8,0,0,0,17.988-27.818M108.293,27.407a8.7,8.7,0,0,1,8.655-8.588H117a8.738,8.738,0,0,1,8.625,8.8,8.689,8.689,0,0,1-8.7,8.631h-.069a8.519,8.519,0,0,1-6.074-2.605,8.741,8.741,0,0,1-2.491-6.236m1.4,29.072-.38-.05c-1.108-.153-2.256-.356-3.414-.606a17.165,17.165,0,0,1-3.669-1.2l-.132-.06c-.291-.126-.672-.293-.655-.849.04-.832.02-1.68,0-2.5l0-.11a22.831,22.831,0,0,1,.2-4.6,8.582,8.582,0,0,1,8.225-7.044c.811-.017,1.7-.027,2.726-.027.744,0,1.485,0,2.217.01.695,0,1.4.007,2.1.007l.493-.007h.013c.559,0,1.118,0,1.677,0,1.489,0,3.024-.007,4.559.007a8.716,8.716,0,0,1,7.269,3.72l.625.915-1.1-.136a19.629,19.629,0,0,0-20.608,12.168Zm18.362,23.093a15.761,15.761,0,0,1-7.831-2.086A16.026,16.026,0,0,1,112.184,63.6a15.607,15.607,0,0,1,.328-3.208A15.845,15.845,0,0,1,132.1,48.164a15.615,15.615,0,0,1,4.308,1.867,16.055,16.055,0,0,1,2.739,2.156,16.317,16.317,0,0,1,2.008,2.4,15.981,15.981,0,0,1-13.1,24.986" transform="translate(-65.739 -10.436)" fill="#421c67"></path><path id="Path_303" data-name="Path 303" d="M33.843,24.111c-.149-.116-.291-.243-.433-.369l-.056-.053c-.132-.12-.265-.236-.4-.349a11.857,11.857,0,0,0-5.247-2.412l-.824-.176.553-.639a11.827,11.827,0,0,0,3.12-8.768A11.858,11.858,0,0,0,18.764.113,11.824,11.824,0,0,0,6.929,11.16a12.457,12.457,0,0,0,3.077,8.994l.543.649-.827.16A11.726,11.726,0,0,0,.233,30.829a34.314,34.314,0,0,0-.2,5.88c.023.915.05,1.923.03,2.9A1.668,1.668,0,0,0,.931,41a12.723,12.723,0,0,0,4.01,1.867,47.619,47.619,0,0,0,13.207,1.727,75.066,75.066,0,0,0,8.883-.562c1.118-.13,1.628-.216,1.836-.5s.119-.829-.1-2.036l-.02-.106c-.129-.689-.288-.809-.956-.7a59.081,59.081,0,0,1-14.511.466A30.357,30.357,0,0,1,4.2,39.207,1.326,1.326,0,0,1,3.2,37.76c.043-.952.036-1.923.03-2.858l0-.429c0-.646-.007-1.318.007-1.977a8.629,8.629,0,0,1,8.522-8.548c4.3-.047,8.605-.027,12.77-.007l1.227,0a8.9,8.9,0,0,1,4.6,1.417,3.011,3.011,0,0,1,.629.572l.023.027c.407.449.682.712,1.079.592a2.7,2.7,0,0,0,1.065-.819l.06-.063a6.065,6.065,0,0,1,.622-.589c.318-.236.364-.406.364-.489,0-.136-.112-.293-.351-.482m-15.1-3.381h-.017a8.6,8.6,0,0,1-6.134-2.569,8.655,8.655,0,1,1,6.15,2.569" transform="translate(0 -0.075)" fill="#9057cd"></path><path id="Path_304" data-name="Path 304" d="M176.954,142.205a3.352,3.352,0,0,1-.271.293l-.036.037c-2.455,2.466-4.281,4.2-6.064,5.886-1.757,1.664-3.573,3.384-6,5.826a1.667,1.667,0,0,1-2.7-.063s-4.493-4.9-5.667-6.189a1.692,1.692,0,0,1-.526-1.258,1.552,1.552,0,0,1,.913-1.431,1.639,1.639,0,0,1,.711-.17,1.62,1.62,0,0,1,1.016.379,2.287,2.287,0,0,1,.285.28l.883.962q1.732,1.887,3.461,3.783l.347.386.367-.369c2.088-2.083,3.653-3.56,5.168-4.991,1.608-1.514,3.269-3.081,5.548-5.37a1.815,1.815,0,0,1,1.3-.632,1.647,1.647,0,0,1,.285.027,1.62,1.62,0,0,1,.993,2.615" transform="translate(-104.174 -93.124)" fill="#421c67"></path></g></g></g></svg>