<svg xmlns="http://www.w3.org/2000/svg" width="105" height="105" viewBox="0 0 105 105"><g id="Group_165" data-name="Group 165" transform="translate(1601 -770)"><g id="Artboard_8" data-name="Artboard 8" transform="translate(-1584.012 781.017)"><path id="Path_101" data-name="Path 101" d="M35.325,125.066H2.979a2.844,2.844,0,0,1-2.964-2.94q0-17.664,0-35.326a2.856,2.856,0,0,1,2.952-2.957q32.257-.007,64.511.01A3.017,3.017,0,0,1,70.8,87.2c.022,11.5,0,23,.017,34.5A3.291,3.291,0,0,1,67.4,125.1c-10.69-.057-21.379-.027-32.071-.029Zm-21.018-5.889q20.8,0,41.579-.025a.994.994,0,0,0,.708-.568,11.372,11.372,0,0,1,7.6-7.6.867.867,0,0,0,.732-1.008q-.041-5.519,0-11.044c0-.6-.214-.764-.762-.956a11.631,11.631,0,0,1-7.477-7.425,1.021,1.021,0,0,0-1.182-.841q-20.19.022-40.377.012H14.3a12.1,12.1,0,0,1-7.841,8.293.927.927,0,0,0-.526.642c-.032,4.046-.022,8.094-.022,12.13a11.8,11.8,0,0,1,8.4,8.384Z" transform="translate(0 -63.244)" fill="#885ac6"></path><path id="Path_102" data-name="Path 102" d="M45.729,286.525c-.457.676-.978,1.372-1.423,2.114a2.978,2.978,0,0,1-3.144,1.47,2.934,2.934,0,0,1-2.323-2.163c-.991-2.868-1.925-5.759-2.864-8.647a2.958,2.958,0,0,1,2.817-3.876c2.795-.017,5.594-.1,8.384.027,1.782.079,2.922.248,3.331,2.6a4.663,4.663,0,0,1-.578,2.161,8.731,8.731,0,0,1-.887,1.386c1.888.6,3.645,1.2,5.425,1.723a29.507,29.507,0,0,0,10.353.89,31.347,31.347,0,0,0,9.79-2.269,34.794,34.794,0,0,0,8.288-4.823,5.931,5.931,0,0,1,2.532-1.61,3,3,0,0,1,3.409,2.345c.265,1.9-.919,2.78-2.089,3.707a38.7,38.7,0,0,1-7.529,4.778,40.38,40.38,0,0,1-19.484,3.768,33.126,33.126,0,0,1-8.866-1.676c-1.706-.568-3.372-1.249-5.142-1.912Z" transform="translate(-27.012 -207.706)" fill="#885ac6"></path><path id="Path_103" data-name="Path 103" d="M78.862,3.7c.705-.956,1.374-1.87,2.055-2.777,1.165-1.556,4.26-.917,4.82.87,1,3.176,2.079,6.324,3.055,9.507a2.791,2.791,0,0,1-2.517,3.387c-3.2.044-6.393.1-9.584-.02a2.839,2.839,0,0,1-2.308-3.888,17.483,17.483,0,0,1,1.177-2.116A26.741,26.741,0,0,0,67.72,6.425a48.057,48.057,0,0,0-5.946-.519A32.573,32.573,0,0,0,49.318,8.519a31.8,31.8,0,0,0-8.369,5.233c-1.8,1.571-3.957,1.16-4.9-.89A2.841,2.841,0,0,1,36.7,9.713a31.571,31.571,0,0,1,6.351-4.675A37.516,37.516,0,0,1,53.5.963,48.3,48.3,0,0,1,59.661.169,21.074,21.074,0,0,1,62.654-.01a39.767,39.767,0,0,1,16.205,3.7Z" transform="translate(-27.002 0)" fill="#885ac6"></path><path id="Path_105" data-name="Path 105" d="M108,140.7a8.569,8.569,0,0,1,8.532-8.743c5.528,0,9.109,3.766,9.094,8.886A8.812,8.812,0,1,1,108,140.7Z" transform="translate(-81.433 -99.538)" fill="#dfd2ef"></path></g><g id="Rectangle_97" data-name="Rectangle 97" transform="translate(-1601 770)" fill="#fff" stroke="#707070" stroke-width="1" opacity="0"><rect width="105" height="105" stroke="none"></rect><rect x="0.5" y="0.5" width="104" height="104" fill="none"></rect></g></g></svg>