<svg xmlns="http://www.w3.org/2000/svg" xmlns:xlink="http://www.w3.org/1999/xlink" width="104" height="104" viewBox="0 0 104 104"><defs><clipPath id="clip-path"><rect id="Rectangle_64" data-name="Rectangle 64" width="87.991" height="75.003" fill="none"></rect></clipPath></defs><g id="Group_109" data-name="Group 109" transform="translate(417 -250)"><g id="Rectangle_74" data-name="Rectangle 74" transform="translate(-417 250)" fill="#fff" stroke="#707070" stroke-width="1" opacity="0"><rect width="104" height="104" stroke="none"></rect><rect x="0.5" y="0.5" width="103" height="103" fill="none"></rect></g><g id="Group_108" data-name="Group 108" transform="translate(-409 264)"><g id="Group_90" data-name="Group 90" clip-path="url(#clip-path)"><path id="Path_271" data-name="Path 271" d="M97.13,75a37.425,37.425,0,0,1-25.11-9.647,2.207,2.207,0,0,1,2.956-3.277A33.089,33.089,0,1,0,97.13,4.413a32.776,32.776,0,0,0-20.15,6.841A33.317,33.317,0,0,0,65.27,28.535a2.206,2.206,0,1,1-4.249-1.193A37.758,37.758,0,0,1,74.29,7.756,37.154,37.154,0,0,1,97.13,0a37.5,37.5,0,1,1,0,75" transform="translate(-46.64 0)" fill="#9057cd"></path><path id="Path_272" data-name="Path 272" d="M221.844,115a2.2,2.2,0,0,1-1.044-.264l-18.772-10.106V84.946a2.206,2.206,0,1,1,4.413,0V102l16.451,8.856a2.207,2.207,0,0,1-1.048,4.15" transform="translate(-154.624 -63.325)" fill="#421c67"></path><path id="Path_273" data-name="Path 273" d="M28.033,154.835H2.207a2.207,2.207,0,0,1,0-4.413H28.033a2.207,2.207,0,0,1,0,4.413" transform="translate(0 -115.127)" fill="#421c67"></path><path id="Path_274" data-name="Path 274" d="M317.914,154.837a2.256,2.256,0,0,1-.431-.042,2.44,2.44,0,0,1-.411-.126,2.309,2.309,0,0,1-.381-.2,2.238,2.238,0,0,1-.337-.275,2.2,2.2,0,0,1-.6-1.129,2.129,2.129,0,0,1,0-.863,2.338,2.338,0,0,1,.125-.413,2.276,2.276,0,0,1,.477-.716,2.128,2.128,0,0,1,.337-.275,2.308,2.308,0,0,1,.381-.2,2.423,2.423,0,0,1,.411-.126,2.233,2.233,0,0,1,.863,0,2.447,2.447,0,0,1,.413.126,2.48,2.48,0,0,1,.381.2,2.205,2.205,0,0,1,.61.61,2.469,2.469,0,0,1,.2.381,2.318,2.318,0,0,1,.126.413,2.221,2.221,0,0,1,0,.863,2.306,2.306,0,0,1-.126.413,2.468,2.468,0,0,1-.2.381,2.2,2.2,0,0,1-.275.335,2.331,2.331,0,0,1-.335.275,2.258,2.258,0,0,1-.794.329,2.24,2.24,0,0,1-.431.042" transform="translate(-241.629 -115.128)" fill="#421c67"></path><path id="Path_275" data-name="Path 275" d="M210.781,263.483a2.221,2.221,0,0,1-.431-.044,2.208,2.208,0,0,1-1.4-.939,2.044,2.044,0,0,1-.2-.381,2.113,2.113,0,0,1-.126-.411,2.223,2.223,0,0,1,0-.863,2.133,2.133,0,0,1,.126-.413,2.182,2.182,0,0,1,.477-.716,2.226,2.226,0,0,1,1.129-.6,2.211,2.211,0,0,1,.861,0,2.251,2.251,0,0,1,.794.329,2.112,2.112,0,0,1,.335.275,2.212,2.212,0,0,1,.275.335,2.178,2.178,0,0,1,.2.381,2.149,2.149,0,0,1,.126.413,2.235,2.235,0,0,1,0,.863,2.129,2.129,0,0,1-.126.411,2.043,2.043,0,0,1-.2.381,2.225,2.225,0,0,1-1.4.939,2.2,2.2,0,0,1-.429.044" transform="translate(-159.634 -198.282)" fill="#421c67"></path><path id="Path_276" data-name="Path 276" d="M83.429,226.178H71.483a2.207,2.207,0,1,1,0-4.413H83.429a2.207,2.207,0,1,1,0,4.413" transform="translate(-53.021 -169.73)" fill="#421c67"></path><path id="Path_277" data-name="Path 277" d="M27.781,83.5H13.146a2.207,2.207,0,1,1,0-4.413H27.781a2.207,2.207,0,1,1,0,4.413" transform="translate(-8.372 -60.526)" fill="#9057cd"></path><path id="Path_278" data-name="Path 278" d="M24.8,226.178H21.741a2.207,2.207,0,1,1,0-4.413H24.8a2.207,2.207,0,1,1,0,4.413" transform="translate(-14.951 -169.73)" fill="#421c67"></path></g></g></g></svg>