<svg xmlns="http://www.w3.org/2000/svg" xmlns:xlink="http://www.w3.org/1999/xlink" width="105" height="105" viewBox="0 0 105 105"><defs><clipPath id="clip-path"><rect id="Rectangle_67" data-name="Rectangle 67" width="71.418" height="71.379" fill="none"></rect></clipPath></defs><g id="Group_154" data-name="Group 154" transform="translate(1811 -790)"><g id="Rectangle_95" data-name="Rectangle 95" transform="translate(-1811 790)" fill="#fff" stroke="#707070" stroke-width="1" opacity="0"><rect width="105" height="105" stroke="none"></rect><rect x="0.5" y="0.5" width="104" height="104" fill="none"></rect></g><g id="Group_151" data-name="Group 151" transform="translate(-1794 807)"><g id="Group_94" data-name="Group 94" clip-path="url(#clip-path)"><path id="Path_263" data-name="Path 263" d="M71.45,212.664v31.249H.039V212.044c1.969,1.239,3.817,2.4,5.66,3.564,3.214,2.036,6.418,4.088,9.638,6.116q6.681,4.209,13.377,8.394c2.15,1.351,4.3,2.7,6.436,4.076a.829.829,0,0,0,1.043.006c.7-.457,1.422-.872,2.133-1.31q5.192-3.2,10.383-6.407,5.912-3.637,11.832-7.259,4.025-2.464,8.059-4.911c.939-.568,1.9-1.1,2.85-1.648" transform="translate(-0.032 -172.534)" fill="#885ac6"></path><path id="Path_264" data-name="Path 264" d="M362.107,143.021c-.913.517-1.831,1.025-2.738,1.553-.692.4-1.37.83-2.113,1.282V133.139l4.851,3.744Z" transform="translate(-290.688 -108.331)" fill="#885ac6"></path><path id="Path_265" data-name="Path 265" d="M48.755,39.781V0h53.268V.686q0,19.349.012,38.7a1.1,1.1,0,0,1-.573,1.1c-3.134,1.9-6.25,3.826-9.373,5.743Q86.86,49.439,81.63,52.646c-1.973,1.213-3.937,2.442-5.922,3.636A.819.819,0,0,1,75,56.264q-6.438-4.026-12.853-8.09Q55.663,44.086,49.18,40c-.131-.083-.275-.143-.425-.22M66.567,33.31a20.566,20.566,0,0,0,.817,2.9,8.044,8.044,0,0,0,5.257,4.463c.391.121.539.275.522.7-.037.874-.011,1.75-.011,2.628h4.184c0-.938-.025-1.842.019-2.742a.742.742,0,0,1,.413-.545A8.471,8.471,0,0,0,82,38.048a6.962,6.962,0,0,0,1.358-7.381A8.428,8.428,0,0,0,76.151,25.6a10.2,10.2,0,0,1-2.974-.564,3.418,3.418,0,0,1-2.155-3.928c.825-2.851,4.715-3.431,6.933-2.053a3.753,3.753,0,0,1,1.791,2.8h4.147a2.639,2.639,0,0,0,0-.345,10.858,10.858,0,0,0-.183-1.14,8.024,8.024,0,0,0-5.8-5.858c-.525-.167-.587-.353-.579-.785.018-.853.005-1.707.005-2.577H73.152c0,.932-.01,1.833,0,2.734.005.342-.07.492-.455.61a8.444,8.444,0,0,0-4.53,3.064,6.88,6.88,0,0,0-1.377,5.463,8.381,8.381,0,0,0,8.236,6.668,5.508,5.508,0,0,1,3.363,1.053,3.112,3.112,0,0,1,.438,4.629,4.989,4.989,0,0,1-3.962,1.449,4.133,4.133,0,0,1-4-3.5Z" transform="translate(-39.67 -0.001)" fill="#dfd2ef"></path><path id="Path_266" data-name="Path 266" d="M4.871,133.266v12.165c-.386-.195-.729-.335-1.037-.53-1.142-.721-2.286-1.442-3.4-2.208a1.088,1.088,0,0,1-.41-.757c-.038-1.532-.029-3.066-.007-4.6a.937.937,0,0,1,.249-.654c1.4-1.116,2.83-2.2,4.255-3.289a1.394,1.394,0,0,1,.348-.128" transform="translate(0 -108.434)" fill="#885ac6"></path></g></g></g></svg>