<svg xmlns="http://www.w3.org/2000/svg" xmlns:xlink="http://www.w3.org/1999/xlink" width="104" height="104" viewBox="0 0 104 104"><defs><clipPath id="clip-path"><rect id="Rectangle_63" data-name="Rectangle 63" width="85.868" height="85.965" fill="none"></rect></clipPath></defs><g id="Group_117" data-name="Group 117" transform="translate(369 -723)"><g id="Rectangle_74" data-name="Rectangle 74" transform="translate(-369 723)" fill="#fff" stroke="#707070" stroke-width="1" opacity="0"><rect width="104" height="104" stroke="none"></rect><rect x="0.5" y="0.5" width="103" height="103" fill="none"></rect></g><g id="Group_116" data-name="Group 116" transform="translate(-360 732)"><g id="Group_89" data-name="Group 89" clip-path="url(#clip-path)"><path id="Path_268" data-name="Path 268" d="M85.863,41.828H85.79l-.016-.113a10.884,10.884,0,0,0-2.11-4.731l-.024-.032a9.015,9.015,0,0,0-.581-.745c-.387-.433-.769-.868-1.151-1.3l-.073-.083C80.9,33.755,79.93,32.656,78.93,31.6a9.609,9.609,0,0,1-2.613-6.516q-.036-.778-.065-1.562a47.01,47.01,0,0,0-.438-5.559,8.839,8.839,0,0,0-7.876-7.906,38.031,38.031,0,0,0-6.083-.444h-.3a11.364,11.364,0,0,1-8.524-3.769A29.446,29.446,0,0,0,48.46,1.906,9.656,9.656,0,0,0,42.96,0a9.654,9.654,0,0,0-5.422,1.839,12.652,12.652,0,0,0-1.374,1.03c-.282.247-.562.495-.847.742l-.059.054c-1.124.984-2.285,2-3.382,3.062a10.082,10.082,0,0,1-6.938,2.833l-.965.035a48.6,48.6,0,0,0-6,.454c-4.347.691-6.9,3.11-7.809,7.392a37.028,37.028,0,0,0-.57,7.11,10.917,10.917,0,0,1-3.409,7.906A36.927,36.927,0,0,0,1.914,37.4,10.127,10.127,0,0,0,.089,41.712l-.016.116H0l0,1.228.008,1.075h.07l.019.116A10.936,10.936,0,0,0,2.2,48.976l.043.054c.164.226.352.484.565.723.384.433.766.866,1.148,1.3l.142.161c.917,1.038,1.863,2.113,2.839,3.14a9.6,9.6,0,0,1,2.61,6.516c.027.521.048,1.04.067,1.565a46.28,46.28,0,0,0,.438,5.556A8.834,8.834,0,0,0,17.933,75.9a37.807,37.807,0,0,0,6.081.444h.3a11.356,11.356,0,0,1,8.522,3.772,29.4,29.4,0,0,0,4.578,3.938,9.631,9.631,0,0,0,5.5,1.911,9.671,9.671,0,0,0,5.419-1.841,13.378,13.378,0,0,0,1.376-1.032c.28-.247.565-.495.847-.742l.075-.067C51.747,81.3,52.9,80.293,54,79.234A10.08,10.08,0,0,1,60.933,76.4l1.013-.035a48.428,48.428,0,0,0,5.949-.452c4.349-.694,6.9-3.113,7.806-7.4a36.557,36.557,0,0,0,.573-7.121,10.917,10.917,0,0,1,3.406-7.9,36.518,36.518,0,0,0,4.277-4.938,10.094,10.094,0,0,0,1.825-4.317l.016-.116h.07ZM80.3,46.191a30.183,30.183,0,0,1-3.729,4.263A15.358,15.358,0,0,0,71.884,61.9a37.779,37.779,0,0,1-.352,5.272c-.4,2.8-1.648,4.056-4.47,4.47a45.014,45.014,0,0,1-4.715.352c-.769.032-1.524.062-2.266.11a13.73,13.73,0,0,0-8.637,3.578c-.47.427-.941.866-1.4,1.29l-.132.124a38.5,38.5,0,0,1-3.637,3.14,5.773,5.773,0,0,1-3.363,1.358,5.807,5.807,0,0,1-3.374-1.368,30.2,30.2,0,0,1-3.933-3.468,15.471,15.471,0,0,0-11.618-4.785H23.6a34.523,34.523,0,0,1-4.841-.344c-2.737-.392-4.019-1.675-4.425-4.43a45.584,45.584,0,0,1-.368-4.887l-.008-.188c-.024-.621-.048-1.261-.086-1.9a13.792,13.792,0,0,0-3.761-8.855l-.1-.1C8.925,50.1,7.688,48.772,6.548,47.433c-1.406-1.656-2.078-2.917-2.177-4.083V42.93a5.549,5.549,0,0,1,1.207-3.161A30.327,30.327,0,0,1,9.3,35.505a15.358,15.358,0,0,0,4.683-11.441,38.089,38.089,0,0,1,.352-5.272c.4-2.8,1.651-4.056,4.473-4.47a45.189,45.189,0,0,1,4.626-.349l.089,0c.766-.032,1.519-.062,2.266-.108a13.725,13.725,0,0,0,8.634-3.578c.4-.358.788-.723,1.172-1.083l.323-.3a38.754,38.754,0,0,1,3.672-3.172,5.811,5.811,0,0,1,3.36-1.358,5.808,5.808,0,0,1,3.376,1.371,29.91,29.91,0,0,1,3.93,3.465,15.477,15.477,0,0,0,11.621,4.788l.39,0a34.881,34.881,0,0,1,4.844.344c2.734.392,4.016,1.677,4.422,4.43a44.85,44.85,0,0,1,.368,4.884l.005.11c.024.648.051,1.317.091,1.976a13.8,13.8,0,0,0,3.755,8.858l.032.032c1.11,1.188,2.371,2.532,3.532,3.9,1.409,1.656,2.078,2.917,2.177,4.083l0,.419a5.55,5.55,0,0,1-1.2,3.161" transform="translate(0 0)" fill="#9057cd"></path><path id="Path_269" data-name="Path 269" d="M123.2,109.969a2.645,2.645,0,0,0-1.073-.234,2.7,2.7,0,0,0-2.172,1.2q-.044.056-.089.121l-.075.1c-.032.051-.073.1-.1.142-2.347,2.841-5.124,4.277-8.261,4.277a11.942,11.942,0,0,1-2.567-.293,10.062,10.062,0,0,1-8.22-8.177c-.965-4.4.452-8.134,4.218-11.094l.03-.022a2.749,2.749,0,0,0,1.14-3.341,2.525,2.525,0,0,0-2.433-1.6,4.184,4.184,0,0,0-.761.073,19.115,19.115,0,0,0-15.849,20.4,18.649,18.649,0,0,0,2.882,8.551,19.192,19.192,0,0,0,15.944,8.839H106a18.9,18.9,0,0,0,9.078-2.339,19.112,19.112,0,0,0,6.793-6.288,18.486,18.486,0,0,0,2.261-4.839c.258-.844.43-1.712.57-2.409a2.617,2.617,0,0,0-1.5-3.073m-3.333,6.446a7.075,7.075,0,0,1-1.532,3.062,16.218,16.218,0,0,1-5.4,4.183,15.69,15.69,0,0,1-6.519,1.742l-.245,0a15.944,15.944,0,0,1-9.417-3.016c-.234-.172-.47-.352-.7-.538a15.542,15.542,0,0,1-2.468-2.54,15.08,15.08,0,0,1-2.806-6.094A15.577,15.577,0,0,1,99.65,95.749l.441-.194-.274.392c-5.1,7.288-2.871,15,1.358,19.083a14.047,14.047,0,0,0,1.285,1.1c.18.134.363.269.554.4.094.065.188.126.282.188.188.124.382.245.581.36a14.377,14.377,0,0,0,7.269,1.984,14.184,14.184,0,0,0,3.489-.438c.177-.046.36-.094.54-.145s.355-.11.535-.169a15.022,15.022,0,0,0,1.866-.78c.177-.089.352-.18.53-.274s.349-.2.521-.3c.36-.218.71-.444,1.035-.675l.272-.191Z" transform="translate(-63.561 -66.574)" fill="#421c67"></path><path id="Path_270" data-name="Path 270" d="M185.614,93.968a3.1,3.1,0,0,0-2.965-2.258l-.21,0a1.934,1.934,0,0,1-2.153-1.64,3.086,3.086,0,0,0-3.043-2.212H177.2a3.092,3.092,0,0,0-3.1,2.255,1.854,1.854,0,0,1-2.116,1.6c-.027,0-.062,0-.1,0l-.159,0a3.067,3.067,0,0,0-2.944,2.245,2.992,2.992,0,0,0,1.081,3.535,2.209,2.209,0,0,1,.922,2.949,3.047,3.047,0,0,0,.468,2.739,3.191,3.191,0,0,0,2.554,1.32,2.961,2.961,0,0,0,1.629-.489,3.355,3.355,0,0,1,1.777-.659,3.092,3.092,0,0,1,1.71.648,2.883,2.883,0,0,0,1.634.513,3.344,3.344,0,0,0,3.175-3.382V101.1a2.142,2.142,0,0,0-.137-.86,1.948,1.948,0,0,1,.884-2.688,3.091,3.091,0,0,0,1.129-3.583m-3.64,1.731-1.667,1.852a1.037,1.037,0,0,0-.253.876l.368,2.091a.483.483,0,0,1-.2.479.473.473,0,0,1-.288.094.493.493,0,0,1-.226-.056l-2.005-1.048a1.034,1.034,0,0,0-.911-.03l-2.145.97a.49.49,0,0,1-.683-.53l.366-2.067a1.037,1.037,0,0,0-.3-.93L172.4,95.817a.49.49,0,0,1,.247-.833l2.272-.427a1.034,1.034,0,0,0,.723-.519l1.108-2.008a.491.491,0,0,1,.417-.253.477.477,0,0,1,.427.231l1.226,2a1.055,1.055,0,0,0,.7.478l2.183.4a.49.49,0,0,1,.274.809" transform="translate(-123.28 -64.242)" fill="#421c67"></path></g></g></g></svg>