<svg xmlns="http://www.w3.org/2000/svg" xmlns:xlink="http://www.w3.org/1999/xlink" width="105" height="105" viewBox="0 0 105 105"><defs><clipPath id="clip-path"><rect id="Rectangle_70" data-name="Rectangle 70" width="84.416" height="80.267" fill="none"></rect></clipPath></defs><g id="Group_159" data-name="Group 159" transform="translate(1610 -974)"><g id="Group_156" data-name="Group 156" transform="translate(175 204)"><g id="Rectangle_96" data-name="Rectangle 96" transform="translate(-1785 770)" fill="#fff" stroke="#707070" stroke-width="1" opacity="0"><rect width="105" height="105" stroke="none"></rect><rect x="0.5" y="0.5" width="104" height="104" fill="none"></rect></g><g id="Group_153" data-name="Group 153" transform="translate(-1775 782)"><g id="Group_100" data-name="Group 100" clip-path="url(#clip-path)"><path id="Path_275" data-name="Path 275" d="M68.476,42.015c-9.711,0-15.943,7.463-15.943,19.126a27.166,27.166,0,0,0,.768,6.611c.56-.057,1.119-.108,1.677-.167a13.708,13.708,0,0,0,6.884-2.674q.423-.316.83-.67a25.889,25.889,0,0,1-.175-3.1c0-6.544,2.019-10.264,5.679-10.443a8.561,8.561,0,0,1,.672-1.543,10.711,10.711,0,0,1,1.49-2.062A18.62,18.62,0,0,0,73,43.434c.127-.237.244-.474.354-.713a16.5,16.5,0,0,0-4.88-.706m5.932-6.281c0-.033-.007-.069-.012-.105A13.539,13.539,0,0,0,71.463,28.4c-.935-1.163-1.923-2.294-2.751-3.531a4.913,4.913,0,0,1-.476-.907,11.893,11.893,0,0,1-.56-3.873.232.232,0,0,0,0-.041c-.014-.287-.031-.572-.06-.854a13.141,13.141,0,0,0-3.133-7.41,14.5,14.5,0,0,0-3.16-2.8c-.1-.062-.191-.124-.289-.187A14.912,14.912,0,0,0,53.32,6.678c-.144,0-.289-.01-.438-.019h-.007a7.5,7.5,0,0,1-2.968-.782,24.918,24.918,0,0,1-3.712-2.746A14.083,14.083,0,0,0,42.243.864.3.3,0,0,0,42.2.849a14.725,14.725,0,0,0-6.473-.78,14,14,0,0,0-2.7.507c-.11.033-.218.067-.325.1l-.045.014c-.079.026-.158.053-.237.081s-.158.055-.237.084q-.549.208-1.074.457l-.263.129-.242.122-.141.077c-.072.038-.141.079-.213.12s-.172.1-.258.148A15.689,15.689,0,0,0,27.1,4.145a9.8,9.8,0,0,1-1.043.878A8.693,8.693,0,0,1,23.2,6.382a10.932,10.932,0,0,1-2.37.364,18.8,18.8,0,0,0-4.456.718c-.373.115-.737.242-1.091.385l-.139.057A12.95,12.95,0,0,0,10.2,11.6c-.144.165-.282.335-.416.5-.06.077-.12.155-.175.232-.117.155-.23.313-.342.474-.053.079-.108.155-.158.234s-.105.158-.153.237c-.031.048-.06.1-.089.144-.057.089-.11.177-.163.268-.155.27-.3.543-.44.823-.038.072-.072.146-.108.22-.045.093-.089.187-.129.282q-.05.108-.093.215c-.072.165-.139.335-.2.5s-.124.34-.184.509a17.716,17.716,0,0,0-.856,4.832c-.024.529-.031,1.062-.1,1.586a5.859,5.859,0,0,1-.141.7C5.954,25.238,4.61,26.6,3.371,28.032A13.8,13.8,0,0,0,.113,39.054a14.309,14.309,0,0,0,4.373,8.525A7.9,7.9,0,0,1,5.421,48.7,6.379,6.379,0,0,1,6.5,51.358c.246,1.583.294,3.2.574,4.777a13.606,13.606,0,0,0,5.734,8.953,14.043,14.043,0,0,0,5.652,2.385.009.009,0,0,0,.007,0,17.9,17.9,0,0,0,2.526.285c.242.01.483.017.727.019a6.649,6.649,0,0,1,2.892.636l.014.007a5.813,5.813,0,0,1,.844.514c.885.648,1.713,1.375,2.569,2.062.352.285.708.562,1.074.825a13.448,13.448,0,0,0,7.327,2.583,14.137,14.137,0,0,0,7.7-1.8,1.2,1.2,0,0,1,.124-.062l.014-.007a16.638,16.638,0,0,0,3.15-2.418,8.534,8.534,0,0,1,1.847-1.366,6.409,6.409,0,0,1,1.134-.483c.163-.05.33-.1.5-.136a31.841,31.841,0,0,1-.737-6.989c0-13.393,7.154-21.961,18.306-21.961a18.94,18.94,0,0,1,5.719.844,14.171,14.171,0,0,0,.213-4.291m-48.55-5.813a4.063,4.063,0,0,1,4.184-4.188q.3.014.574.05c.062,0,.122.014.182.024.093.014.187.031.277.05.055.01.11.022.163.036a1.442,1.442,0,0,1,.146.036,1.265,1.265,0,0,1,.136.036c.06.017.117.036.175.055s.136.045.2.072a3.954,3.954,0,0,1,.574.27c.055.031.11.062.165.1h0c.055.036.11.072.163.112s.1.067.141.1c.062.048.12.1.177.151.038.033.077.069.112.105a3.028,3.028,0,0,1,.275.306,2.9,2.9,0,0,1,.179.244c.041.06.081.122.117.187s.057.1.081.148a.021.021,0,0,1,.007.014c.029.05.053.1.077.155s.045.1.069.153c0,.014.012.029.017.043.017.045.036.093.053.141s.041.117.06.177.036.12.053.182a3.778,3.778,0,0,1,.084.378c.012.065.024.129.033.2v.007c.007.043.014.086.019.129,0,.024,0,.048.007.074.007.05.012.1.014.153s.01.117.014.177,0,.132.007.2a4.111,4.111,0,0,1-.014.488c0,.053-.01.108-.019.163s-.017.12-.026.179a0,0,0,0,0,0,0,3.832,3.832,0,0,1-.141.56c-.019.062-.041.12-.065.179s-.045.115-.072.172-.05.112-.079.17-.055.108-.084.16c0,0,0,0,0,0-.029.053-.06.105-.091.155s-.065.1-.1.153-.069.1-.105.148c-.072.1-.151.189-.232.28-.041.043-.081.089-.124.132s-.057.057-.086.084a2.294,2.294,0,0,1-.179.163c-.043.038-.086.074-.132.11a4.456,4.456,0,0,1-.928.569c-.043.022-.086.041-.132.06q-.1.043-.2.079c-.055.022-.112.043-.17.06s-.093.031-.141.045a1.961,1.961,0,0,1-.2.055c-.057.014-.115.029-.172.041a3.46,3.46,0,0,1-.344.06c-.062.01-.124.017-.184.022s-.117.01-.177.012a.158.158,0,0,1-.033,0c-.057,0-.115,0-.17,0s-.136,0-.206-.007a2.083,2.083,0,0,1-.21-.019c-.057-.007-.115-.014-.17-.024s-.093-.017-.141-.026-.086-.019-.127-.026c-.062-.017-.124-.031-.184-.05s-.132-.038-.2-.062l-.155-.057c-.038-.014-.077-.031-.115-.048l-.067-.029q-.075-.032-.151-.072c-.06-.029-.117-.06-.177-.093-.1-.057-.2-.117-.3-.182-.05-.033-.1-.067-.151-.105a4.192,4.192,0,0,1-.514-.431c-.048-.045-.1-.093-.141-.144a.019.019,0,0,1-.01-.01.064.064,0,0,1-.017-.019,4.447,4.447,0,0,1-.344-.419c-.036-.05-.072-.1-.105-.153s-.069-.105-.1-.16-.065-.108-.093-.163-.06-.11-.086-.167-.045-.093-.065-.141c-.036-.081-.069-.163-.1-.244-.017-.043-.031-.088-.045-.134s-.033-.108-.048-.16-.029-.105-.041-.16-.024-.11-.033-.167a3.546,3.546,0,0,1-.041-.916m8.492,14.244q-1.683,1.69-3.373,3.377a2.949,2.949,0,0,1-3.636.737,2.81,2.81,0,0,1-1.478-2.665,2.332,2.332,0,0,1,.89-1.937q1.069-1.069,2.136-2.134,2.135-2.135,4.274-4.265c.395-.395.787-.787,1.182-1.179q1.546-1.546,3.088-3.09,1.31-1.313,2.619-2.629v0q1.887-1.894,3.763-3.8a2.876,2.876,0,1,1,4.042,4.09q-1.582,1.568-3.162,3.141s0,0-.007,0c-.194.194-.388.385-.579.579,0,0-.007.007-.01.01-.1.1-.2.2-.3.3q-1.877,1.877-3.751,3.755-2.845,2.852-5.7,5.707M44.52,48.631a4.254,4.254,0,0,1-4.332-4.349,4.517,4.517,0,0,1,.022-.572c.012-.105.026-.208.045-.311,0-.024.01-.048.012-.072.026-.132.06-.258.1-.385a4.039,4.039,0,0,1,.33-.782,1.486,1.486,0,0,1,.077-.134,4.051,4.051,0,0,1,.337-.483c.041-.05.084-.1.127-.148a3.73,3.73,0,0,1,.273-.277c.048-.045.1-.089.146-.129s.11-.091.167-.134c.089-.067.182-.132.277-.191l.057-.036q.068-.043.136-.079c.055-.033.112-.062.172-.091a3.133,3.133,0,0,1,.356-.153c.06-.024.122-.045.184-.065s.124-.038.189-.055.129-.033.194-.045.129-.026.194-.036c.081-.014.163-.024.246-.031.045,0,.091-.007.136-.01s.112-.007.17-.007h0c.065,0,.132,0,.2,0,.206.007.4.024.593.048.086.01.17.022.254.036s.16.026.237.043a.292.292,0,0,1,.041.007c.081.017.16.036.239.057s.165.043.244.069c.153.048.3.1.443.16.084.036.167.074.246.115l.184.1c.067.038.129.077.194.12s.117.079.175.122c0,0,.007,0,.01.007.06.043.115.089.172.136s.086.077.129.117a3.26,3.26,0,0,1,.328.352c.074.093.146.191.21.292a2.866,2.866,0,0,1,.163.275c.026.05.053.1.077.151s.043.091.065.139.041.1.057.144c.026.065.05.129.072.2a4.886,4.886,0,0,1,.189.785c.007.041.014.084.019.127s.014.112.019.17.014.136.019.206.012.17.014.256a4.3,4.3,0,0,1-4.207,4.344" transform="translate(0 0)" fill="#dfd2ef"></path><path id="Path_276" data-name="Path 276" d="M240.444,176.355a16.5,16.5,0,0,0-4.88-.706c-9.711,0-15.943,7.463-15.943,19.126a27.166,27.166,0,0,0,.768,6.611c1.947,7.781,7.482,12.515,15.175,12.515,9.678,0,15.94-7.494,15.94-19.126,0-9.568-4.193-16.311-11.061-18.421m-4.88,28.871c-3.2,0-5.2-2.6-5.784-7.351a25.891,25.891,0,0,1-.175-3.1c0-6.544,2.019-10.264,5.679-10.443.091,0,.187-.007.28-.007,3.8,0,5.956,3.772,5.956,10.482s-2.122,10.419-5.956,10.419" transform="translate(-167.089 -133.634)" fill="#885ac6"></path></g></g></g></g></svg>