<svg xmlns="http://www.w3.org/2000/svg" xmlns:xlink="http://www.w3.org/1999/xlink" width="104" height="104" viewBox="0 0 104 104"><defs><clipPath id="clip-path"><rect id="Rectangle_67" data-name="Rectangle 67" width="82.388" height="82.37" fill="none"></rect></clipPath></defs><g id="Group_121" data-name="Group 121" transform="translate(271 -831)"><g id="Rectangle_74" data-name="Rectangle 74" transform="translate(-271 831)" fill="#fff" stroke="#707070" stroke-width="1" opacity="0"><rect width="104" height="104" stroke="none"></rect><rect x="0.5" y="0.5" width="103" height="103" fill="none"></rect></g><g id="Group_120" data-name="Group 120" transform="translate(-260 841)"><g id="Group_94" data-name="Group 94" clip-path="url(#clip-path)"><path id="Path_288" data-name="Path 288" d="M82.388,41.236q0,1.784-.145,3.6A41.175,41.175,0,0,1,5.068,60.931,40.626,40.626,0,0,1,0,41.446a2.335,2.335,0,0,1,1.314-2.314,2.35,2.35,0,0,1,1.053-.263,2.292,2.292,0,0,1,1.379.491,2.5,2.5,0,0,1,.941,2.163,35,35,0,0,0,4.036,16.32C14.447,68.57,23.293,75.07,35.015,77.168a35.966,35.966,0,0,0,6.3.559,36.5,36.5,0,0,0,7.26-72.261C36.628,3.011,25.835,6,16.488,14.366c-.124.109-.249.219-.4.343l-.53.462.328.175a1.739,1.739,0,0,0,1.015.2c.053,0,.107-.006.154-.006q1.735,0,3.47,0,2.436,0,4.879.006a2.412,2.412,0,0,1,2.547,1.947,2.341,2.341,0,0,1-.512,1.891,2.4,2.4,0,0,1-1.852.817c-2.024.018-4.062.015-6.033.012-.828,0-1.669,0-2.485,0H15.122c-1.6,0-3.2.006-4.793,0a2.327,2.327,0,0,1-2.547-2.435c-.027-5.118-.027-10.284,0-15.346A2.462,2.462,0,0,1,8.527.632,2.234,2.234,0,0,1,10.175,0a2.369,2.369,0,0,1,2.266,2.479q.009,2.725,0,5.447v3.7l.423-.346q.524-.435,1.027-.855l.21-.175c.82-.689,1.595-1.337,2.405-1.953a41.058,41.058,0,0,1,58.172,8.947,40.645,40.645,0,0,1,7.707,23.985" transform="translate(0 0)" fill="#9057cd"></path><path id="Path_289" data-name="Path 289" d="M125.3,100.956a7.516,7.516,0,0,1-5.686,8.275c-.13.033-.26.065-.391.089-1.541.251-1.633.361-1.636,1.97l0,.388c0,.228,0,.462-.012.689a2.307,2.307,0,0,1-4.612.024,19.616,19.616,0,0,1-.006-2,.773.773,0,0,0-.885-.941h-.05c-1.18.024-2.385.018-3.547.012l-.663,0a2.357,2.357,0,1,1,.015-4.68c.837-.006,1.672,0,2.506,0l3.891,0c1.157,0,2.311,0,3.467,0a2.851,2.851,0,1,0,.112-5.7c-.923-.024-1.849-.021-2.719-.015h-.257c-.763,0-1.559.006-2.334-.012a7.5,7.5,0,0,1-1.538-14.793c.027-.006.053-.012.1-.027l.065-.018a2.424,2.424,0,0,1,.533-.047c.411-.009.926-.021,1.178-.462a2.271,2.271,0,0,0,.139-1.266l-.006-.071c-.009-.148-.021-.3-.018-.438q0-.182,0-.364a3.419,3.419,0,0,1,.1-1.068,2.342,2.342,0,0,1,2.473-1.592A2.239,2.239,0,0,1,117.56,81a21.55,21.55,0,0,1,.018,2.166.857.857,0,0,0,.2.68.881.881,0,0,0,.7.213c1.216-.021,2.444-.015,3.633-.009l.574,0a2.378,2.378,0,0,1,2.675,2.311,2.219,2.219,0,0,1-.612,1.621,2.862,2.862,0,0,1-2.08.749c-1.083,0-2.166,0-3.249,0h-1.627q-2.41,0-4.817,0a2.9,2.9,0,0,0-3.148,2.784,2.716,2.716,0,0,0,.751,1.97,3.307,3.307,0,0,0,2.373.95c.757.009,1.524.006,2.266,0h.275c.825,0,1.68-.006,2.515.012a7.656,7.656,0,0,1,4.905,1.947,7.107,7.107,0,0,1,2.391,4.556" transform="translate(-74.062 -55.555)" fill="#421c67"></path></g></g></g></svg>