<svg xmlns="http://www.w3.org/2000/svg" xmlns:xlink="http://www.w3.org/1999/xlink" width="104" height="104" viewBox="0 0 104 104"><defs><clipPath id="clip-path"><rect id="Rectangle_66" data-name="Rectangle 66" width="92.428" height="75.003" fill="none"></rect></clipPath></defs><g id="Group_122" data-name="Group 122" transform="translate(391 -97)"><g id="Group_106" data-name="Group 106" transform="translate(-385 111)"><g id="Group_93" data-name="Group 93" clip-path="url(#clip-path)"><path id="Path_283" data-name="Path 283" d="M89.827,38.12h0c-.39-1.1-.723-2.013-1.044-2.878-2.32-6.236-4.671-12.606-6.694-18.085l-.669-1.815q-1.29-3.5-2.585-7A3.1,3.1,0,0,0,77.1,6.238a3.106,3.106,0,0,0-2.6.855c-.626.473-1.226.91-1.949,1.432-.177.132-.359.265-.541.4l-.352.253a27.652,27.652,0,0,1-6.1,3.688l-.477.227-.17-.5a18.637,18.637,0,0,0-35-.7l-.135.35-.373-.052a14.735,14.735,0,0,0-2.155-.154A15.03,15.03,0,0,0,12.386,24.574a14.731,14.731,0,0,0-.187,1.614l-.014.272-.1.05c-.012.007-.024.012-.033.017L12,26.554l-.059.028A64.626,64.626,0,0,0,1.406,33.236C-.116,34.418-.293,35.015.354,36.8Q6.89,54.869,13.435,72.93a2.925,2.925,0,0,0,1.687,2.008,2.812,2.812,0,0,0,2.415-.749,61.727,61.727,0,0,1,36.185-13c1.252-.043,2.509-.123,3.743-.239l.376-.038.083.25.035.109c.064.194.132.385.206.577a14.4,14.4,0,0,0,27.263-9.187c-.057-.194-.118-.385-.184-.572l-.125-.362.324-.2c.517-.317,1.063-.662,1.623-1.03.288-.189.581-.373.877-.558l.18-.116a12.472,12.472,0,0,0,4.308-3.693V44.89c-1-2.287-1.85-4.667-2.6-6.77M33.784,13.026a14.618,14.618,0,0,1,27.388,1.047l.232.718-.4.168a61.1,61.1,0,0,1-17.729,4.454c-.163.017-.364.038-.586.04-.395.026-.784.057-1.17.087h0l-.085.007c-.08,0-.161.012-.239.019l-.132.012c-.137.009-.274.021-.409.033l-.3.024-.151-.253c-.234-.395-.494-.784-.77-1.16a15.2,15.2,0,0,0-5.423-4.593l-.392-.2ZM16.767,23.558a11.036,11.036,0,0,1,10.484-7.512,10.183,10.183,0,0,1,1.1.057,10.546,10.546,0,0,1,2.2.444,11.151,11.151,0,0,1,4.641,2.866l.662.683-.943.116c-.56.069-1.106.142-1.635.215-.808.111-1.635.232-2.453.357-.834.132-1.654.269-2.438.406-3.764.669-6.108,1.276-6.737,1.448l-.035.007c-1.394.444-2.783.938-4.123,1.463-.035.014-.069.028-.1.04-.066.024-.135.05-.2.078l-.423.165-.071.028-.25.1ZM71.618,67.11a10.386,10.386,0,0,1-9.482-6.162c-.08-.172-.156-.352-.22-.527a10.293,10.293,0,0,1-.676-3.686c0-.291.009-.551.031-.815.017-.2.038-.414.069-.617a10.379,10.379,0,0,1,17.615-5.91c.149.151.291.3.428.456A10.427,10.427,0,0,1,81.576,53.8q.078.269.142.539a10.381,10.381,0,0,1-10.1,12.771m14.56-21.358c-.943.655-1.912,1.288-2.878,1.886l-.354.217-.262-.324c-.095-.118-.2-.234-.3-.35q-.379-.429-.789-.82s0-.007-.009-.009A14.4,14.4,0,0,0,57.266,55.6c-.012.154-.021.312-.026.473l-.019.414-.411.038c-1.569.144-3.211.243-4.53.324l-.038,0a72.692,72.692,0,0,0-8.464.86,65.7,65.7,0,0,0-24.824,10,2.6,2.6,0,0,1-1.4.553,1.494,1.494,0,0,1-.454-.073,2.078,2.078,0,0,1-1.2-1.439C12.887,58.3,9.577,49.134,5.491,37.919A2.154,2.154,0,0,1,6.349,35.1a59.349,59.349,0,0,1,8.128-4.816c.787-.385,1.562-.744,2.3-1.066a58.777,58.777,0,0,1,12.71-3.9c.851-.158,1.7-.3,2.538-.418,1.127-.165,2.283-.3,3.429-.4.617-.054,1.241-.1,1.862-.156l.229-.019c.3-.021.584-.045.872-.066l.976-.076c.215-.017.43-.033.645-.052A76.9,76.9,0,0,0,52.685,22.4a68.576,68.576,0,0,0,11.02-3.743c.834-.366,1.661-.749,2.46-1.141a64.563,64.563,0,0,0,7.181-4.1c.142-.1.288-.189.435-.279l.87-.548.506.21A1.784,1.784,0,0,1,76.2,14.113l.021.071a.305.305,0,0,0,.017.05q2.336,6.295,4.669,12.611l3.043,8.237c.985,2.661,2,5.411,3.022,8.1a1.974,1.974,0,0,1-.8,2.571" transform="translate(0)" fill="#421c67"></path><path id="Path_284" data-name="Path 284" d="M173.129,136.953a8.8,8.8,0,0,0-6.486-2.883h-.014a8.856,8.856,0,0,0-5.865,2.214,8.8,8.8,0,1,0,12.365.669m-3.471,8.986a4.364,4.364,0,0,1-1.394.945,4.236,4.236,0,0,1-1.635.328h-.04a4.425,4.425,0,0,1-4.329-4.336,4.336,4.336,0,0,1,4.3-4.343h.033a4.293,4.293,0,0,1,4.352,4.241,4.432,4.432,0,0,1-1.283,3.164" transform="translate(-120.506 -102.391)" fill="#421c67"></path><path id="Path_285" data-name="Path 285" d="M268.781,135.45a2.243,2.243,0,0,1-2.188,2.245h-.024a2.185,2.185,0,0,1-2.209-2.183v-.019a2.192,2.192,0,0,1,2.164-2.242h.024a2.262,2.262,0,0,1,2.233,2.2" transform="translate(-201.895 -101.765)" fill="#421c67"></path><path id="Path_286" data-name="Path 286" d="M111.638,192.786a2.245,2.245,0,0,1-.681,1.588,2.172,2.172,0,0,1-1.55.612,2.228,2.228,0,0,1-2.179-2.259,2.187,2.187,0,0,1,2.214-2.167h.028a2.159,2.159,0,0,1,2.167,2.226" transform="translate(-81.892 -145.533)" fill="#421c67"></path><path id="Path_287" data-name="Path 287" d="M104.468,13.09l-3.679,1.7-.232-.718a14.618,14.618,0,0,0-27.388-1.047L73,13.433l.392.2a15.2,15.2,0,0,1,5.423,4.593c.276.376.536.766.77,1.16l.151.253.3-.024c.135-.012.272-.024.409-.033-1.453.137-5.2.517-5.2.517l-.662-.683a11.151,11.151,0,0,0-4.641-2.866,10.546,10.546,0,0,0-2.2-.444,10.183,10.183,0,0,0-1.1-.057,11.036,11.036,0,0,0-10.484,7.512l-.324.962.25-.1c-1.7.69-3.8,1.7-4.508,2.039l.014-.272a14.732,14.732,0,0,1,.187-1.614A15.03,15.03,0,0,1,66.636,12.029a14.735,14.735,0,0,1,2.155.154l.373.052.135-.35a18.637,18.637,0,0,1,35,.7Z" transform="translate(-39.385)" fill="#9057cd"></path></g></g><g id="Rectangle_75" data-name="Rectangle 75" transform="translate(-391 97)" fill="#fff" stroke="#707070" stroke-width="1" opacity="0"><rect width="104" height="104" stroke="none"></rect><rect x="0.5" y="0.5" width="103" height="103" fill="none"></rect></g></g></svg>