<svg xmlns="http://www.w3.org/2000/svg" xmlns:xlink="http://www.w3.org/1999/xlink" width="105" height="105" viewBox="0 0 105 105"><defs><clipPath id="clip-path"><rect id="Rectangle_68" data-name="Rectangle 68" width="71.592" height="69.112" fill="#885ac6"></rect></clipPath></defs><g id="Group_158" data-name="Group 158" transform="translate(1767 -763)"><g id="Group_155" data-name="Group 155" transform="translate(110 -7)"><g id="Rectangle_95" data-name="Rectangle 95" transform="translate(-1877 770)" fill="#fff" stroke="#707070" stroke-width="1" opacity="0"><rect width="105" height="105" stroke="none"></rect><rect x="0.5" y="0.5" width="104" height="104" fill="none"></rect></g><g id="Group_152" data-name="Group 152" transform="translate(-1860 788)"><g id="Group_96" data-name="Group 96" clip-path="url(#clip-path)"><path id="Path_267" data-name="Path 267" d="M30.5,52.949v16.1C14.847,67.523,1.769,54.161.2,38.4A34.215,34.215,0,0,1,8.488,11.771,34.159,34.159,0,0,1,30.491,0V16.209a18.614,18.614,0,0,0-12.283,9.4,17.892,17.892,0,0,0-2.291,9.478A19.031,19.031,0,0,0,30.5,52.949" transform="translate(0)" fill="#885ac6"></path><path id="Path_268" data-name="Path 268" d="M274.263,109.858,262.7,98.271c-.071-.071-.135-.151-.2-.228a21.427,21.427,0,0,0,1.245-5.5,18.367,18.367,0,0,0-1.258-8.517c-.017-.047-.008-.111-.037-.145-.946-1.123-.334-1.837.534-2.681,3.306-3.217,6.548-6.5,9.795-9.777.461-.465.668-.471,1.067.105a34.177,34.177,0,0,1,5.065,11.525A26.1,26.1,0,0,1,279.721,90c-.043,1.357.1,2.727-.027,4.074a29.734,29.734,0,0,1-1.906,8.628c-.94,2.264-2.092,4.44-3.157,6.652a3.791,3.791,0,0,1-.367.5" transform="translate(-208.157 -56.485)" fill="#dfd2ef"></path><path id="Path_269" data-name="Path 269" d="M136.352,121.412a11.92,11.92,0,1,1-10.785-11.79,11.868,11.868,0,0,1,10.785,11.79m-13.073,5.912a8.885,8.885,0,0,0,.012,1.286,1.053,1.053,0,0,0,1.04,1,1.09,1.09,0,0,0,1.1-1.025c.046-.274-.061-.584.022-.837a.91.91,0,0,1,.489-.556,3.474,3.474,0,0,0,2.713-3.338,3.287,3.287,0,0,0-2.545-3.291,13.639,13.639,0,0,0-2.1-.16,1.343,1.343,0,1,1-.024-2.62c.947-.007,1.895,0,2.842,0a1.082,1.082,0,1,0,.024-2.149c-.454-.018-.909,0-1.416,0,0-.44-.016-.819,0-1.2.035-.678-.447-.942-.951-1.1-.519-.158-.88.194-1.061.642a2.361,2.361,0,0,0-.134.954.727.727,0,0,1-.629.881,3.432,3.432,0,0,0-2.433,3.242,3.212,3.212,0,0,0,2.182,3.171,11.863,11.863,0,0,0,2.666.318,1.465,1.465,0,0,1,1.435,1.149,1.123,1.123,0,0,1-1.062,1.3c-1.148.153-2.321.13-3.483.175a1.25,1.25,0,0,0-1.146.98,1.334,1.334,0,0,0,1.065,1.169c.432.029.867.006,1.4.006" transform="translate(-89.405 -87.069)" fill="#885ac6"></path><path id="Path_270" data-name="Path 270" d="M190.634,257.215V241.121a19.213,19.213,0,0,0,8.139-4.242l11.408,11.409c-1.889,1.4-3.579,2.814-5.42,3.991a32.416,32.416,0,0,1-9.9,4.268c-1.353.326-2.749.471-4.126.7l-.039-.053Z" transform="translate(-151.473 -188.218)" fill="#885ac6"></path><path id="Path_271" data-name="Path 271" d="M190.571.278a34.373,34.373,0,0,1,18.067,7.871l-11.291,11.3c-1.188-.618-2.41-1.3-3.673-1.893a15.274,15.274,0,0,0-2.5-.9c-.422-.114-.612-.245-.611-.688.007-5.177,0-10.353,0-15.687" transform="translate(-151.419 -0.221)" fill="#dfd2ef"></path><path id="Path_272" data-name="Path 272" d="M190.575,335.786l.062-.023.039.053-.115.084.015-.114" transform="translate(-151.414 -266.788)" fill="#885ac6"></path></g></g></g></g></svg>