<svg xmlns="http://www.w3.org/2000/svg" width="163" height="50" viewBox="0 0 163 50" fill="none"><path d="M156.087 49.5578H6.41335C4.8363 49.5623 3.32159 48.9193 2.19991 47.7692C1.07823 46.619 0.440701 45.0551 0.426514 43.419V6.5825C0.440477 4.94621 1.07791 3.38212 2.19961 2.23177C3.32131 1.08143 4.83615 0.438267 6.41335 0.442773H156.087C157.664 0.438267 159.179 1.08143 160.3 2.23177C161.422 3.38212 162.06 4.94621 162.074 6.5825V43.4181C162.06 45.0544 161.422 46.6185 160.3 47.7688C159.179 48.9192 157.664 49.5623 156.087 49.5578V49.5578Z" fill="black"></path><path d="M156.087 50H6.41331C4.71711 50.0036 3.08882 49.3089 1.88587 48.0682C1.28872 47.4627 0.814265 46.7395 0.490404 45.941C0.166542 45.1425 -0.000192922 44.285 4.23475e-07 43.4187V6.58221C-0.000306635 5.71578 0.166373 4.85804 0.490238 4.05943C0.814103 3.26081 1.28861 2.53743 1.88587 1.93185C3.08882 0.691164 4.71711 -0.00362626 6.41331 1.42345e-05H156.087C157.783 -0.00362626 159.411 0.691164 160.614 1.93185C161.211 2.53743 161.686 3.26081 162.01 4.05943C162.334 4.85804 162.5 5.71578 162.5 6.58221V43.4178C162.5 44.2841 162.333 45.1417 162.01 45.9401C161.686 46.7386 161.211 47.4618 160.614 48.0673C159.411 49.3083 157.783 50.0034 156.087 50ZM6.41331 0.885845C4.94174 0.882738 3.52911 1.48554 2.48549 2.56193C1.96884 3.08533 1.55827 3.71062 1.27791 4.40103C0.99755 5.09144 0.853065 5.83303 0.852947 6.58221V43.4178C0.853065 44.167 0.99755 44.9086 1.27791 45.599C1.55827 46.2894 1.96884 46.9147 2.48549 47.4381C3.52911 48.5145 4.94174 49.1173 6.41331 49.1142H156.087C157.558 49.1173 158.971 48.5145 160.015 47.4381C160.531 46.9147 160.942 46.2894 161.222 45.599C161.502 44.9086 161.647 44.167 161.647 43.4178V6.58221C161.647 5.83303 161.502 5.09144 161.222 4.40103C160.942 3.71062 160.531 3.08533 160.015 2.56193C158.971 1.48554 157.558 0.882738 156.087 0.885845H6.41331Z" fill="#707070"></path><path d="M156.087 1.42682C157.412 1.42023 158.686 1.95936 159.628 2.92591C160.571 3.89246 161.106 5.20751 161.115 6.5825V43.4181C161.106 44.7931 160.571 46.1081 159.628 47.0747C158.686 48.0412 157.412 48.5803 156.087 48.5738H6.41335C5.08819 48.5801 3.81471 48.0409 2.87225 47.0744C1.9298 46.1078 1.39533 44.7929 1.38608 43.4181V6.5825C1.39533 5.20766 1.9298 3.89276 2.87225 2.92624C3.81471 1.95971 5.08819 1.42046 6.41335 1.42682H156.087M156.087 0.442773H6.41335C4.83615 0.438267 3.32131 1.08143 2.19961 2.23177C1.07791 3.38212 0.440477 4.94621 0.426514 6.5825V43.4181C0.440701 45.0542 1.07823 46.6181 2.19991 47.7683C3.32159 48.9184 4.8363 49.5614 6.41335 49.5569H156.087C157.664 49.5614 159.178 48.9184 160.3 47.7683C161.422 46.6181 162.059 45.0542 162.074 43.4181V6.5825C162.059 4.94636 161.422 3.38249 160.3 2.23234C159.178 1.08218 157.664 0.439156 156.087 0.443664V0.442773Z" fill="black"></path><path d="M57.1538 12.994C57.1738 13.4402 57.1062 13.886 56.955 14.3042C56.8038 14.7224 56.5723 15.1044 56.2744 15.4268C55.9349 15.7856 55.5269 16.0669 55.0766 16.2528C54.6263 16.4388 54.1436 16.5252 53.6593 16.5065C53.1754 16.5153 52.6947 16.4232 52.2458 16.2356C51.7969 16.048 51.3888 15.7687 51.0459 15.4145C50.3562 14.6925 49.9692 13.7172 49.9692 12.7007C49.9692 11.6842 50.3562 10.7088 51.0459 9.98686C51.3877 9.6306 51.7954 9.34967 52.2445 9.16094C52.6936 8.97222 53.1748 8.87959 53.6593 8.8886C54.1605 8.88947 54.6564 8.99449 55.1178 9.19746C55.5444 9.37301 55.9245 9.65151 56.2267 10.0099L55.6074 10.6506C55.3662 10.3637 55.0654 10.1374 54.7277 9.98854C54.3899 9.83969 54.0241 9.77226 53.6576 9.7913C53.2985 9.78646 52.9421 9.85519 52.6087 9.99353C52.2752 10.1319 51.9714 10.3371 51.7146 10.5975C51.1912 11.163 50.8989 11.9166 50.8989 12.7007C50.8989 13.4847 51.1912 14.2383 51.7146 14.8038C52.2349 15.3271 52.933 15.6167 53.6576 15.61C54.024 15.6204 54.3886 15.5538 54.7296 15.4142C55.0705 15.2745 55.3807 15.0648 55.6415 14.7976C56.0068 14.3965 56.219 13.8712 56.2386 13.3197H53.6593V12.44H57.1009C57.1386 12.622 57.1564 12.8079 57.1538 12.994V12.994Z" fill="white"></path><path d="M53.6586 16.5773C53.1659 16.5857 52.6766 16.4916 52.2195 16.3005C51.7624 16.1094 51.3469 15.8253 50.9974 15.4649C50.2947 14.7297 49.9004 13.7361 49.9004 12.7007C49.9004 11.6652 50.2947 10.6717 50.9974 9.93645C51.3459 9.57432 51.7612 9.28871 52.2184 9.09668C52.6756 8.90464 53.1654 8.81011 53.6586 8.81871C54.1688 8.81999 54.6736 8.92678 55.1435 9.13287C55.581 9.31216 55.9709 9.59738 56.2805 9.96475L56.3206 10.0143L55.605 10.755L55.5572 10.6966C55.3229 10.4167 55.03 10.1961 54.7009 10.0515C54.3719 9.90685 54.0154 9.84207 53.6586 9.8621C52.9512 9.85433 52.2696 10.1372 51.7625 10.6489C51.2526 11.2009 50.9679 11.936 50.9679 12.7007C50.9679 13.4653 51.2526 14.2004 51.7625 14.7525C52.2708 15.2622 52.9516 15.5447 53.6586 15.5393C54.0161 15.5494 54.3719 15.4844 54.7046 15.3483C55.0373 15.2122 55.3401 15.0077 55.5948 14.7472C55.9307 14.3774 56.1316 13.8976 56.1628 13.3905H53.5903V12.371H57.1548L57.1667 12.4259C57.2056 12.6122 57.2239 12.8025 57.2213 12.9932C57.2408 13.4486 57.1712 13.9033 57.0165 14.33C56.8618 14.7567 56.6254 15.1464 56.3215 15.4755C55.9755 15.8407 55.5601 16.1272 55.1017 16.3169C54.6432 16.5066 54.1518 16.5953 53.6586 16.5773V16.5773ZM53.6586 8.96029C53.1831 8.95202 52.7108 9.0432 52.27 9.22839C51.8292 9.41358 51.4289 9.68901 51.0929 10.0382C50.4162 10.7468 50.0366 11.704 50.0366 12.7016C50.0366 13.6991 50.4162 14.6563 51.0929 15.3649C51.4299 15.7122 51.8306 15.986 52.2712 16.17C52.7119 16.3541 53.1836 16.4447 53.6586 16.4366C54.1338 16.4539 54.6073 16.3684 55.049 16.1856C55.4907 16.0027 55.8909 15.7266 56.2242 15.3747C56.5155 15.0584 56.7419 14.6841 56.8898 14.2745C57.0377 13.8648 57.1041 13.4284 57.0848 12.9914C57.0867 12.8302 57.0733 12.6693 57.0448 12.5109H53.7268V13.2472H56.3121L56.3061 13.3241C56.2847 13.8919 56.0663 14.4325 55.6911 14.8463C55.4239 15.1201 55.1061 15.335 54.7568 15.4781C54.4075 15.6212 54.034 15.6895 53.6586 15.6791C52.9166 15.6849 52.2021 15.3884 51.6687 14.8534C51.1315 14.2746 50.8315 13.5024 50.8315 12.6989C50.8315 11.8954 51.1315 11.1232 51.6687 10.5444C52.2009 10.0074 52.9161 9.71029 53.6586 9.71785C54.0224 9.70104 54.3855 9.76629 54.7227 9.90914C55.0599 10.052 55.3633 10.269 55.6118 10.5453L56.1347 10.0037C55.8447 9.67794 55.4879 9.4239 55.0907 9.26031C54.6372 9.06264 54.1504 8.96063 53.6586 8.96029V8.96029Z" fill="white"></path><path d="M62.695 9.95232H59.4623V12.2604H62.3768V13.1383H59.4623V15.4463H62.695V16.3401H58.5471V9.05762H62.695V9.95232Z" fill="white"></path><path d="M58.4781 8.98688H62.7625V10.0232H59.5298V12.1896H62.4443V13.2091H59.5298V15.3756H62.7625V16.411H58.4781V8.98688ZM62.626 9.12845H58.6172V16.2694H62.626V15.5172H59.3934V13.0675H62.3113V12.3312H59.3968V9.88158H62.6294L62.626 9.12845Z" fill="white"></path><path d="M66.6083 16.3401H65.6931V9.95143H63.7109V9.0567H68.5931V9.95143H66.6092L66.6083 16.3401Z" fill="white"></path><path d="M66.6758 16.4109H65.6207V10.0223H63.6384V8.98596H68.6572V10.0223H66.6732L66.6758 16.4109ZM65.7606 16.2693H66.5393V9.88067H68.5207V9.12489H63.7749V9.87802H65.7572L65.7606 16.2693Z" fill="white"></path><path d="M72.1985 16.3401V9.05762H73.112V16.3401H72.1985Z" fill="white"></path><path d="M73.1797 16.411H72.1298V8.98688H73.1797V16.411ZM72.2662 16.2694H73.0433V9.12491H72.2696L72.2662 16.2694Z" fill="white"></path><path d="M77.2051 16.3401H76.2975V9.95143H74.3076V9.0567H79.1958V9.95143H77.2059L77.2051 16.3401Z" fill="white"></path><path d="M77.2727 16.4109H76.2287V10.0223H74.2388V8.98596H79.2635V10.0223H77.2736L77.2727 16.4109ZM76.3652 16.2693H77.1328V9.88067H79.1228V9.12489H74.371V9.87802H76.3609L76.3652 16.2693Z" fill="white"></path><path d="M88.5394 15.403C87.8433 16.1106 86.9076 16.5069 85.9332 16.5069C84.9587 16.5069 84.0231 16.1106 83.327 15.403C82.6551 14.6752 82.2801 13.7063 82.2801 12.6985C82.2801 11.6907 82.6551 10.7218 83.327 9.99401C84.0216 9.2866 84.9564 8.89081 85.9297 8.89197C86.903 8.89313 87.8369 9.29116 88.53 10.0002C89.2044 10.725 89.5819 11.6929 89.583 12.7004C89.5841 13.7079 89.2088 14.6766 88.5359 15.403H88.5394ZM84.0034 14.7924C84.5184 15.3169 85.2111 15.6107 85.9328 15.6107C86.6544 15.6107 87.3472 15.3169 87.8621 14.7924C88.3714 14.223 88.6544 13.4749 88.6544 12.6981C88.6544 11.9213 88.3714 11.1732 87.8621 10.6038C87.3472 10.0793 86.6544 9.78543 85.9328 9.78543C85.2111 9.78543 84.5184 10.0793 84.0034 10.6038C83.4941 11.1732 83.2111 11.9213 83.2111 12.6981C83.2111 13.4749 83.4941 14.223 84.0034 14.7924Z" fill="white"></path><path d="M85.9351 16.5774C85.4414 16.5891 84.9507 16.4953 84.4934 16.3018C84.0362 16.1083 83.6222 15.8192 83.2773 15.4526C82.593 14.7113 82.2111 13.7245 82.2111 12.6981C82.2111 11.6717 82.593 10.6849 83.2773 9.94358C83.9849 9.2216 84.9379 8.81751 85.9303 8.81867C86.9227 8.81983 87.8749 9.22613 88.5809 9.94977C89.2677 10.6879 89.652 11.6735 89.6531 12.6995C89.6542 13.7255 89.272 14.7119 88.5869 15.4517C88.2429 15.8181 87.83 16.1071 87.3738 16.3007C86.9176 16.4944 86.4279 16.5886 85.9351 16.5774ZM85.9351 8.96035C85.4597 8.94923 84.9873 9.03968 84.5471 9.22602C84.1069 9.41237 83.7084 9.69063 83.3762 10.0436C82.7168 10.7581 82.3488 11.7092 82.3488 12.6985C82.3488 13.6878 82.7168 14.6389 83.3762 15.3535C84.0596 16.0483 84.9782 16.4376 85.9351 16.4376C86.8919 16.4376 87.8105 16.0483 88.4939 15.3535C88.8279 15.0052 89.0908 14.5905 89.2666 14.1343C89.4425 13.6781 89.5278 13.1897 89.5174 12.6985C89.5236 12.2076 89.4353 11.7204 89.2577 11.2654C89.0801 10.8104 88.8168 10.3967 88.4831 10.0486C88.1495 9.70047 87.7523 9.42493 87.3148 9.23807C86.8773 9.05121 86.4082 8.95678 85.9351 8.96035ZM85.9351 15.6818C85.5673 15.6886 85.2022 15.6178 84.8617 15.4735C84.5212 15.3293 84.2126 15.1147 83.9545 14.8428C83.4323 14.2602 83.142 13.4941 83.142 12.6985C83.142 11.9029 83.4323 11.1368 83.9545 10.5542C84.4823 10.0162 85.1926 9.71475 85.9325 9.71475C86.6724 9.71475 87.3827 10.0162 87.9105 10.5542C88.4322 11.1369 88.7223 11.9027 88.7223 12.6981C88.7223 13.4934 88.4322 14.2593 87.9105 14.842C87.6541 15.1147 87.3465 15.3299 87.0067 15.4743C86.6669 15.6188 86.3022 15.6894 85.9351 15.6818ZM85.9351 9.85684C85.5851 9.84812 85.2372 9.91436 84.913 10.0514C84.5888 10.1884 84.2954 10.3934 84.0509 10.6533C83.5548 11.2095 83.2792 11.9394 83.2792 12.6972C83.2792 13.455 83.5548 14.1849 84.0509 14.7411C84.5531 15.2523 85.2285 15.5387 85.9321 15.5387C86.6356 15.5387 87.3111 15.2523 87.8133 14.7411C88.3096 14.1849 88.5854 13.4548 88.5854 12.6968C88.5854 11.9387 88.3096 11.2087 87.8133 10.6524C87.5692 10.3937 87.2766 10.1897 86.9536 10.0528C86.6305 9.91599 86.2839 9.84929 85.9351 9.85684Z" fill="white"></path><path d="M90.9547 16.3401V9.05762H92.0635L95.5171 14.7215H95.5572L95.5171 13.3215V9.05762H96.4306V16.3401H95.477L91.8605 10.3966H91.8204L91.8605 11.8028V16.3401H90.9547Z" fill="white"></path><path d="M96.5007 16.411H95.4414L95.4209 16.3782L91.8957 10.5852L91.9298 11.8011V16.411H90.8858V8.98688H92.1021L92.1226 9.01961L95.4849 14.5339L95.4508 13.3233V8.98688H96.5007V16.411ZM95.5164 16.2694H96.3643V9.12491H95.5872V13.318L95.629 14.7888H95.4815L95.461 14.7561L92.0279 9.12491H91.0231V16.2658H91.7908V11.7993L91.749 10.3223H91.8965L91.917 10.3551L95.5164 16.2694Z" fill="white"></path><path d="M82.8618 27.3909C81.8804 27.4075 80.9256 27.7246 80.1173 28.3023C79.309 28.8801 78.6833 29.6927 78.3188 30.6383C77.9542 31.5838 77.8671 32.62 78.0683 33.6167C78.2695 34.6134 78.7501 35.5262 79.4498 36.2405C80.1494 36.9548 81.0369 37.4386 82.0007 37.6313C82.9645 37.8239 83.9617 37.7168 84.867 37.3234C85.7724 36.9299 86.5454 36.2677 87.0892 35.4199C87.6329 34.5721 87.9231 33.5765 87.9232 32.5581C87.929 31.8707 87.8015 31.1892 87.5482 30.554C87.2948 29.9189 86.9209 29.3431 86.4487 28.8609C85.9764 28.3788 85.4155 28.0002 84.7993 27.7477C84.1831 27.4951 83.5242 27.3738 82.8618 27.3909V27.3909ZM82.8618 35.689C82.2573 35.7259 81.6559 35.5735 81.1358 35.2517C80.6156 34.9299 80.2006 34.4534 79.9445 33.884C79.6883 33.3147 79.6029 32.6786 79.6992 32.0583C79.7956 31.4379 80.0693 30.8619 80.4848 30.4048C80.9003 29.9477 81.4386 29.6306 82.0298 29.4946C82.6211 29.3586 83.2381 29.4099 83.8009 29.6419C84.3638 29.8739 84.8465 30.2759 85.1865 30.7959C85.5266 31.3158 85.7083 31.9298 85.7081 32.5581C85.7248 32.959 85.6639 33.3592 85.5289 33.7352C85.3939 34.1112 85.1877 34.4554 84.9223 34.7472C84.657 35.0391 84.3379 35.2729 83.984 35.4346C83.6301 35.5964 83.2485 35.6829 82.8618 35.689ZM71.8307 27.3909C70.849 27.4063 69.8936 27.7223 69.0845 28.2994C68.2754 28.8764 67.6488 29.6886 67.2833 30.6341C66.9178 31.5795 66.8298 32.6159 67.0304 33.613C67.231 34.6102 67.7111 35.5236 68.4105 36.2385C69.1099 36.9533 69.9974 37.4378 70.9614 37.6309C71.9254 37.8241 72.9229 37.7173 73.8286 37.324C74.7342 36.9307 75.5077 36.2685 76.0517 35.4206C76.5957 34.5726 76.886 33.5767 76.8861 32.5581C76.8923 31.8712 76.7653 31.19 76.5126 30.5551C76.2598 29.9202 75.8866 29.3446 75.415 28.8624C74.9433 28.3803 74.383 28.0016 73.7674 27.7488C73.1518 27.496 72.4934 27.3743 71.8315 27.3909H71.8307ZM71.8307 35.689C71.2257 35.7273 70.6236 35.5761 70.1024 35.2551C69.5812 34.9341 69.165 34.458 68.9078 33.8886C68.6506 33.3192 68.5642 32.6828 68.6598 32.0618C68.7554 31.4409 69.0286 30.864 69.444 30.4061C69.8594 29.9482 70.3979 29.6303 70.9895 29.4938C71.5811 29.3572 72.1986 29.4082 72.762 29.6401C73.3254 29.872 73.8086 30.2742 74.149 30.7945C74.4894 31.3148 74.6712 31.9293 74.671 32.5581C74.6867 32.9581 74.6254 33.3574 74.4905 33.7325C74.3556 34.1076 74.1499 34.4511 73.8854 34.7427C73.621 35.0342 73.3031 35.2681 72.9504 35.4306C72.5978 35.5931 72.2174 35.681 71.8315 35.689H71.8307ZM58.7081 28.9741V31.1696H63.8215C63.7479 32.1993 63.3378 33.1721 62.6589 33.9271C62.1426 34.4625 61.5251 34.8813 60.8451 35.157C60.1651 35.4326 59.4375 35.5592 58.7081 35.5288C57.2176 35.5288 55.7881 34.9145 54.7341 33.821C53.6802 32.7275 53.088 31.2444 53.088 29.698C53.088 28.1515 53.6802 26.6684 54.7341 25.5749C55.7881 24.4814 57.2176 23.8671 58.7081 23.8671C60.1406 23.8442 61.5244 24.4064 62.5609 25.4326L64.0697 23.8857C63.3609 23.1682 62.5222 22.6033 61.602 22.2236C60.6818 21.8439 59.6983 21.6569 58.7081 21.6733C57.6743 21.6435 56.6451 21.8291 55.6816 22.219C54.718 22.6089 53.8396 23.1952 53.0981 23.9433C52.3567 24.6915 51.7674 25.5862 51.365 26.5747C50.9626 27.5632 50.7552 28.6254 50.7552 29.6984C50.7552 30.7715 50.9626 31.8336 51.365 32.8221C51.7674 33.8106 52.3567 34.7053 53.0981 35.4535C53.8396 36.2016 54.718 36.788 55.6816 37.1779C56.6451 37.5678 57.6743 37.7533 58.7081 37.7235C59.7196 37.7674 60.7285 37.5894 61.6692 37.2012C62.6098 36.8129 63.461 36.2232 64.167 35.4704C64.905 34.5905 65.4439 33.5504 65.7443 32.4263C66.0446 31.3022 66.0987 30.1227 65.9027 28.9741H58.7081ZM112.381 30.6767C112.074 29.736 111.495 28.9162 110.723 28.3285C109.951 27.7407 109.024 27.4134 108.066 27.3909C107.423 27.3914 106.787 27.5272 106.195 27.7901C105.604 28.053 105.07 28.4376 104.627 28.9206C104.183 29.4036 103.838 29.9749 103.613 30.6001C103.388 31.2254 103.287 31.8914 103.317 32.5581C103.306 33.2412 103.428 33.9196 103.676 34.5526C103.924 35.1857 104.292 35.7605 104.758 36.2428C105.224 36.725 105.78 37.1047 106.391 37.3593C107.002 37.6139 107.656 37.738 108.315 37.7244C109.143 37.7326 109.96 37.5277 110.693 37.128C111.426 36.7283 112.052 36.1463 112.515 35.4342L110.797 34.2607C110.537 34.7005 110.171 35.0633 109.737 35.3136C109.302 35.564 108.812 35.6936 108.315 35.6899C107.804 35.7106 107.299 35.5725 106.865 35.2934C106.43 35.0143 106.086 34.607 105.876 34.1235L112.614 31.2643L112.381 30.6767ZM105.51 32.397C105.49 32.0195 105.542 31.6416 105.663 31.2851C105.785 30.9287 105.974 30.6009 106.218 30.3209C106.463 30.0409 106.76 29.8142 107.09 29.6541C107.42 29.494 107.777 29.4036 108.141 29.3882C108.523 29.3612 108.904 29.4506 109.238 29.6454C109.571 29.8402 109.842 30.132 110.018 30.4847L105.51 32.397ZM100.033 37.4093H102.25V22.2247H100.033V37.4093ZM96.4041 28.5414H96.3299C95.9914 28.1666 95.5804 27.8704 95.1238 27.6721C94.6673 27.4739 94.1754 27.378 93.6806 27.3909C92.3851 27.4303 91.1553 27.9919 90.2523 28.9565C89.3494 29.9212 88.8443 31.2129 88.8443 32.5576C88.8443 33.9023 89.3494 35.1941 90.2523 36.1588C91.1553 37.1234 92.3851 37.685 93.6806 37.7244C94.1776 37.7377 94.6715 37.6397 95.1287 37.437C95.5859 37.2344 95.9956 36.9318 96.3299 36.55H96.4041V37.2907C96.4041 39.2659 95.3754 40.3279 93.7147 40.3279C93.1632 40.3147 92.6277 40.1325 92.1759 39.8042C91.724 39.4758 91.3759 39.016 91.1755 38.4828L89.2487 39.3075C89.6177 40.2184 90.2392 40.9951 91.0344 41.539C91.8295 42.0828 92.7624 42.3694 93.7147 42.3623C96.312 42.3623 98.504 40.7951 98.504 36.9819V27.7051H96.4041V28.5414ZM93.8708 35.689C93.1095 35.6296 92.3978 35.2739 91.8786 34.6931C91.3593 34.1123 91.0708 33.3494 91.0708 32.5572C91.0708 31.765 91.3593 31.0021 91.8786 30.4214C92.3978 29.8406 93.1095 29.4848 93.8708 29.4254C94.6108 29.515 95.2934 29.8834 95.7887 30.4608C96.2841 31.0382 96.5577 31.7842 96.5577 32.5572C96.5577 33.3302 96.2841 34.0762 95.7887 34.6536C95.2934 35.231 94.6108 35.5994 93.8708 35.689V35.689ZM122.752 22.2247H117.454V37.4093H119.663V31.6572H122.752C123.374 31.7006 123.999 31.6108 124.586 31.3935C125.174 31.1761 125.713 30.8358 126.168 30.3936C126.624 29.9515 126.987 29.4169 127.236 28.8231C127.484 28.2292 127.612 27.5887 127.612 26.9414C127.612 26.294 127.484 25.6536 127.236 25.0597C126.987 24.4659 126.624 23.9313 126.168 23.4891C125.713 23.047 125.174 22.7067 124.586 22.4893C123.999 22.272 123.374 22.1822 122.752 22.2255L122.752 22.2247ZM122.81 29.544H119.664V24.337H122.81C123.148 24.3241 123.484 24.3819 123.799 24.5069C124.115 24.6319 124.403 24.8216 124.646 25.0647C124.889 25.3077 125.082 25.5991 125.214 25.9214C125.346 26.2437 125.414 26.5903 125.414 26.9405C125.414 27.2907 125.346 27.6373 125.214 27.9596C125.082 28.2819 124.889 28.5733 124.646 28.8163C124.403 29.0594 124.115 29.2491 123.799 29.3741C123.484 29.4991 123.148 29.5569 122.81 29.544V29.544ZM136.468 27.3617C135.665 27.3117 134.865 27.5047 134.166 27.9174C133.466 28.3301 132.898 28.9447 132.529 29.6865L134.491 30.5289C134.687 30.1603 134.982 29.8586 135.34 29.6605C135.698 29.4624 136.104 29.3765 136.509 29.413C137.066 29.354 137.624 29.5262 138.06 29.8921C138.496 30.258 138.774 30.7879 138.835 31.3661V31.5254C138.123 31.1358 137.33 30.934 136.526 30.9378C134.415 30.9378 132.261 32.1298 132.261 34.3545C132.261 36.3899 133.991 37.6996 135.935 37.6996C136.49 37.7336 137.044 37.6137 137.54 37.3521C138.036 37.0905 138.456 36.6967 138.757 36.2111H138.833V37.3845H140.965V31.5572C140.966 28.8679 139.005 27.3617 136.466 27.3617H136.468ZM136.201 35.6802C135.478 35.6802 134.471 35.3129 134.471 34.3943C134.471 33.2191 135.727 32.7678 136.814 32.7678C137.519 32.7503 138.216 32.9265 138.834 33.2784C138.748 33.9417 138.435 34.5504 137.95 34.9924C137.466 35.4343 136.844 35.6795 136.199 35.6828L136.201 35.6802ZM148.739 27.6909L146.2 34.274H146.125L143.5 27.6909H141.116L145.061 36.8943L142.81 42.0137H145.119L151.198 27.6954L148.739 27.6909ZM128.824 37.4067H131.041V22.2247H128.824V37.4067Z" fill="white"></path><path d="M12.787 9.86296C12.3973 10.3368 12.2004 10.9492 12.2377 11.5709V38.4359C12.2002 39.0576 12.3972 39.6701 12.787 40.1438L12.8723 40.2261L27.5533 25.1821V24.8282L12.8723 9.78418L12.787 9.86296Z" fill="url(#paint0_linear_981_2031)"></path><path d="M32.7602 30.1976L27.872 25.1789V24.8249L32.7662 19.8062L32.8763 19.8716L38.672 23.2532C40.3259 24.2134 40.3259 25.7922 38.672 26.7577L32.8763 30.1339L32.7602 30.1976Z" fill="url(#paint1_linear_981_2031)"></path><path d="M32.5596 30.2557L27.5563 25.1228L12.7917 40.2693C13.341 40.8613 14.2366 40.933 15.2559 40.341L32.5622 30.2522" fill="url(#paint2_linear_981_2031)"></path><path d="M32.5591 19.7465L15.2529 9.65768C14.2344 9.07182 13.338 9.1426 12.7887 9.73554L27.5558 24.8776L32.5591 19.7465Z" fill="url(#paint3_linear_981_2031)"></path><defs><linearGradient id="paint0_linear_981_2031" x1="28.0588" y1="-73.5658" x2="4.45584" y2="-67.3604" gradientUnits="userSpaceOnUse"><stop stop-color="#00A0FF"></stop><stop offset="0.007" stop-color="#00A1FF"></stop><stop offset="0.26" stop-color="#00BEFF"></stop><stop offset="0.512" stop-color="#00D2FF"></stop><stop offset="0.76" stop-color="#00DFFF"></stop><stop offset="1" stop-color="#00E3FF"></stop></linearGradient><linearGradient id="paint1_linear_981_2031" x1="42.6095" y1="-59.7405" x2="14.0135" y2="-59.7405" gradientUnits="userSpaceOnUse"><stop stop-color="#FFE000"></stop><stop offset="0.409" stop-color="#FFBD00"></stop><stop offset="0.775" stop-color="#FFA500"></stop><stop offset="1" stop-color="#FF9C00"></stop></linearGradient><linearGradient id="paint2_linear_981_2031" x1="21.7873" y1="-67.0667" x2="2.30385" y2="-34.6982" gradientUnits="userSpaceOnUse"><stop stop-color="#FF3A44"></stop><stop offset="1" stop-color="#C31162"></stop></linearGradient><linearGradient id="paint3_linear_981_2031" x1="1.06482" y1="-73.9804" x2="9.77344" y2="-59.5177" gradientUnits="userSpaceOnUse"><stop stop-color="#32A071"></stop><stop offset="0.068" stop-color="#2DA771"></stop><stop offset="0.476" stop-color="#15CF74"></stop><stop offset="0.801" stop-color="#06E775"></stop><stop offset="1" stop-color="#00F076"></stop></linearGradient></defs></svg>